<svg xmlns="http://www.w3.org/2000/svg" xmlns:xlink="http://www.w3.org/1999/xlink" width="32" height="32" viewBox="0 0 32 32">
    <defs>
        <path id="a" d="M8.996 18h8.997V.007H0V18h8.996z"/>
    </defs>
    <g fill="none" fill-rule="evenodd" opacity=".6">
        <path d="M0 0h32v32H0z"/>
        <g transform="translate(7 7)">
            <mask id="b" fill="#fff">
                <use xlink:href="#a"/>
            </mask>
            <path fill="#FAFAFA" d="M17 18a.993.993 0 0 0 .993-.993V1A.993.993 0 0 0 17 .007H.993A.993.993 0 0 0 0 1v16.007c0 .548.444.993.993.993H17z" mask="url(#b)"/>
        </g>
        <path fill="#3B4559" d="M19.193 25v-6.842h2.358l.353-2.667h-2.711V13.79c0-.772.22-1.298 1.357-1.298L22 12.49v-2.385A19.926 19.926 0 0 0 19.887 10c-2.091 0-3.522 1.243-3.522 3.525v1.966H14v2.667h2.365V25h2.828z"/>
    </g>
</svg>
