<?xml version="1.0" encoding="UTF-8"?>
<svg width="28px" height="28px" viewBox="0 0 28 28" version="1.1" xmlns="http://www.w3.org/2000/svg" xmlns:xlink="http://www.w3.org/1999/xlink">
    <!-- Generator: sketchtool 61.2 (101010) - https://sketch.com -->
    <title>CF2CECE4-CE77-4D04-B0E6-0943FB40601A</title>
    <desc>Created with sketchtool.</desc>
    <defs>
        <path d="M12,2 C8.14,2 5,5.14 5,9 C5,14.25 12,22 12,22 C12,22 19,14.25 19,9 C19,5.14 15.86,2 12,2 Z M9.95,12.49 L8.51,12.49 L8.51,11.05 L12.44,7.13 L13.87,8.56 L9.95,12.49 Z M15.29,7.15 L14.59,7.85 L13.15,6.41 L13.85,5.71 C14,5.56 14.24,5.56 14.39,5.71 L15.29,6.61 C15.44,6.76 15.44,7 15.29,7.15 Z" id="path-1"></path>
    </defs>
    <g id="Home---Nov28" stroke="none" stroke-width="1" fill="none" fill-rule="evenodd">
        <g id="Cobertura-Fail" transform="translate(-585.000000, -299.000000)">
            <g id="Card" transform="translate(0.000000, 80.000000)">
                <g id="Cobertura">
                    <g id="Change" transform="translate(585.000000, 219.000000)">
                        <g id="icon">
                            <g id="icon/communication/call_24px-icon/maps/edit_location_24px" transform="translate(2.000000, 2.000000)">
                                <mask id="mask-2" fill="white">
                                    <use xlink:href="#path-1"></use>
                                </mask>
                                <g id="icon/maps/edit_location_24px" fill-rule="nonzero"></g>
                                <g id="GrisAzul/800(Principal)-zEspecial/Highlight-Light" mask="url(#mask-2)" fill="#1A76D2">
                                    <rect id="Color" x="0" y="0" width="24" height="24"></rect>
                                </g>
                            </g>
                        </g>
                    </g>
                </g>
            </g>
        </g>
    </g>
</svg>