<svg xmlns="http://www.w3.org/2000/svg" xmlns:xlink="http://www.w3.org/1999/xlink" width="52" height="52" viewBox="0 0 52 52">
    <defs>
        <path id="a" d="M34.832 10.368l-4.378-2.214v-6.84a.97.97 0 0 0-.97-.98H24.58a.97.97 0 0 0-.97.98v3.364l-5.126-2.579a.988.988 0 0 0-.887 0L1.22 10.368a1 1 0 0 0-.554.897v4.961c0 .336.166.673.47.84.278.169.666.197.943.057l3.491-1.766V27.83c0 .56.444.981.97.981h22.915a.97.97 0 0 0 .97-.98V15.384l3.408 1.738c.305.14.665.14.943-.028.277-.168.47-.505.47-.841l.084-4.961a.948.948 0 0 0-.499-.925zm-16.903 19.76c.527 0 .97.449.97.982v11.576a.987.987 0 0 1-.97.98.97.97 0 0 1-.97-.98V31.11a.97.97 0 0 1 .97-.981zm3.298 0c.526 0 .97.449.97.982v8.268a.987.987 0 0 1-.97.981.97.97 0 0 1-.97-.98v-8.27a.97.97 0 0 1 .97-.98zm-6.567 0c.554 0 .997.449.97.982v4.96a.987.987 0 0 1-.97.982.97.97 0 0 1-.97-.981V31.11a.97.97 0 0 1 .97-.981zM28.459 2.324V8.77c0 .365.222.729.554.897l4.35 2.214-.027 2.747L29.9 12.89c-.305-.168-.665-.14-.97.028a1.017 1.017 0 0 0-.471.841v13.062H7.539v-13.09c0-.336-.167-.672-.472-.84a1.018 1.018 0 0 0-.942-.057L2.634 14.6v-2.747l15.379-7.792 6.096 3.083c.304.14.665.14.942-.056.277-.168.47-.504.47-.84V2.323h2.938zm-10.53 17.379a1 1 0 0 0-.997 1.009 1 1 0 0 0 .997 1.009 1 1 0 0 0 .998-1.01c.028-.56-.443-1.008-.998-1.008zm-4.766-2.159a.99.99 0 0 0 0 1.402.962.962 0 0 0 1.386 0c1.884-1.906 4.932-1.906 6.789 0 .194.196.443.28.692.28.25 0 .5-.084.693-.28a.99.99 0 0 0 0-1.402 6.67 6.67 0 0 0-9.56 0zm4.766-6.082c-2.881 0-5.597 1.121-7.62 3.195a.99.99 0 0 0 0 1.402c.194.196.444.28.693.28.25 0 .499-.084.693-.28a8.71 8.71 0 0 1 6.234-2.607 8.71 8.71 0 0 1 6.235 2.607.962.962 0 0 0 1.385 0 .99.99 0 0 0 0-1.402 10.672 10.672 0 0 0-7.62-3.195z"/>
    </defs>
    <g fill="none" fill-rule="evenodd" transform="translate(8 4)">
        <mask id="b" fill="#fff">
            <use xlink:href="#a"/>
        </mask>
        <use fill="#324458" fill-rule="nonzero" xlink:href="#a"/>
        <g fill="#3B4559" mask="url(#b)">
            <path d="M-8-4h52v52H-8z"/>
        </g>
    </g>
</svg>
