<svg xmlns="http://www.w3.org/2000/svg" xmlns:xlink="http://www.w3.org/1999/xlink" width="52" height="52" viewBox="0 0 52 52">
    <defs>
        <path id="a" d="M33.93 26.238l-3.057-3.057a3.89 3.89 0 0 0-2.947-1.259c-1.7.071-2.905 1.333-3.173 1.614-3.677 3.618-9.942-2.26-9.968-2.279-.026-.019-5.95-6.313-2.318-10.005.294-.258 1.556-1.469 1.63-3.173a3.873 3.873 0 0 0-1.262-2.944L9.778 2.08C9.546 1.814 8.51.729 7.148.669a2.747 2.747 0 0 0-2.09.858L1.583 5.013a1.107 1.107 0 0 0-.235.322c-.165.368-3.92 9.131 8.134 21.184 7.331 7.33 13.445 8.814 17.193 8.814 2.414 0 3.848-.616 3.99-.68.126-.059.24-.139.339-.236l3.47-3.47c.575-.54.888-1.303.858-2.092-.058-1.349-1.142-2.385-1.4-2.617zM7.04 2.966c.401.099.758.325 1.018.646l.067.074 3.086 3.086c.363.305.58.75.594 1.223-.025.694-.645 1.372-.861 1.569a.675.675 0 0 0-.071.064c-5.252 5.252 1.936 12.91 2.288 13.266.323.323 7.98 7.501 13.235 2.26.026-.023.045-.05.068-.072.145-.174.842-.832 1.56-.862.477.011.926.228 1.232.594l3.086 3.086.074.065c.207.174.623.668.646 1.016-.013.045-.01.162-.207.362h.007l-3.309 3.308c-1.175.407-8.393 2.32-18.454-7.727C1.037 14.876 2.94 7.666 3.367 6.462L6.67 3.16c.197-.197.322-.19.37-.194zm12.006 5.636a8.492 8.492 0 0 1 8.48 8.479 1.146 1.146 0 1 1-2.289 0 6.197 6.197 0 0 0-6.191-6.19 1.146 1.146 0 0 1 0-2.29zm.003-5.077c7.483.01 13.547 6.073 13.558 13.556a1.143 1.143 0 0 1-2.286 0c-.014-6.22-5.054-11.259-11.275-11.271a1.14 1.14 0 0 1-1.082-1.141c0-.61.477-1.112 1.085-1.144z"/>
    </defs>
    <g fill="none" fill-rule="evenodd" transform="translate(8 8)">
        <mask id="b" fill="#fff">
            <use xlink:href="#a"/>
        </mask>
        <use fill="#324458" fill-rule="nonzero" xlink:href="#a"/>
        <g fill="#3B4559" mask="url(#b)">
            <path d="M-8-8h52v52H-8z"/>
        </g>
    </g>
</svg>
