<svg xmlns="http://www.w3.org/2000/svg" xmlns:xlink="http://www.w3.org/1999/xlink" width="52" height="52" viewBox="0 0 52 52">
    <defs>
        <path id="a" d="M8.102 22.398h6.139v2.586c.03.59.507 1.051 1.084 1.051.577 0 1.053-.462 1.084-1.051v-2.586h1.443v2.586c.03.59.506 1.051 1.083 1.051.578 0 1.054-.462 1.084-1.051v-4.713l5.375 5.51a1.065 1.065 0 0 0 1.491-.038 1.126 1.126 0 0 0 .038-1.525l-4.647-4.776 4.65-4.757a1.126 1.126 0 0 0-.038-1.525 1.065 1.065 0 0 0-1.491-.038l-5.372 5.491v-4.84a1.096 1.096 0 0 0-1.083-1.052c-.577 0-1.054.462-1.084 1.051v6.408h-1.443v-6.283a1.108 1.108 0 0 0-.668-1.027 1.065 1.065 0 0 0-1.182.242l-7.224 7.394c-.31.315-.405.792-.238 1.206.167.414.561.685.999.686zM34.248 9.1c.29 0 .569.119.773.33.204.212.316.499.312.796v18.452c0 .294-.114.576-.318.783a1.07 1.07 0 0 1-.767.324H19.065v1.72l6.42 1.638c.55.12.917.649.85 1.218a1.09 1.09 0 0 1-1.112.972c-.089 0-.177-.01-.263-.032l-6.977-1.782-6.94 1.782a1.092 1.092 0 0 1-.266.032 1.09 1.09 0 0 1-1.111-.972c-.069-.57.3-1.098.848-1.218l6.384-1.638v-1.72H1.752a1.07 1.07 0 0 1-.767-.324 1.12 1.12 0 0 1-.318-.783V10.21c0-.613.486-1.11 1.085-1.11zm-1.076 2.208H2.834V27.57h30.338V11.308zm-18.931 5.27v3.602h-3.519l3.519-3.603zm-.84-10.187a6.352 6.352 0 0 1 9.11 0c.387.438.37 1.109-.037 1.526a1.065 1.065 0 0 1-1.492.038 4.232 4.232 0 0 0-3.026-1.282 4.232 4.232 0 0 0-3.027 1.282 1.065 1.065 0 0 1-1.491-.038A1.126 1.126 0 0 1 13.4 6.39zm-2.624-2.686a10.014 10.014 0 0 1 14.37 0c.296.274.42.693.323 1.09-.097.396-.4.706-.787.805-.388.1-.797-.028-1.065-.331a7.88 7.88 0 0 0-11.312 0 1.07 1.07 0 0 1-.765.312l.003.016a1.085 1.085 0 0 1-.999-.685 1.129 1.129 0 0 1 .232-1.207z"/>
    </defs>
    <g fill="none" fill-rule="evenodd" transform="translate(8 8)">
        <mask id="b" fill="#fff">
            <use xlink:href="#a"/>
        </mask>
        <use fill="#324458" fill-rule="nonzero" xlink:href="#a"/>
        <g fill="#3B4559" mask="url(#b)">
            <path d="M-8-8h52v52H-8z"/>
        </g>
    </g>
</svg>
