<svg xmlns="http://www.w3.org/2000/svg" xmlns:xlink="http://www.w3.org/1999/xlink" width="52" height="52" viewBox="0 0 52 52">
    <defs>
        <path id="a" d="M34.251 8.684c.287 0 .562.11.765.308.174.169.283.389.31.624l.007.118V29.02c0 .279-.114.546-.317.743a1.096 1.096 0 0 1-.643.3l-.122.007H19.065v1.632l6.42 1.555c.55.113.918.615.85 1.155-.07.54-.552.94-1.112.922-.06 0-.118-.005-.177-.014l-.086-.019-6.977-1.688-6.94 1.688a1.03 1.03 0 0 1-.266.033 1.073 1.073 0 0 1-1.111-.922 1.05 1.05 0 0 1 .734-1.125l.114-.03 6.384-1.552V30.07H1.752a1.1 1.1 0 0 1-.767-.306 1.038 1.038 0 0 1-.311-.625l-.007-.119V9.734c0-.279.114-.546.318-.743.174-.17.402-.274.645-.3l.122-.007h32.5zm-1.094 2.1H2.834V27.97h30.332l-.01-17.184zm-12.798 9.234c.509-.003.939.335 1.056.796l.023.117.01.113v4.45l-.007.12a1.035 1.035 0 0 1-.31.624c-.14.135-.313.23-.5.275l-.144.025-.122.007H15.73l-.125-.007a1.07 1.07 0 0 1-.926-.79l-.023-.117-.008-.113v-4.45l.006-.115c.05-.447.39-.81.834-.91l.124-.02.118-.005h4.629zm-9.54 0c.507 0 .933.339 1.051.797l.023.117.01.112v4.45l-.007.115c-.05.448-.39.811-.835.91l-.123.02-.118.006H6.185l-.125-.007a1.073 1.073 0 0 1-.929-.79l-.022-.117-.01-.113v-4.45l.007-.115c.052-.448.393-.811.837-.91l.124-.02.118-.005h4.635zm19.078 0c.508 0 .935.338 1.054.796l.023.118.009.112v4.45l-.007.12a1.038 1.038 0 0 1-.311.624c-.14.135-.314.23-.502.275l-.143.025-.123.007h-4.634l-.125-.007a1.07 1.07 0 0 1-.927-.79l-.022-.117-.009-.113v-4.45l.007-.115c.05-.447.39-.81.834-.91l.124-.02.118-.005h4.634zm-10.614 2.076h-2.47v2.332h2.47v-2.332zm-9.548 0H7.267v2.332h2.468v-2.332zm19.08 0h-2.47v2.332h2.47v-2.332zm-8.45-9.918c.287 0 .563.11.766.307.174.169.283.39.31.625l.006.118v4.45c0 .542-.422.988-.964 1.045l-.118.006H15.73c-.558 0-1.017-.41-1.076-.936l-.006-.114v-4.45c-.001-.28.113-.547.316-.744.174-.169.401-.274.644-.3l.122-.007h4.635zm-9.545 0c.518 0 .951.353 1.057.825l.019.111.006.114v4.45l-.006.115c-.052.447-.391.81-.835.91l-.123.02-.118.006H6.185l-.118-.006a1.076 1.076 0 0 1-.94-.81l-.02-.12-.007-.114v-4.45l.007-.12c.027-.235.136-.455.31-.624.14-.135.314-.23.502-.275l.144-.025.122-.007h4.635zm19.077 0c.288 0 .564.11.768.307.14.135.237.303.285.486l.026.139.007.118v4.45l-.007.115a1.066 1.066 0 0 1-.837.91l-.124.02-.118.006h-4.634l-.118-.006a1.072 1.072 0 0 1-.938-.81l-.02-.12-.007-.114v-4.45l.007-.12c.027-.234.135-.455.31-.624.139-.135.312-.23.5-.275l.143-.025.123-.007h4.634zm-10.614 2.1h-2.47v2.336h2.47v-2.335zm-9.548 0H7.267v2.336h2.468v-2.335zm19.08 0h-2.47v2.336h2.47v-2.335zm-10.9-10.01c1.71 0 3.35.66 4.56 1.834.3.302.386.748.22 1.135-.167.387-.556.64-.988.645a1.09 1.09 0 0 1-.764-.297 4.347 4.347 0 0 0-3.027-1.216 4.347 4.347 0 0 0-3.027 1.216 1.103 1.103 0 0 1-1.065.315 1.067 1.067 0 0 1-.787-.764A1.03 1.03 0 0 1 13.36 6.1a6.533 6.533 0 0 1 4.555-1.833zm7.189-.715c.42.411.42 1.073 0 1.484a1.106 1.106 0 0 1-1.529 0 8.123 8.123 0 0 0-5.656-2.274 8.123 8.123 0 0 0-5.656 2.274 1.106 1.106 0 0 1-1.491-.036 1.028 1.028 0 0 1-.038-1.448c3.97-3.846 10.4-3.846 14.37 0z"/>
    </defs>
    <g fill="none" fill-rule="evenodd" transform="translate(8 8)">
        <mask id="b" fill="#fff">
            <use xlink:href="#a"/>
        </mask>
        <use fill="#324458" xlink:href="#a"/>
        <g fill="#3B4559" mask="url(#b)">
            <path d="M-8-8h52v52H-8z"/>
        </g>
    </g>
</svg>
