<svg xmlns="http://www.w3.org/2000/svg" width="32" height="32" viewBox="0 0 32 32">
    <g fill="none" fill-rule="evenodd" opacity=".6">
        <path d="M0 0h32v32H0z"/>
        <path fill="#FFF" d="M16 6c-2.716 0-3.056.012-4.123.06-1.064.049-1.791.218-2.427.465a4.901 4.901 0 0 0-1.772 1.153A4.902 4.902 0 0 0 6.525 9.45c-.247.636-.416 1.363-.465 2.427C6.011 12.944 6 13.284 6 16s.011 3.056.06 4.123c.049 1.064.218 1.791.465 2.427a4.902 4.902 0 0 0 1.153 1.772 4.902 4.902 0 0 0 1.772 1.153c.636.247 1.363.416 2.427.465 1.067.048 1.407.06 4.123.06s3.056-.012 4.123-.06c1.064-.049 1.791-.218 2.427-.465a4.902 4.902 0 0 0 1.772-1.153 4.901 4.901 0 0 0 1.153-1.772c.247-.636.416-1.363.465-2.427.048-1.067.06-1.407.06-4.123s-.012-3.056-.06-4.123c-.049-1.064-.218-1.791-.465-2.427a4.902 4.902 0 0 0-1.153-1.772 4.901 4.901 0 0 0-1.772-1.153c-.636-.247-1.363-.416-2.427-.465C19.056 6.012 18.716 6 16 6m0 1.802c2.67 0 2.986.01 4.04.058.976.045 1.505.207 1.858.344.466.182.8.399 1.15.748.35.35.566.684.748 1.15.136.353.3.882.344 1.857.048 1.055.058 1.37.058 4.041 0 2.67-.01 2.986-.058 4.04-.045.976-.208 1.505-.344 1.858a3.1 3.1 0 0 1-.748 1.15c-.35.35-.684.566-1.15.748-.353.136-.882.3-1.857.344-1.054.048-1.37.058-4.041.058-2.67 0-2.987-.01-4.04-.058-.976-.045-1.505-.208-1.858-.344a3.098 3.098 0 0 1-1.15-.748 3.099 3.099 0 0 1-.748-1.15c-.137-.353-.3-.882-.344-1.857-.048-1.055-.058-1.37-.058-4.041 0-2.67.01-2.986.058-4.04.045-.976.207-1.505.344-1.858.182-.466.399-.8.748-1.15.35-.35.684-.566 1.15-.748.353-.137.882-.3 1.857-.344 1.055-.048 1.37-.058 4.041-.058zm0 11.444a3.246 3.246 0 1 1 0-6.492 3.246 3.246 0 0 1 0 6.492zM16 11a5 5 0 1 0 0 10 5 5 0 0 0 0-10zm-4 0a1 1 0 1 0-2 0 1 1 0 0 0 2 0z"/>
    </g>
</svg>
