<svg xmlns="http://www.w3.org/2000/svg" xmlns:xlink="http://www.w3.org/1999/xlink" width="32" height="32" viewBox="0 0 32 32">
    <defs>
        <path id="a" d="M.021 0h21.654v18.979H.021z"/>
    </defs>
    <g fill="none" fill-rule="evenodd" opacity=".6">
        <path d="M0 0h32v32H0z"/>
        <path fill="#FFFFFE" d="M28.84 22.473h-.222v-.338h.281c.146 0 .312.018.312.16 0 .165-.168.178-.371.178zm.22.1c.225-.02.342-.113.342-.27 0-.19-.154-.282-.469-.282h-.506v1h.191v-.435h.235l.006.005.364.43h.204l-.392-.445.025-.003z"/>
        <g transform="translate(8 7)">
            <mask id="b" fill="#fff">
                <use xlink:href="#a"/>
            </mask>
            <path fill="#FFFFFE" d="M20.747 16.308a.785.785 0 0 1-.792-.8c0-.45.349-.798.792-.798.445 0 .792.347.792.798 0 .452-.347.8-.792.8zm0-1.72a.914.914 0 0 0-.928.92c0 .516.408.92.928.92s.928-.404.928-.92a.914.914 0 0 0-.928-.92zM16.328 16.19h-2.84v-4.41c0-1.051-.02-2.404-1.477-2.404-1.48 0-1.705 1.146-1.705 2.33v4.484h-2.84V7.123h2.725v1.24h.039c.38-.713 1.307-1.465 2.689-1.465 2.878 0 3.41 1.878 3.41 4.319v4.973zM4.261 5.884A1.64 1.64 0 0 1 2.614 4.25a1.64 1.64 0 0 1 1.647-1.634c.909 0 1.647.732 1.647 1.634 0 .902-.738 1.634-1.647 1.634zM2.84 16.19h2.843V7.123H2.84v9.067zM17.743 0H1.414C.634 0 0 .614 0 1.37v16.26C0 18.385.634 19 1.414 19h16.33c.781 0 1.417-.614 1.417-1.37V1.37c0-.756-.636-1.37-1.418-1.37z" mask="url(#b)"/>
        </g>
    </g>
</svg>
