<svg xmlns="http://www.w3.org/2000/svg" xmlns:xlink="http://www.w3.org/1999/xlink" width="129" height="72" viewBox="0 0 129 72">
    <defs>
        <path id="a" d="M.563 26.452H127.93V.548H.563z"/>
    </defs>
    <g fill="none" fill-rule="evenodd" transform="translate(-1 22)">
        <path fill="#75787B" d="M124.722 10.825v.72h.48c.296 0 .507-.084.507-.333 0-.316-.182-.4-.535-.4-.157 0-.298 0-.452.013m1.727 2.186h-.618l-.408-.923c-.047-.087-.047-.1-.186-.1h-.481v1.023h-.528v-2.648c.418-.027.713-.04 1.009-.04.594 0 1.134.173 1.134.833 0 .318-.17.572-.465.7.22.378.53 1.123.543 1.155m-3.455-1.343c0 1.133.993 2.076 2.218 2.076 1.234 0 2.225-.943 2.225-2.076 0-1.148-.991-2.078-2.225-2.078-1.225 0-2.218.93-2.218 2.078m-.494.006c0-1.423 1.21-2.573 2.715-2.573 1.49 0 2.715 1.15 2.715 2.573 0 1.404-1.224 2.56-2.715 2.56-1.505 0-2.715-1.156-2.715-2.56"/>
        <mask id="b" fill="#fff">
            <use xlink:href="#a"/>
        </mask>
        <path fill="#75787B" d="M91.646 21.32h3.208V4.458h-3.208zM84.568 21.42c-1.382 0-2.133-.328-2.904-1.433h-.047v5.976h-3.3V9.36h2.786l.21 1.388h.047c.843-1.221 1.873-1.647 3.325-1.647 3.582 0 4.986 2.82 4.986 6.043 0 3.362-1.382 6.276-5.103 6.276m-.767-9.63c-1.378 0-2.276.543-2.276 2.033v2.624c0 1.635.507 2.674 2.23 2.674 2.161 0 2.46-1.986 2.46-3.808 0-1.868-.253-3.524-2.414-3.524M115.68 21.629c-1.555 3.929-2.307 4.823-5.178 4.823-.472 0-.966-.023-1.79-.117v-2.753c.214.022.612.07 1.318.07 1.27 0 1.578-.33 2-1.388l.543-1.341-4.636-11.577h3.599l2.731 8.164h.047l2.658-8.164h3.553l-4.846 12.283zM103.987 18.206c-.793.548-1.656.915-2.658.915-.954 0-1.538-.595-1.538-1.558 0-2.084 2.656-2.108 4.196-2.108v2.75zm3.225.086v-.505-3.984c0-3.35-1.284-4.702-4.72-4.702-2.077 0-3.785.466-5.63 1.396l1.027 2.235c1.31-.721 2.782-1.21 4.3-1.21 1.191 0 1.729.349 1.729 1.444v.555c-2.92-.021-7.336.375-7.336 4.238 0 2.258 1.566 3.561 3.786 3.561 1.438 0 2.76-.482 3.9-1.381.01.071.02.131.031.17.357 1.124 2.3 1.203 3.766 1.124l.119-2.487c-.615-.02-.972-.099-.972-.454zM43.648 21.32c-4.086 0-6.06-2.473-6.06-6.109 0-3.403 1.762-6.11 6.06-6.11 3.97 0 6.036 2.332 6.036 6.11 0 3.614-1.926 6.11-6.036 6.11m.113-9.532c-2.078 0-2.717 1.229-2.717 3.498 0 2.316.662 3.59 2.74 3.59 2.03 0 2.69-1.251 2.69-3.59 0-2.27-.637-3.498-2.713-3.498" mask="url(#b)"/>
        <path fill="#75787B" d="M27.222 5.435v2.94h4.427V21.32h3.487V8.375h4.427v-2.94zM57.716 18.575c-1.683.041-1.844-.176-1.856-1.184v-5.436h2.71V9.297h-2.71V6.17h-3.25v3.128h-1.94v2.658h1.917v5.625c0 2.846.772 3.74 3.95 3.74.584 0 1.144-.071 2.033-.165v-2.638c-.245.023-.446.047-.854.058M73.133 21.32h3.209V4.458h-3.21zM67.209 18.206c-.793.548-1.657.915-2.659.915-.954 0-1.537-.595-1.537-1.558 0-2.084 2.656-2.108 4.196-2.108v2.75zm3.225.086v-.505-3.984c0-3.35-1.285-4.702-4.72-4.702-2.078 0-3.786.466-5.63 1.396l1.027 2.235c1.31-.721 2.781-1.21 4.3-1.21 1.19 0 1.728.349 1.728 1.444v.555c-2.919-.021-7.335.375-7.335 4.238 0 2.258 1.565 3.561 3.785 3.561 1.438 0 2.761-.482 3.902-1.381.008.071.018.131.03.17.357 1.124 2.299 1.203 3.765 1.124l.12-2.487c-.615-.02-.972-.099-.972-.454z" mask="url(#b)"/>
        <path fill="#FFBF3F" d="M7.376 4.925c.46-.257.46-.677 0-.934L1.4.657C.94.401.563.611.563 1.124v6.668c0 .513.377.723.837.466l5.976-3.333z" mask="url(#b)"/>
        <path fill="#8246AF" d="M7.376 13.478c.46-.257.46-.677 0-.934L1.4 9.211c-.46-.257-.837-.047-.837.466v6.668c0 .513.377.723.837.467l5.976-3.334z" mask="url(#b)"/>
        <path fill="#F04E98" d="M7.376 22.52c.46-.256.46-.677 0-.934L1.4 18.253c-.46-.257-.837-.047-.837.467v6.667c0 .514.377.723.837.467l5.976-3.334z" mask="url(#b)"/>
        <path fill="#59CBE8" d="M8.215 12.19c0 .514.377.724.837.467l5.977-3.334c.46-.256.46-.676 0-.933L9.052 5.056c-.46-.257-.837-.047-.837.467v6.667z" mask="url(#b)"/>
        <path fill="#DBE442" d="M8.215 20.988c0 .514.377.724.837.467l5.977-3.334c.46-.256.46-.677 0-.933l-5.977-3.334c-.46-.257-.837-.047-.837.467v6.667z" mask="url(#b)"/>
        <path fill="#E4002B" d="M16.114 16.345c0 .513.376.723.836.467l5.977-3.334c.46-.257.46-.677 0-.934L16.95 9.211c-.46-.257-.836-.047-.836.466v6.668z" mask="url(#b)"/>
    </g>
</svg>
