<svg xmlns="http://www.w3.org/2000/svg" xmlns:xlink="http://www.w3.org/1999/xlink" width="128" height="73" viewBox="0 0 128 73">
    <defs>
        <path id="a" d="M0 0h128v72.421H0z"/>
        <path id="c" d="M.95 21.992h104.506V.43H.949z"/>
    </defs>
    <g fill="none" fill-rule="evenodd">
        <mask id="b" fill="#fff">
            <use xlink:href="#a"/>
        </mask>
        <g mask="url(#b)">
            <g transform="translate(10.158 25)">
                <path fill="#FFF" d="M102.823 8.983v.6h.393c.244 0 .417-.07.417-.277 0-.263-.15-.333-.439-.333-.13 0-.245 0-.371.01m1.418 1.82h-.508l-.334-.768c-.04-.072-.04-.083-.154-.083h-.394v.852h-.433V8.599c.343-.022.585-.033.827-.033.488 0 .93.144.93.693a.614.614 0 0 1-.38.584c.18.314.434.934.446.96m-2.836-1.118c0 .944.815 1.729 1.82 1.729 1.013 0 1.826-.785 1.826-1.729 0-.955-.813-1.73-1.826-1.73-1.005 0-1.82.775-1.82 1.73m-.405.006c0-1.185.992-2.142 2.228-2.142 1.223 0 2.228.957 2.228 2.142 0 1.168-1.005 2.13-2.228 2.13-1.236 0-2.228-.962-2.228-2.13"/>
                <mask id="d" fill="#fff">
                    <use xlink:href="#c"/>
                </mask>
                <path fill="#FFF" d="M75.684 17.72h2.632V3.684h-2.632zM69.876 17.804c-1.134 0-1.75-.273-2.382-1.193h-.04v4.974h-2.707V7.765h2.286l.173 1.155h.038c.692-1.017 1.537-1.371 2.728-1.371 2.94 0 4.091 2.348 4.091 5.03 0 2.799-1.134 5.225-4.187 5.225m-.629-8.017c-1.13 0-1.867.452-1.867 1.692v2.185c0 1.36.416 2.225 1.83 2.225 1.773 0 2.018-1.652 2.018-3.169 0-1.555-.208-2.933-1.98-2.933M95.403 17.977c-1.275 3.27-1.892 4.015-4.248 4.015-.387 0-.792-.02-1.468-.097v-2.292c.175.019.502.058 1.081.058 1.042 0 1.295-.274 1.642-1.155l.445-1.116-3.804-9.638h2.953l2.24 6.797h.04l2.18-6.797h2.916l-3.977 10.225zM85.81 15.128c-.65.456-1.36.761-2.18.761-.784 0-1.263-.495-1.263-1.296 0-1.735 2.18-1.755 3.443-1.755v2.29zm2.646.072v-.42V11.462c0-2.79-1.054-3.914-3.872-3.914-1.705 0-3.107.387-4.62 1.162l.842 1.86c1.075-.6 2.283-1.007 3.529-1.007.977 0 1.418.29 1.418 1.202v.462c-2.395-.018-6.019.312-6.019 3.528 0 1.88 1.285 2.964 3.106 2.964 1.18 0 2.265-.401 3.201-1.15.007.06.015.11.025.141.292.937 1.886 1.003 3.09.937l.097-2.07c-.504-.017-.797-.083-.797-.378zM36.301 17.72c-3.352 0-4.972-2.058-4.972-5.085 0-2.833 1.445-5.086 4.972-5.086 3.258 0 4.952 1.941 4.952 5.086 0 3.009-1.58 5.085-4.952 5.085m.093-7.933c-1.705 0-2.23 1.022-2.23 2.911 0 1.928.544 2.988 2.248 2.988 1.667 0 2.208-1.041 2.208-2.988 0-1.89-.523-2.911-2.226-2.911" mask="url(#d)"/>
                <path fill="#FFF" d="M22.823 4.497v2.448h3.633V17.72h2.86V6.945h3.633V4.497zM47.844 15.435c-1.381.034-1.513-.147-1.523-.985V9.924h2.223V7.713H46.32V5.108h-2.666v2.604h-1.59v2.213h1.572v4.682c0 2.369.633 3.113 3.24 3.113.48 0 .94-.06 1.668-.137v-2.196c-.2.019-.365.04-.7.048M60.494 17.72h2.633V3.684h-2.633zM55.633 15.128c-.651.456-1.36.761-2.181.761-.784 0-1.262-.495-1.262-1.296 0-1.735 2.18-1.755 3.443-1.755v2.29zm2.646.072v-.42V11.462c0-2.79-1.054-3.914-3.872-3.914-1.706 0-3.107.387-4.62 1.162l.842 1.86c1.075-.6 2.283-1.007 3.529-1.007.977 0 1.418.29 1.418 1.202v.462c-2.395-.018-6.019.312-6.019 3.528 0 1.88 1.284 2.964 3.106 2.964 1.18 0 2.265-.401 3.201-1.15.007.06.015.11.025.141.293.937 1.886 1.003 3.09.937l.097-2.07c-.504-.017-.797-.083-.797-.378zM6.54 4.072c.377-.214.377-.563 0-.777L1.636.52C1.258.306.949.48.949.908v5.55c0 .428.31.603.687.39L6.54 4.071zM6.54 11.192c.377-.214.377-.563 0-.777L1.636 7.64c-.378-.214-.687-.039-.687.388v5.551c0 .427.31.602.687.388l4.904-2.775zM6.54 18.719c.377-.213.377-.563 0-.777l-4.904-2.775c-.378-.214-.687-.039-.687.388v5.55c0 .428.31.603.687.39l4.904-2.776zM7.228 10.12c0 .428.309.603.687.389l4.903-2.775c.378-.214.378-.564 0-.777L7.915 4.182c-.378-.214-.687-.04-.687.388v5.55zM7.228 17.444c0 .427.309.602.687.389l4.903-2.775c.378-.214.378-.564 0-.777l-4.903-2.776c-.378-.214-.687-.039-.687.389v5.55zM13.709 13.579c0 .427.309.602.686.388l4.904-2.775c.378-.214.378-.563 0-.777L14.395 7.64c-.377-.214-.686-.039-.686.388v5.551z" mask="url(#d)"/>
            </g>
        </g>
    </g>
</svg>
