<?xml version="1.0" encoding="utf-8"?>
<!-- Generator: Adobe Illustrator 24.2.1, SVG Export Plug-In . SVG Version: 6.00 Build 0)  -->
<svg version="1.1" id="Layer_1" xmlns="http://www.w3.org/2000/svg" xmlns:xlink="http://www.w3.org/1999/xlink" x="0px" y="0px"
	 viewBox="0 0 180 101" style="enable-background:new 0 0 180 101;" xml:space="preserve">
<style type="text/css">
	.st0{fill-rule:evenodd;clip-rule:evenodd;fill:#75787B;}
	.st1{filter:url(#Adobe_OpacityMaskFilter);}
	.st2{fill-rule:evenodd;clip-rule:evenodd;fill:#FFFFFF;}
	.st3{mask:url(#b_3_);fill-rule:evenodd;clip-rule:evenodd;fill:#FFBF3F;}
	.st4{filter:url(#Adobe_OpacityMaskFilter_1_);}
	.st5{mask:url(#b_4_);fill-rule:evenodd;clip-rule:evenodd;fill:#8246AF;}
	.st6{filter:url(#Adobe_OpacityMaskFilter_2_);}
	.st7{mask:url(#b_5_);fill-rule:evenodd;clip-rule:evenodd;fill:#F04E98;}
	.st8{filter:url(#Adobe_OpacityMaskFilter_3_);}
	.st9{mask:url(#b_6_);fill-rule:evenodd;clip-rule:evenodd;fill:#59CBE8;}
	.st10{filter:url(#Adobe_OpacityMaskFilter_4_);}
	.st11{mask:url(#b_7_);fill-rule:evenodd;clip-rule:evenodd;fill:#DBE442;}
	.st12{filter:url(#Adobe_OpacityMaskFilter_5_);}
	.st13{mask:url(#b_8_);fill-rule:evenodd;clip-rule:evenodd;fill:#E4002B;}
</style>
<path class="st0" d="M160.1,47.4v0.8h0.6c0.3,0,0.6-0.1,0.6-0.4c0-0.4-0.2-0.5-0.6-0.5C160.4,47.4,160.2,47.4,160.1,47.4
	 M162.1,49.9h-0.7l-0.5-1.1c-0.1-0.1-0.1-0.1-0.2-0.1h-0.6v1.2h-0.6v-3.1c0.4,0,0.8,0,1.2,0c0.7,0,1.3,0.2,1.3,1
	c0,0.4-0.2,0.7-0.5,0.8C161.7,49,162,49.9,162.1,49.9 M158.1,48.4c0,1.3,1.1,2.4,2.6,2.4c1.4,0,2.6-1.1,2.6-2.4
	c0-1.3-1.1-2.4-2.6-2.4C159.2,46,158.1,47,158.1,48.4 M157.5,48.4c0-1.7,1.4-3,3.1-3c1.7,0,3.1,1.3,3.1,3c0,1.6-1.4,3-3.1,3
	C158.9,51.4,157.5,50,157.5,48.4"/>
<g>
	<path class="st0" d="M149.6,59.9c-1.8,4.6-2.7,5.6-6,5.6c-0.5,0-1.1,0-2.1-0.1v-3.2c0.2,0,0.7,0.1,1.5,0.1c1.5,0,1.8-0.4,2.3-1.6
		l0.6-1.6l-5.3-13.4h4.2l3.2,9.5h0.1l3.1-9.5h4.1L149.6,59.9z"/>
	<path class="st0" d="M139.9,56.1L139.9,56.1l0-0.6l0,0v-4.6c0-3.9-1.5-5.5-5.4-5.5c-2.4,0-4.4,0.5-6.5,1.6l1.2,2.6
		c1.5-0.8,3.2-1.4,5-1.4c1.4,0,2,0.4,2,1.7v0.6c-3.4,0-8.5,0.4-8.5,4.9c0,2.6,1.8,4.1,4.4,4.1c1.7,0,3.2-0.6,4.5-1.6
		c0,0.1,0,0.2,0,0.2c0.4,1.3,2.7,1.4,4.3,1.3l0.1-2.9C140.3,56.6,139.9,56.5,139.9,56.1z M133.1,57c-1.1,0-1.8-0.7-1.8-1.8
		c0-2.4,3.1-2.4,4.8-2.4V56h0C135.2,56.6,134.2,57,133.1,57z"/>
	<rect x="121.9" y="40" class="st0" width="3.7" height="19.6"/>
	<path class="st0" d="M113.9,45.4c-1.7,0-2.9,0.5-3.8,1.9H110l-0.2-1.6h-3.2V65h3.8V58h0.1c0.9,1.3,1.8,1.7,3.3,1.7h0
		c4.3,0,5.9-3.4,5.9-7.3C119.6,48.7,118,45.4,113.9,45.4z M112.8,57c-2,0-2.6-1.2-2.6-3.1v-3c0-1.7,1-2.4,2.6-2.4
		c2.5,0,2.8,1.9,2.8,4.1C115.6,54.7,115.3,57,112.8,57z"/>
	<rect x="100.5" y="40" class="st0" width="3.7" height="19.6"/>
	<path class="st0" d="M97.4,56.1v-0.6v-4.6c0-3.9-1.5-5.5-5.4-5.5c-2.4,0-4.4,0.5-6.5,1.6l1.2,2.6c1.5-0.8,3.2-1.4,5-1.4
		c1.4,0,2,0.4,2,1.7v0.6c-3.4,0-8.5,0.4-8.5,4.9c0,2.6,1.8,4.1,4.4,4.1c1.7,0,3.2-0.6,4.5-1.6c0,0.1,0,0.2,0,0.2
		c0.4,1.3,2.7,1.4,4.3,1.3l0.1-2.9C97.8,56.6,97.4,56.5,97.4,56.1z M93.7,56c-0.9,0.6-1.9,1.1-3.1,1.1c-1.1,0-1.8-0.7-1.8-1.8
		c0-2.4,3.1-2.4,4.8-2.4V56z"/>
	<path class="st0" d="M82.8,56.4c-1.9,0-2.1-0.2-2.1-1.4l0-0.2v-6.1h3.1v-3.1h-3.1V42h-3.8v3.6h-2.2v3.1h2.2v6.5
		c0,3.3,0.9,4.3,4.6,4.3c0.7,0,1.3-0.1,2.3-0.2v-3.1C83.5,56.4,83.2,56.4,82.8,56.4"/>
	<path class="st0" d="M66.5,45.4c-5,0-7,3.1-7,7.1c0,4.2,2.3,7.1,7,7.1c4.7,0,7-2.9,7-7.1C73.5,48.1,71.1,45.4,66.5,45.4z
		 M66.7,56.7c-2.4,0-3.2-1.5-3.2-4.2c0-2.6,0.7-4.1,3.1-4.1h0c2.4,0,3.1,1.4,3.1,4.1C69.8,55.3,69,56.7,66.7,56.7z"/>
	<polygon class="st0" points="47.6,41.1 47.6,44.5 52.7,44.5 52.7,59.6 56.7,59.6 56.7,44.5 61.8,44.5 61.8,41.1 	"/>
</g>
<g>
	<defs>
		<filter id="Adobe_OpacityMaskFilter" filterUnits="userSpaceOnUse" x="16.8" y="35.5" width="8.3" height="9.1">
			<feColorMatrix  type="matrix" values="1 0 0 0 0  0 1 0 0 0  0 0 1 0 0  0 0 0 1 0"/>
		</filter>
	</defs>
	<mask maskUnits="userSpaceOnUse" x="16.8" y="35.5" width="8.3" height="9.1" id="b_3_">
		<g class="st1">
			<path id="a_3_" class="st2" d="M16.8,65.5h147V35.5h-147V65.5z"/>
		</g>
	</mask>
	<path class="st3" d="M24.7,40.5c0.5-0.3,0.5-0.8,0-1.1l-6.9-3.9c-0.5-0.3-1-0.1-1,0.5v7.7c0,0.6,0.4,0.8,1,0.5L24.7,40.5L24.7,40.5
		z"/>
	<defs>
		<filter id="Adobe_OpacityMaskFilter_1_" filterUnits="userSpaceOnUse" x="16.8" y="45.4" width="8.3" height="9.1">
			<feColorMatrix  type="matrix" values="1 0 0 0 0  0 1 0 0 0  0 0 1 0 0  0 0 0 1 0"/>
		</filter>
	</defs>
	<mask maskUnits="userSpaceOnUse" x="16.8" y="45.4" width="8.3" height="9.1" id="b_4_">
		<g class="st4">
			<path id="a_4_" class="st2" d="M16.8,65.5h147V35.5h-147V65.5z"/>
		</g>
	</mask>
	<path class="st5" d="M24.7,50.5c0.5-0.3,0.5-0.8,0-1.1l-6.9-3.9c-0.5-0.3-1-0.1-1,0.5v7.7c0,0.6,0.4,0.8,1,0.5L24.7,50.5L24.7,50.5
		z"/>
	<defs>
		<filter id="Adobe_OpacityMaskFilter_2_" filterUnits="userSpaceOnUse" x="16.8" y="55.9" width="8.3" height="9.1">
			<feColorMatrix  type="matrix" values="1 0 0 0 0  0 1 0 0 0  0 0 1 0 0  0 0 0 1 0"/>
		</filter>
	</defs>
	<mask maskUnits="userSpaceOnUse" x="16.8" y="55.9" width="8.3" height="9.1" id="b_5_">
		<g class="st6">
			<path id="a_5_" class="st2" d="M16.8,65.5h147V35.5h-147V65.5z"/>
		</g>
	</mask>
	<path class="st7" d="M24.7,61c0.5-0.3,0.5-0.8,0-1.1L17.8,56c-0.5-0.3-1-0.1-1,0.5v7.7c0,0.6,0.4,0.8,1,0.5L24.7,61z"/>
	<defs>
		<filter id="Adobe_OpacityMaskFilter_3_" filterUnits="userSpaceOnUse" x="25.6" y="40.6" width="8.3" height="9.1">
			<feColorMatrix  type="matrix" values="1 0 0 0 0  0 1 0 0 0  0 0 1 0 0  0 0 0 1 0"/>
		</filter>
	</defs>
	<mask maskUnits="userSpaceOnUse" x="25.6" y="40.6" width="8.3" height="9.1" id="b_6_">
		<g class="st8">
			<path id="a_6_" class="st2" d="M16.8,65.5h147V35.5h-147V65.5z"/>
		</g>
	</mask>
	<path class="st9" d="M25.6,49c0,0.6,0.4,0.8,1,0.5l6.9-3.9c0.5-0.3,0.5-0.8,0-1.1l-6.9-3.9c-0.5-0.3-1-0.1-1,0.5L25.6,49L25.6,49z"
		/>
	<defs>
		<filter id="Adobe_OpacityMaskFilter_4_" filterUnits="userSpaceOnUse" x="25.6" y="50.8" width="8.3" height="9.1">
			<feColorMatrix  type="matrix" values="1 0 0 0 0  0 1 0 0 0  0 0 1 0 0  0 0 0 1 0"/>
		</filter>
	</defs>
	<mask maskUnits="userSpaceOnUse" x="25.6" y="50.8" width="8.3" height="9.1" id="b_7_">
		<g class="st10">
			<path id="a_7_" class="st2" d="M16.8,65.5h147V35.5h-147V65.5z"/>
		</g>
	</mask>
	<path class="st11" d="M25.6,59.2c0,0.6,0.4,0.8,1,0.5l6.9-3.9c0.5-0.3,0.5-0.8,0-1.1l-6.9-3.9c-0.5-0.3-1-0.1-1,0.5
		C25.6,51.5,25.6,59.2,25.6,59.2z"/>
	<defs>
		<filter id="Adobe_OpacityMaskFilter_5_" filterUnits="userSpaceOnUse" x="34.7" y="45.4" width="8.3" height="9.1">
			<feColorMatrix  type="matrix" values="1 0 0 0 0  0 1 0 0 0  0 0 1 0 0  0 0 0 1 0"/>
		</filter>
	</defs>
	<mask maskUnits="userSpaceOnUse" x="34.7" y="45.4" width="8.3" height="9.1" id="b_8_">
		<g class="st12">
			<path id="a_8_" class="st2" d="M16.8,65.5h147V35.5h-147V65.5z"/>
		</g>
	</mask>
	<path class="st13" d="M34.7,53.8c0,0.6,0.4,0.8,1,0.5l6.9-3.9c0.5-0.3,0.5-0.8,0-1.1l-6.9-3.9c-0.5-0.3-1-0.1-1,0.5
		C34.7,46.1,34.7,53.8,34.7,53.8z"/>
</g>
</svg>
