<?xml version="1.0" encoding="utf-8"?>
<!-- Generator: Adobe Illustrator 24.2.3, SVG Export Plug-In . SVG Version: 6.00 Build 0)  -->
<svg version="1.1" id="Layer_1" xmlns="http://www.w3.org/2000/svg" xmlns:xlink="http://www.w3.org/1999/xlink" x="0px" y="0px"
	 viewBox="0 0 146.9 30.1" style="enable-background:new 0 0 146.9 30.1;" xml:space="preserve">
<style type="text/css">
	.st0{fill-rule:evenodd;clip-rule:evenodd;fill:#FFFFFF;}
	.st1{fill-rule:evenodd;clip-rule:evenodd;fill:#FFBF3F;}
	.st2{fill-rule:evenodd;clip-rule:evenodd;fill:#8246AF;}
	.st3{fill-rule:evenodd;clip-rule:evenodd;fill:#F04E98;}
	.st4{fill-rule:evenodd;clip-rule:evenodd;fill:#59CBE8;}
	.st5{fill-rule:evenodd;clip-rule:evenodd;fill:#DBE442;}
	.st6{fill-rule:evenodd;clip-rule:evenodd;fill:#E4002B;}
</style>
<path class="st0" d="M143.3,12v0.8h0.6c0.3,0,0.6-0.1,0.6-0.4c0-0.4-0.2-0.5-0.6-0.5C143.6,12,143.4,12,143.3,12 M145.3,14.5h-0.7
	l-0.5-1.1c-0.1-0.1-0.1-0.1-0.2-0.1h-0.6v1.2h-0.6v-3.1c0.4,0,0.8,0,1.2,0c0.7,0,1.3,0.2,1.3,1c0,0.4-0.2,0.7-0.5,0.8
	C144.9,13.6,145.2,14.5,145.3,14.5 M141.3,13c0,1.3,1.1,2.4,2.6,2.4c1.4,0,2.6-1.1,2.6-2.4s-1.1-2.4-2.6-2.4
	C142.4,10.6,141.3,11.6,141.3,13 M140.7,13c0-1.7,1.4-3,3.1-3c1.7,0,3.1,1.3,3.1,3c0,1.6-1.4,3-3.1,3S140.7,14.6,140.7,13"/>
<g>
	<path class="st0" d="M132.8,24.5c-1.8,4.6-2.7,5.6-6,5.6c-0.5,0-1.1,0-2.1-0.1v-3.2c0.2,0,0.7,0.1,1.5,0.1c1.5,0,1.8-0.4,2.3-1.6
		l0.6-1.6l-5.3-13.4h4.2l3.2,9.5h0.1l3.1-9.5h4.1L132.8,24.5z"/>
	<path class="st0" d="M123.1,20.7L123.1,20.7v-0.6l0,0v-4.6c0-3.9-1.5-5.5-5.4-5.5c-2.4,0-4.4,0.5-6.5,1.6l1.2,2.6
		c1.5-0.8,3.2-1.4,5-1.4c1.4,0,2,0.4,2,1.7v0.6c-3.4,0-8.5,0.4-8.5,4.9c0,2.6,1.8,4.1,4.4,4.1c1.7,0,3.2-0.6,4.5-1.6
		c0,0.1,0,0.2,0,0.2c0.4,1.3,2.7,1.4,4.3,1.3l0.1-2.9C123.5,21.2,123.1,21.1,123.1,20.7z M116.3,21.6c-1.1,0-1.8-0.7-1.8-1.8
		c0-2.4,3.1-2.4,4.8-2.4v3.2l0,0C118.4,21.2,117.4,21.6,116.3,21.6z"/>
	<rect x="105.1" y="4.6" class="st0" width="3.7" height="19.6"/>
	<path class="st0" d="M97.1,10c-1.7,0-2.9,0.5-3.8,1.9h-0.1L93,10.3h-3.2v19.3h3.8v-7h0.1c0.9,1.3,1.8,1.7,3.3,1.7l0,0
		c4.3,0,5.9-3.4,5.9-7.3C102.8,13.3,101.2,10,97.1,10z M96,21.6c-2,0-2.6-1.2-2.6-3.1v-3c0-1.7,1-2.4,2.6-2.4c2.5,0,2.8,1.9,2.8,4.1
		C98.8,19.3,98.5,21.6,96,21.6z"/>
	<rect x="83.7" y="4.6" class="st0" width="3.7" height="19.6"/>
	<path class="st0" d="M80.6,20.7v-0.6v-4.6c0-3.9-1.5-5.5-5.4-5.5c-2.4,0-4.4,0.5-6.5,1.6l1.2,2.6c1.5-0.8,3.2-1.4,5-1.4
		c1.4,0,2,0.4,2,1.7v0.6c-3.4,0-8.5,0.4-8.5,4.9c0,2.6,1.8,4.1,4.4,4.1c1.7,0,3.2-0.6,4.5-1.6c0,0.1,0,0.2,0,0.2
		c0.4,1.3,2.7,1.4,4.3,1.3l0.1-2.9C81,21.2,80.6,21.1,80.6,20.7z M76.9,20.6c-0.9,0.6-1.9,1.1-3.1,1.1c-1.1,0-1.8-0.7-1.8-1.8
		c0-2.4,3.1-2.4,4.8-2.4L76.9,20.6L76.9,20.6z"/>
	<path class="st0" d="M66,21c-1.9,0-2.1-0.2-2.1-1.4v-0.2v-6.1H67v-3.1h-3.1V6.6h-3.8v3.6h-2.2v3.1h2.2v6.5c0,3.3,0.9,4.3,4.6,4.3
		c0.7,0,1.3-0.1,2.3-0.2v-3.1C66.7,21,66.4,21,66,21"/>
	<path class="st0" d="M49.7,10c-5,0-7,3.1-7,7.1c0,4.2,2.3,7.1,7,7.1s7-2.9,7-7.1C56.7,12.7,54.3,10,49.7,10z M49.9,21.3
		c-2.4,0-3.2-1.5-3.2-4.2c0-2.6,0.7-4.1,3.1-4.1l0,0c2.4,0,3.1,1.4,3.1,4.1C53,19.9,52.2,21.3,49.9,21.3z"/>
	<polygon class="st0" points="30.8,5.7 30.8,9.1 35.9,9.1 35.9,24.2 39.9,24.2 39.9,9.1 45,9.1 45,5.7 	"/>
</g>
<g>
	<path class="st1" d="M7.9,5.1c0.5-0.3,0.5-0.8,0-1.1L1,0.1C0.5-0.2,0,0,0,0.6v7.7c0,0.6,0.4,0.8,1,0.5L7.9,5.1L7.9,5.1z"/>
	<path class="st2" d="M7.9,15.1c0.5-0.3,0.5-0.8,0-1.1L1,10.1C0.5,9.8,0,10,0,10.6v7.7c0,0.6,0.4,0.8,1,0.5L7.9,15.1L7.9,15.1z"/>
	<path class="st3" d="M7.9,25.6c0.5-0.3,0.5-0.8,0-1.1L1,20.6c-0.5-0.3-1-0.1-1,0.5v7.7c0,0.6,0.4,0.8,1,0.5L7.9,25.6z"/>
	<path class="st4" d="M8.8,13.6c0,0.6,0.4,0.8,1,0.5l6.9-3.9c0.5-0.3,0.5-0.8,0-1.1L9.8,5.2c-0.5-0.3-1-0.1-1,0.5V13.6L8.8,13.6z"/>
	<path class="st5" d="M8.8,23.8c0,0.6,0.4,0.8,1,0.5l6.9-3.9c0.5-0.3,0.5-0.8,0-1.1l-6.9-3.9c-0.5-0.3-1-0.1-1,0.5
		C8.8,16.1,8.8,23.8,8.8,23.8z"/>
	<path class="st6" d="M17.9,18.4c0,0.6,0.4,0.8,1,0.5l6.9-3.9c0.5-0.3,0.5-0.8,0-1.1L18.9,10c-0.5-0.3-1-0.1-1,0.5
		C17.9,10.7,17.9,18.4,17.9,18.4z"/>
</g>
</svg>
