<svg xmlns="http://www.w3.org/2000/svg" width="32" height="32" viewBox="0 0 32 32">
    <g fill="none" fill-rule="evenodd" opacity=".6">
        <path d="M0 0h32v32H0z"/>
        <path fill="#3B4559" d="M5 4h22a1 1 0 0 1 1 1v22a1 1 0 0 1-1 1H5a1 1 0 0 1-1-1V5a1 1 0 0 1 1-1z"/>
        <path fill="#FAFAFA" fill-rule="nonzero" d="M12.475 24c7.17 0 11.092-5.964 11.092-11.136 0-.169 0-.338-.012-.505a7.949 7.949 0 0 0 1.945-2.026 7.757 7.757 0 0 1-2.239.616 3.925 3.925 0 0 0 1.714-2.165 7.793 7.793 0 0 1-2.475.95 3.89 3.89 0 0 0-4.684-.77 3.923 3.923 0 0 0-1.96 4.34 11.052 11.052 0 0 1-8.034-4.09A3.926 3.926 0 0 0 9.03 14.44a3.857 3.857 0 0 1-1.769-.49v.05a3.911 3.911 0 0 0 3.127 3.836 3.877 3.877 0 0 1-1.76.067 3.905 3.905 0 0 0 3.642 2.718A7.802 7.802 0 0 1 6.5 22.242a11.004 11.004 0 0 0 5.975 1.755"/>
    </g>
</svg>
