<svg xmlns="http://www.w3.org/2000/svg" xmlns:xlink="http://www.w3.org/1999/xlink" width="32" height="32" viewBox="0 0 32 32">
    <defs>
        <path id="a" d="M0 0h20v20H0z"/>
    </defs>
    <g fill="none" fill-rule="evenodd" opacity=".6">
        <path d="M0 0h32v32H0z"/>
        <g transform="translate(6 6)">
            <mask id="b" fill="#fff">
                <use xlink:href="#a"/>
            </mask>
            <path fill="#FAFAFA" d="M14.493 11.407c-.246-.12-1.456-.696-1.682-.776-.225-.08-.39-.12-.553.12-.164.238-.636.776-.78.935-.143.159-.286.179-.532.06-.246-.12-1.04-.372-1.979-1.184-.731-.633-1.225-1.414-1.369-1.653-.143-.238-.015-.368.108-.486.111-.107.246-.28.37-.418.122-.14.163-.24.245-.398.082-.16.041-.299-.02-.418-.062-.12-.554-1.294-.759-1.771-.2-.465-.402-.402-.553-.41A10.178 10.178 0 0 0 6.517 5c-.164 0-.43.06-.656.298-.225.24-.861.816-.861 1.99s.882 2.308 1.005 2.468c.123.159 1.735 2.568 4.203 3.601.587.246 1.045.393 1.402.503.59.181 1.126.156 1.55.094.473-.068 1.456-.577 1.66-1.134.206-.557.206-1.035.144-1.134-.061-.1-.225-.16-.471-.279M10.5 18h-.003a8.896 8.896 0 0 1-4.327-1.115l-.31-.173-3.217.794.859-2.951-.202-.303A7.634 7.634 0 0 1 2 9.996C2.002 5.587 5.815 2 10.503 2c2.27 0 4.405.834 6.01 2.345C18.118 5.857 19 7.866 19 10.003 18.998 14.413 15.185 18 10.5 18m6.586-15.094A9.917 9.917 0 0 0 10.042 0C4.552 0 .086 4.446.083 9.91c0 1.747.458 3.451 1.33 4.954L0 20l5.279-1.378a9.987 9.987 0 0 0 4.759 1.206h.004c5.488 0 9.956-4.446 9.958-9.91a9.827 9.827 0 0 0-2.914-7.012" mask="url(#b)"/>
        </g>
    </g>
</svg>
