<?xml version="1.0" encoding="utf-8"?>
<!-- Generator: Adobe Illustrator 24.2.3, SVG Export Plug-In . SVG Version: 6.00 Build 0)  -->
<svg version="1.1" id="Layer_1" xmlns="http://www.w3.org/2000/svg" xmlns:xlink="http://www.w3.org/1999/xlink" x="0px" y="0px"
	 viewBox="0 0 500 512" style="enable-background:new 0 0 500 512;" xml:space="preserve">
<image style="overflow:visible;enable-background:new    ;" width="170" height="184" id="triangleThird" xlink:href="triangulo1.png"  transform="matrix(0.4118 0 0 0.4118 61.8913 333)">
</image>
<image style="overflow:visible;" width="578" height="974" xlink:href="appAnimacion.png"  transform="matrix(0.5123 0 0 0.5123 101.8255 -11.9435)">
</image>
<g>
	
		<image style="overflow:visible;" width="188" height="196" id="tvIcon" xlink:href="item1.png"  transform="matrix(0.5097 0 0 0.5097 70.1985 78.28)">
	</image>
	
		<image style="overflow:visible;" width="188" height="196" id="phoneIcon" xlink:href="item2.png"  transform="matrix(0.5097 0 0 0.5097 158.3503 78.4482)">
	</image>
	
		<image style="overflow:visible;" width="188" height="196" id="controlIcon" xlink:href="item3.png"  transform="matrix(0.5097 0 0 0.5097 246.0695 78.28)">
	</image>
	
		<image style="overflow:visible;" width="188" height="198" id="homeIcon" xlink:href="item4.png"  transform="matrix(0.5186 0 0 0.5046 332.3132 79.5587)">
	</image>
	
		<image style="overflow:visible;" width="412" height="152" id="navBar" xlink:href="navBar.png"  transform="matrix(0.5102 0 0 0.5102 144.6072 407.0403)">
	</image>
</g>
<image style="overflow:visible;enable-background:new    ;" width="210" height="228" id="triangleSecond" xlink:href="triangulo2.png"  transform="matrix(0.381 0 0 0.381 24.8913 343)">
</image>
<image style="overflow:visible;enable-background:new    ;" width="172" height="184" id="triangleFirst" xlink:href="triangulo3.png"  transform="matrix(0.5652 0 0 0.5652 347.8913 219)">
</image>
</svg>
