<svg xmlns="http://www.w3.org/2000/svg" width="219" height="24" viewBox="0 0 219 24">
    <g fill="#3B4559" fill-rule="evenodd">
        <path d="M170.243 7.437v12.698h-1.452V7.437h-4.84V6.352h11.131v1.085h-4.84zm16.916 12.698V6.352h1.452v12.675h6.412v1.108h-7.864zm-7.906-12.693l-3.145 7.64h6.267l-3.122-7.64zm5.274 12.693l-1.572-3.863h-7.138l-1.573 3.863h-1.452l5.856-13.783h1.572l5.88 13.783h-1.573zM145.93 7.437v12.698h-1.451V7.437h-4.84V6.352h11.131v1.085h-4.84zm11.023.005c-3.46 0-5.71 2.453-5.71 5.926 0 3.473 2.25 5.925 5.686 5.925 3.46 0 5.71-2.452 5.71-5.925s-2.25-5.926-5.686-5.926m-.158 13.083c-4.355 0-7.21-3.017-7.21-7.076 0-4.08 2.831-7.097 7.186-7.097 4.356 0 7.21 3.017 7.21 7.076 0 4.08-2.83 7.097-7.186 7.097M45.084 9.689v10.597h-4.13V9.689H37.45v-3.22h11.137v3.22h-3.503zm3.98 10.597V6.469h9.711v3.22h-5.58v1.915h5.17v3.264h-5.17v2.11h5.775v3.308h-9.906zm10.923 0V6.469h4.13v10.488h5.17v3.329h-9.3zm15.55-14.992H72.77L74.304 2.4h3.591l-2.357 2.894zM69.98 20.286V6.469h9.711v3.22h-5.58v1.915h5.169v3.264H74.11v2.11h5.774v3.308H69.98zM85.033 9.689v2.437h4.865v3.285h-4.865v4.875h-4.131V6.469h9.408v3.22h-5.277zm12.371-.043c-1.946 0-2.79 1.61-2.79 3.677s.844 3.699 2.79 3.699c1.947 0 2.79-1.632 2.79-3.7 0-2.066-.843-3.676-2.79-3.676m0 10.857c-4.325 0-7.006-2.72-7.006-7.136 0-4.418 2.681-7.116 7.006-7.116 4.326 0 7.008 2.698 7.008 7.116 0 4.416-2.682 7.136-7.008 7.136zm16.157-.217l-4.346-7.833v7.833H105.3V6.469h4.239l4.13 7.376V6.469h3.915v13.817h-4.023zm11.918-10.64c-1.946 0-2.79 1.61-2.79 3.677s.844 3.699 2.79 3.699c1.947 0 2.79-1.632 2.79-3.7 0-2.066-.843-3.676-2.79-3.676m0 10.857c-4.325 0-7.007-2.72-7.007-7.136 0-4.418 2.682-7.116 7.007-7.116 4.326 0 7.007 2.698 7.007 7.116 0 4.416-2.681 7.136-7.007 7.136M24.61 18.015l8.841-4.717L24.61 8.58z"/>
    </g>
</svg>
