<svg xmlns="http://www.w3.org/2000/svg" xmlns:xlink="http://www.w3.org/1999/xlink" width="24" height="24" viewBox="0 0 24 24">
    <defs>
        <path id="a" d="M21 6h-7.59l3.29-3.29L16 2l-4 4-4-4-.71.71L10.59 6H3a2 2 0 0 0-2 2v12c0 1.1.9 2 2 2h18c1.1 0 2-.9 2-2V8a2 2 0 0 0-2-2zm0 14H3V8h18v12zM9 10v8l7-4-7-4z"/>
    </defs>
    <g fill="none" fill-rule="evenodd">
        <mask id="b" fill="#fff">
            <use xlink:href="#a"/>
        </mask>
        <use fill="#FFF" fill-rule="nonzero" xlink:href="#a"/>
        <g fill="#3B4559" mask="url(#b)">
            <path d="M0 0h24v24H0z"/>
        </g>
    </g>
</svg>
