<svg xmlns="http://www.w3.org/2000/svg" xmlns:xlink="http://www.w3.org/1999/xlink" width="127" height="71" viewBox="0 0 127 71">
    <defs>
        <path id="a" d="M11.83 46.375h103.458v-21.28H11.83z"/>
    </defs>
    <g fill="none" fill-rule="evenodd">
        <path fill="#75787B" d="M112.681 33.537v.592h.39c.24 0 .412-.069.412-.273 0-.26-.148-.33-.434-.33-.128 0-.243 0-.368.011m1.404 1.797h-.503l-.33-.759c-.04-.071-.04-.082-.152-.082h-.39v.84h-.43v-2.175c.34-.022.58-.033.82-.033.482 0 .92.142.92.684 0 .262-.137.47-.377.576.18.31.43.922.442.949m-2.807-1.104c0 .931.807 1.706 1.801 1.706 1.003 0 1.808-.775 1.808-1.706 0-.943-.805-1.707-1.808-1.707-.994 0-1.801.764-1.801 1.707m-.401.005c0-1.169.982-2.113 2.205-2.113 1.211 0 2.206.944 2.206 2.113 0 1.153-.995 2.102-2.206 2.102-1.223 0-2.205-.949-2.205-2.102"/>
        <mask id="b" fill="#fff">
            <use xlink:href="#a"/>
        </mask>
        <path fill="#DBE442" d="M85.814 42.16h2.607V28.307h-2.607z" mask="url(#b)"/>
        <path fill="#59CBE8" d="M80.065 42.242c-1.122 0-1.732-.27-2.359-1.178h-.038v4.91h-2.68v-13.64h2.262l.172 1.14h.037c.685-1.003 1.522-1.352 2.7-1.352 2.911 0 4.051 2.317 4.051 4.964 0 2.762-1.123 5.156-4.145 5.156m-.622-7.912c-1.12 0-1.85.447-1.85 1.67v2.156c0 1.343.413 2.197 1.812 2.197 1.755 0 1.998-1.631 1.998-3.128 0-1.535-.206-2.895-1.96-2.895" mask="url(#b)"/>
        <path fill="#E4002B" d="M105.336 42.413c-1.262 3.228-1.873 3.962-4.205 3.962-.383 0-.784-.019-1.454-.096v-2.261c.174.018.497.057 1.07.057 1.032 0 1.282-.27 1.626-1.14l.44-1.102-3.766-9.51h2.924l2.218 6.706h.039l2.159-6.707h2.886l-3.937 10.09z" mask="url(#b)"/>
        <path fill="#FFBF3F" d="M95.84 39.6c-.645.452-1.346.753-2.16.753-.775 0-1.25-.489-1.25-1.28 0-1.712 2.158-1.732 3.41-1.732v2.26zm2.619.072v-.415V35.984c0-2.752-1.044-3.862-3.834-3.862-1.688 0-3.075.382-4.574 1.146l.834 1.837c1.065-.593 2.26-.994 3.494-.994.967 0 1.404.286 1.404 1.185v.457c-2.372-.018-5.959.307-5.959 3.481 0 1.855 1.272 2.926 3.075 2.926 1.168 0 2.242-.397 3.169-1.135a.88.88 0 0 0 .024.139c.29.924 1.868.989 3.06.924l.096-2.043c-.5-.017-.79-.082-.79-.373z" mask="url(#b)"/>
        <path fill="#75787B" d="M46.827 42.16c-3.32 0-4.922-2.032-4.922-5.019 0-2.796 1.43-5.02 4.922-5.02 3.225 0 4.902 1.917 4.902 5.02 0 2.969-1.564 5.019-4.902 5.019m.091-7.83c-1.687 0-2.206 1.009-2.206 2.874 0 1.902.537 2.948 2.225 2.948 1.65 0 2.186-1.027 2.186-2.948 0-1.865-.518-2.874-2.205-2.874" mask="url(#b)"/>
        <path fill="#75787B" d="M33.484 29.11v2.415h3.596V42.16h2.832V31.525h3.597V29.11zM58.254 39.904c-1.367.034-1.498-.144-1.508-.972v-4.466h2.201v-2.183h-2.202v-2.57h-2.639v2.57h-1.575v2.183h1.557v4.62c0 2.339.627 3.074 3.208 3.074.474 0 .93-.06 1.651-.136v-2.167c-.198.019-.362.039-.693.047M70.777 42.16h2.606V28.307h-2.606zM65.965 39.6c-.645.452-1.346.753-2.16.753-.775 0-1.249-.489-1.249-1.28 0-1.712 2.158-1.732 3.409-1.732v2.26zm2.62.072v-.415V35.984c0-2.752-1.044-3.862-3.834-3.862-1.688 0-3.076.382-4.574 1.146l.834 1.837c1.065-.593 2.26-.994 3.493-.994.967 0 1.404.286 1.404 1.185v.457c-2.371-.018-5.958.307-5.958 3.481 0 1.855 1.271 2.926 3.075 2.926 1.168 0 2.242-.397 3.169-1.135a.841.841 0 0 0 .024.139c.29.924 1.867.989 3.059.924l.096-2.043c-.499-.017-.788-.082-.788-.373z" mask="url(#b)"/>
        <path fill="#FFBF3F" d="M17.364 28.69c.374-.21.374-.555 0-.766l-4.855-2.74c-.374-.21-.68-.037-.68.384v5.478c0 .421.306.594.68.383l4.855-2.739z" mask="url(#b)"/>
        <path fill="#8246AF" d="M17.364 35.717c.374-.21.374-.556 0-.767l-4.855-2.739c-.374-.21-.68-.038-.68.384v5.478c0 .421.306.594.68.383l4.855-2.739z" mask="url(#b)"/>
        <path fill="#F04E98" d="M17.364 43.145c.374-.21.374-.556 0-.767l-4.855-2.738c-.374-.211-.68-.039-.68.383v5.478c0 .421.306.594.68.383l4.855-2.739z" mask="url(#b)"/>
        <path fill="#59CBE8" d="M18.045 34.66c0 .421.306.594.68.383l4.854-2.739c.374-.21.374-.556 0-.767L18.725 28.8c-.374-.211-.68-.039-.68.383v5.477z" mask="url(#b)"/>
        <path fill="#DBE442" d="M18.045 41.887c0 .421.306.594.68.383l4.854-2.738c.374-.211.374-.556 0-.767l-4.854-2.739c-.374-.21-.68-.038-.68.383v5.478z" mask="url(#b)"/>
        <path fill="#E4002B" d="M24.461 38.073c0 .421.306.594.68.383l4.854-2.739c.374-.21.374-.556 0-.767l-4.854-2.739c-.374-.21-.68-.038-.68.384v5.478z" mask="url(#b)"/>
    </g>
</svg>
