<svg xmlns="http://www.w3.org/2000/svg" width="24" height="24" viewBox="0 0 24 24">
    <g fill="none" fill-rule="evenodd">
        <path d="M0 0h24v24H0z"/>
        <path fill="#3B4559" fill-rule="nonzero" d="M16.55 13c.75 0 1.41-.41 1.75-1.03l3.58-6.49A.996.996 0 0 0 21.01 4H6.21l-.94-2H2v2h2l3.6 7.59-1.35 2.44C5.52 15.37 6.48 17 8 17h12v-2H8l1.1-2h7.45zM7.16 6h12.15l-2.76 5H9.53L7.16 6zM8 18c-1.1 0-1.99.9-1.99 2S6.9 22 8 22s2-.9 2-2-.9-2-2-2zm10 0c-1.1 0-1.99.9-1.99 2s.89 2 1.99 2 2-.9 2-2-.9-2-2-2z"/>
    </g>
</svg>
