<svg xmlns="http://www.w3.org/2000/svg" xmlns:xlink="http://www.w3.org/1999/xlink" width="632" height="356" viewBox="0 0 632 356">
    <defs>
        <path id="a" d="M59 231h516V125H59z"/>
    </defs>
    <g fill="none" fill-rule="evenodd">
        <path fill="#75787B" d="M562 167.052V170h1.944c1.201 0 2.056-.344 2.056-1.362 0-1.294-.737-1.638-2.166-1.638-.639 0-1.21 0-1.834.052m7 8.948h-2.506l-1.65-3.778c-.192-.356-.192-.41-.758-.41h-1.947V176H560v-10.835c1.693-.11 2.89-.165 4.086-.165 2.408 0 4.595.707 4.595 3.407 0 1.302-.686 2.342-1.883 2.868.895 1.546 2.146 4.594 2.202 4.725m-14-5.498c0 4.639 4.024 8.498 8.985 8.498 5.001 0 9.015-3.86 9.015-8.498 0-4.697-4.014-8.502-9.015-8.502-4.961 0-8.985 3.805-8.985 8.502m-2 .027c0-5.823 4.9-10.529 11-10.529 6.039 0 11 4.706 11 10.53 0 5.741-4.961 10.47-11 10.47-6.1 0-11-4.729-11-10.47"/>
        <mask id="b" fill="#fff">
            <use xlink:href="#a"/>
        </mask>
        <path fill="#DBE442" d="M428 210h13v-69h-13z" mask="url(#b)"/>
        <path fill="#59CBE8" d="M399.325 210.41c-5.597 0-8.639-1.342-11.763-5.865h-.191V229H374v-67.941h11.288l.854 5.68h.188c3.416-4.998 7.588-6.739 13.47-6.739 14.514 0 20.2 11.542 20.2 24.726 0 13.76-5.6 25.684-20.675 25.684M396.22 171c-5.583 0-9.221 2.225-9.221 8.322v10.737c0 6.69 2.055 10.941 9.035 10.941 8.754 0 9.965-8.125 9.965-15.58 0-7.646-1.026-14.42-9.779-14.42" mask="url(#b)"/>
        <path fill="#E4002B" d="M525.366 211.262C519.072 227.34 516.025 231 504.391 231c-1.91 0-3.91-.096-7.25-.478v-11.267c.867.091 2.481.286 5.34.286 5.146 0 6.39-1.347 8.106-5.68l2.195-5.487L494 161h14.58l11.066 33.409h.192L530.605 161H545l-19.634 50.262z" mask="url(#b)"/>
        <path fill="#FFBF3F" d="M478 197.255c-3.212 2.246-6.711 3.745-10.768 3.745-3.868 0-6.232-2.433-6.232-6.373 0-8.53 10.761-8.627 17-8.627v11.255zm13.066.355v-2.067l.001-.024V179.24c0-13.712-5.206-19.241-19.122-19.241-8.42 0-15.338 1.905-22.814 5.711l4.162 9.148c5.308-2.954 11.27-4.95 17.423-4.95 4.824 0 7.002 1.425 7.002 5.904v2.275c-11.827-.089-29.718 1.53-29.718 17.34 0 9.239 6.341 14.572 15.336 14.572 5.827 0 11.183-1.973 15.804-5.652.035.29.075.537.123.693 1.444 4.602 9.315 4.926 15.255 4.602l.482-10.177c-2.488-.08-3.934-.405-3.934-1.856z" mask="url(#b)"/>
        <path fill="#75787B" d="M233.55 210c-16.554 0-24.55-10.118-24.55-24.997 0-13.928 7.136-25.003 24.55-25.003 16.083 0 24.45 9.544 24.45 25.003C258 199.79 250.2 210 233.55 210m.456-39c-8.418 0-11.006 5.026-11.006 14.314 0 9.474 2.682 14.686 11.098 14.686 8.228 0 10.902-5.117 10.902-14.686 0-9.288-2.581-14.314-10.994-14.314" mask="url(#b)"/>
        <path fill="#75787B" d="M167 145v12.03h17.937V210h14.126v-52.97H217V145zM290.542 198.766c-6.819.17-7.472-.72-7.52-4.843a82.293 82.293 0 0 1-.003-.669V171.68H294v-10.877h-10.981V148h-13.163v12.802H262v10.877h7.765v23.015c0 11.646 3.127 15.306 16.002 15.306 2.364 0 4.634-.292 8.233-.674v-10.797c-.99.095-1.805.195-3.458.237M353 210h13v-69h-13zM329 197.255c-3.214 2.246-6.711 3.745-10.77 3.745-3.868 0-6.23-2.433-6.23-6.373 0-8.53 10.761-8.627 17-8.627v11.255zm13.067.355v-2.067l.002-.024V179.24c0-13.712-5.208-19.241-19.122-19.241-8.422 0-15.34 1.905-22.814 5.711l4.162 9.148c5.308-2.954 11.269-4.95 17.422-4.95 4.823 0 7.001 1.425 7.001 5.904v2.275c-11.827-.089-29.718 1.53-29.718 17.34 0 9.239 6.341 14.572 15.336 14.572 5.827 0 11.185-1.973 15.806-5.652.033.29.074.537.122.693 1.445 4.602 9.314 4.926 15.256 4.602l.48-10.177c-2.488-.08-3.933-.405-3.933-1.856z" mask="url(#b)"/>
        <path fill="#FFBF3F" d="M86.601 142.91c1.865-1.051 1.865-2.77 0-3.82l-24.21-13.642c-1.865-1.05-3.391-.19-3.391 1.91v27.284c0 2.1 1.526 2.96 3.39 1.91l24.211-13.643z" mask="url(#b)"/>
        <path fill="#8246AF" d="M86.601 177.91c1.865-1.051 1.865-2.769 0-3.82l-24.21-13.642c-1.865-1.05-3.391-.19-3.391 1.91v27.285c0 2.1 1.526 2.959 3.39 1.91l24.211-13.643z" mask="url(#b)"/>
        <path fill="#F04E98" d="M86.601 214.91c1.865-1.05 1.865-2.77 0-3.82l-24.21-13.642c-1.865-1.05-3.391-.19-3.391 1.91v27.284c0 2.1 1.526 2.96 3.39 1.91l24.211-13.643z" mask="url(#b)"/>
        <path fill="#59CBE8" d="M90 172.641c0 2.102 1.526 2.961 3.39 1.91l24.213-13.642c1.863-1.05 1.863-2.769 0-3.82L93.39 143.45c-1.865-1.051-3.391-.192-3.391 1.91v27.282z" mask="url(#b)"/>
        <path fill="#DBE442" d="M90 208.642c0 2.1 1.526 2.96 3.39 1.91l24.213-13.641c1.863-1.051 1.863-2.77 0-3.82L93.39 179.45c-1.865-1.051-3.391-.192-3.391 1.91v27.283z" mask="url(#b)"/>
        <path fill="#E4002B" d="M122 189.643c0 2.1 1.524 2.959 3.389 1.91l24.214-13.643c1.863-1.051 1.863-2.769 0-3.82l-24.214-13.642c-1.865-1.05-3.389-.19-3.389 1.91v27.285z" mask="url(#b)"/>
    </g>
</svg>
