<svg xmlns="http://www.w3.org/2000/svg" width="32" height="32" viewBox="0 0 32 32">
    <path fill="#FFF" fill-rule="evenodd" d="M16 6c-2.716 0-3.056.012-4.123.06-1.064.049-1.791.218-2.427.465a4.901 4.901 0 0 0-1.772 1.153A4.902 4.902 0 0 0 6.525 9.45c-.247.636-.416 1.363-.465 2.427C6.011 12.944 6 13.284 6 16s.011 3.056.06 4.123c.049 1.064.218 1.791.465 2.427a4.902 4.902 0 0 0 1.153 1.772 4.902 4.902 0 0 0 1.772 1.153c.636.247 1.363.416 2.427.465 1.067.048 1.407.06 4.123.06s3.056-.012 4.123-.06c1.064-.049 1.791-.218 2.427-.465a4.902 4.902 0 0 0 1.772-1.153 4.901 4.901 0 0 0 1.153-1.772c.247-.636.416-1.363.465-2.427.048-1.067.06-1.407.06-4.123s-.012-3.056-.06-4.123c-.049-1.064-.218-1.791-.465-2.427a4.902 4.902 0 0 0-1.153-1.772 4.901 4.901 0 0 0-1.772-1.153c-.636-.247-1.363-.416-2.427-.465C19.056 6.012 18.716 6 16 6m0 2c2.606 0 2.914.01 3.943.057.952.043 1.468.202 1.812.336.456.177.78.388 1.122.73.342.341.553.666.73 1.122.134.344.293.86.336 1.812C23.99 13.086 24 13.394 24 16s-.01 2.914-.057 3.943c-.043.952-.202 1.468-.336 1.812-.177.456-.388.78-.73 1.122a3.023 3.023 0 0 1-1.122.73c-.344.134-.86.293-1.812.336C18.914 23.99 18.606 24 16 24s-2.914-.01-3.943-.057c-.952-.043-1.468-.202-1.812-.336a3.023 3.023 0 0 1-1.122-.73 3.024 3.024 0 0 1-.73-1.122c-.134-.344-.293-.86-.336-1.812C8.01 18.914 8 18.606 8 16s.01-2.914.057-3.943c.043-.952.202-1.468.336-1.812.177-.456.388-.78.73-1.122a3.023 3.023 0 0 1 1.122-.73c.344-.134.86-.293 1.812-.336C13.086 8.01 13.394 8 16 8zm0 11a3 3 0 1 1 0-6 3 3 0 0 1 0 6zm0-8a5 5 0 1 0 0 10 5 5 0 0 0 0-10zm-4 0a1 1 0 1 0-2 0 1 1 0 0 0 2 0z"/>
</svg>
