<svg xmlns="http://www.w3.org/2000/svg" width="32" height="32" viewBox="0 0 32 32">
    <path fill="#FAFAFA" fill-rule="nonzero" d="M12.975 24c7.17 0 11.092-6.156 11.092-11.495 0-.175 0-.349-.012-.522A8.098 8.098 0 0 0 26 9.892a7.569 7.569 0 0 1-2.239.635 4.032 4.032 0 0 0 1.714-2.234 7.648 7.648 0 0 1-2.475.98c-1.209-1.331-3.129-1.657-4.684-.794-1.555.862-2.358 2.699-1.96 4.48-3.134-.164-6.054-1.698-8.034-4.222-1.034 1.846-.506 4.208 1.207 5.393a3.766 3.766 0 0 1-1.769-.506v.052c0 1.923 1.309 3.58 3.127 3.96a3.76 3.76 0 0 1-1.76.07c.51 1.645 1.974 2.772 3.642 2.805a7.649 7.649 0 0 1-4.841 1.733c-.31-.001-.62-.02-.928-.059a10.755 10.755 0 0 0 5.975 1.812"/>
</svg>
