<svg xmlns="http://www.w3.org/2000/svg" xmlns:xlink="http://www.w3.org/1999/xlink" width="32" height="32" viewBox="0 0 32 32">
    <defs>
        <path id="a" d="M0 0h22v16H0z"/>
    </defs>
    <g fill="none" fill-rule="evenodd" transform="translate(5 8)">
        <mask id="b" fill="#fff">
            <use xlink:href="#a"/>
        </mask>
        <path fill="#FAFAFA" d="M21.54 2.498C22 4.281 22 8 22 8s0 3.719-.46 5.502c-.253.983-.998 1.757-1.945 2.02C17.88 16 11 16 11 16s-6.88 0-8.595-.478C1.458 15.26.713 14.485.46 13.502 0 11.719 0 8 0 8s0-3.72.46-5.502c.253-.983.998-1.757 1.945-2.02C4.12 0 11 0 11 0s6.88 0 8.595.478c.947.263 1.692 1.037 1.945 2.02zM9 12l5-3.5L9 5v7z" mask="url(#b)"/>
    </g>
</svg>
