<?xml version="1.0" encoding="utf-8"?>
<!-- Generator: Adobe Illustrator 24.2.3, SVG Export Plug-In . SVG Version: 6.00 Build 0)  -->
<svg version="1.1" id="Capa_1" xmlns="http://www.w3.org/2000/svg" xmlns:xlink="http://www.w3.org/1999/xlink" x="0px" y="0px"
	 viewBox="0 0 30 30" style="enable-background:new 0 0 30 30;" xml:space="preserve">
<path d="M27.5,2.1h-25C1.1,2.1,0,3.2,0,4.6v16.1c0,1.4,1.1,2.5,2.5,2.5h9.7v3.3H8.1v1.4h13.8v-1.4h-4.1v-3.3h9.7
	c1.4,0,2.5-1.1,2.5-2.5V4.6C30,3.2,28.9,2.1,27.5,2.1z M13.6,26.5v-3.3h2.8v3.3H13.6z M28.6,20.7c0,0.6-0.5,1-1,1H2.5
	c-0.6,0-1-0.5-1-1V4.6c0-0.6,0.5-1,1-1h25.1c0.6,0,1,0.5,1,1V20.7z"/>
<path d="M14.5,17.6h-1.4v-1.7H6.7l0.4-1c0.1-0.3,2.5-6.3,6.5-7.5l0.9-0.3C14.5,7.1,14.5,17.6,14.5,17.6z M8.8,14.5H13V9.2
	C11.1,10.3,9.5,13,8.8,14.5z"/>
<polygon points="18.2,10.9 18.2,7.6 16.8,7.6 16.8,17.6 18.2,17.6 18.2,13.5 22.3,17.6 23.3,16.6 18.9,12.1 23.1,8.7 22.2,7.6 "/>
</svg>
