<?xml version="1.0" encoding="utf-8"?>
<!-- Generator: Adobe Illustrator 24.2.3, SVG Export Plug-In . SVG Version: 6.00 Build 0)  -->
<svg version="1.1" id="Layer_1" xmlns="http://www.w3.org/2000/svg" xmlns:xlink="http://www.w3.org/1999/xlink" x="0px" y="0px"
	 viewBox="0 0 30 30" style="enable-background:new 0 0 30 30;" xml:space="preserve">
<path d="M17.4,30c-3.4-1.1-5.9-3.6-8.5-5.9c-2.9-2.6-5.4-5.6-7.6-8.9c-1.8-2.7-1.6-6,0.5-8.5c2-2.3,3.8-2.5,5.7-0.2
	C8.2,7.4,9,8.1,9.8,9c1.2,1.3,1.3,2.7,0.2,4.1c-0.4,0.6-0.4,1.1,0.1,1.6c1.7,1.7,3.3,3.4,5,5c0.5,0.5,1,0.5,1.6,0.1
	c1.4-1.1,2.8-1,4.1,0.3c1,1,2,2,3,3c1.3,1.4,1.3,2.9,0,4.4c-1.2,1.3-2.6,2.2-4.4,2.6C18.7,30,18,30,17.4,30z M18.3,28.3
	c0-0.1,0-0.1,0.1-0.2c1.7,0,2.9-0.8,4-2c0.6-0.6,0.6-1.1,0-1.7c-1-1-2-2-3-3c-0.5-0.5-1-0.5-1.6-0.1c-1.4,1.1-2.8,1-4.1-0.3
	c-1.6-1.6-3.1-3.2-4.7-4.8c-1.5-1.5-1.6-2.7-0.4-4.4c0.3-0.5,0.4-1,0-1.4C7.5,9.3,6.5,8.2,5.4,7.2C5.1,6.9,4.4,6.9,4.2,7
	c-2.4,1.8-3.1,4.6-1.4,7c3.5,5.2,7.8,9.6,13,13.1C16.5,27.7,17.4,27.9,18.3,28.3z"/>
<path d="M29.3,17.1c-1.2,0-1.3-0.2-1.3-1.4C28.4,7.6,23.2,2.1,15.3,2c-0.4,0-1-0.2-1.1-0.6C13.8,0.8,14.4,0,15.3,0
	c2.8-0.1,5.4,0.5,7.7,1.8c0.8,0.5,1.6,1,2.4,1.5c0.7,0.7,1.3,1.4,2,2.1c0.3,0.6,0.7,1.1,1,1.7c1.5,2.8,1.9,5.9,1.6,9.3
	C29.7,16.7,29.5,16.9,29.3,17.1z"/>
<path d="M22.3,7.8c2.1,2.3,3.1,4.9,2.8,8.1c-0.1,0.9-0.5,1.4-1.1,1.4s-0.9-0.3-0.8-1.2c0.2-5.4-3-9-8.4-9.2c-0.4,0-0.8-0.1-1.1-0.4
	c-0.2-0.2-0.2-0.8,0-1C13.9,5.3,14.4,5,14.8,5c2.5-0.1,4.7,0.5,6.5,2C21.7,7.3,22.1,7.6,22.3,7.8z"/>
<path d="M19.8,17.4c-0.4,0.1-0.8,0.2-1,0.1c-0.3-0.1-0.5-0.5-0.6-0.8c-0.2-0.7-0.1-1.6-0.4-2.3c-0.6-1.5-1.8-2.3-3.4-2.4
	c-0.2,0-0.5,0-0.7-0.1c-0.6-0.1-0.9-0.4-0.7-1c0.1-0.6,0.6-0.9,1.2-1c1.9,0,3.4,0.6,4.6,1.9c1,1.2,1.5,2.7,1.4,4.4
	C20.1,16.6,19.9,16.9,19.8,17.4z"/>
</svg>
