<?xml version="1.0" encoding="utf-8"?>
<!-- Generator: Adobe Illustrator 24.2.3, SVG Export Plug-In . SVG Version: 6.00 Build 0)  -->
<svg version="1.1" id="Layer_1" xmlns="http://www.w3.org/2000/svg" xmlns:xlink="http://www.w3.org/1999/xlink" x="0px" y="0px"
	 viewBox="0 0 30 30" style="enable-background:new 0 0 30 30;" xml:space="preserve">
<path d="M11.8,14.5c0.7,0,1.3,0.5,1.3,1.2s-0.6,1.2-1.3,1.2s-1.3-0.5-1.3-1.2S11.1,14.5,11.8,14.5z M11.8,19.4
	c0.7,0,1.3,0.5,1.3,1.2s-0.6,1.2-1.3,1.2s-1.3-0.5-1.3-1.2S11.1,19.4,11.8,19.4z M11.5,0c-0.3,0-0.8,0-1.3,0.1
	C8,0.4,6.2,1.3,4.6,2.8C4.5,3,4.3,3.5,4.4,3.8C4.4,4,4.8,4.3,5,4.3c0.3,0,0.7-0.2,0.9-0.4c3.6-3,8.1-3,11.7,0.1
	c0.6,0.5,1,0.5,1.4,0.2c0.4-0.4,0.3-0.9-0.2-1.4C16.8,0.8,14.4,0,11.5,0z M16.4,6.5c-0.2-0.3-0.4-0.6-0.6-0.8
	c-1.1-1-2.4-1.5-3.9-1.5c-1.7,0-3.1,0.5-4.3,1.6C7.3,6.1,7.2,6.6,7.5,7s0.7,0.4,1.2,0.1C8.9,6.9,9,6.8,9.2,6.7
	c1.2-0.9,2.5-1.1,3.9-0.7c0.6,0.2,1.2,0.7,1.8,1c0.3,0.1,0.7,0.2,0.9,0.1C16,7.1,16.2,6.7,16.4,6.5z M7.7,8.8c2.7,0,5.5,0,8.2,0
	L16,8.9c1.8,0.6,2.6,1.7,2.6,3.5c0,1.4,0,2.7,0,4.1c0,0.3,0.1,0.5,0.4,0.6c0.8,0.3,1.6,0.6,2.4,1c1.2,0.5,2,1.3,2.6,2.4
	c1,2,1.8,4,1.5,6.3c-0.1,0.7,0,1.4,0,2.1c0,0.4-0.3,0.7-0.4,1c-0.2,0-0.4,0-0.5,0c-0.1-0.3-0.4-0.7-0.4-1c-0.1-0.7-0.1-1.4,0-2.1
	c0.2-1.8-0.4-3.5-1.1-5.2c-0.8-2-2.6-2.5-4.4-3.2c0,0.8,0,1.6,0,2.4c0,0.2,0.2,0.5,0.3,0.7c0.4,0.4,0.5,0.7,0.2,1
	c-0.3,0.4-0.7,0.3-1.1,0s-0.8-0.6-1.3-0.9c-0.4-0.3-0.7-0.3-1.1,0c-0.3,0.3-0.3,0.7,0,1c0.5,0.7,0.9,1.3,1.4,2
	c0.4,0.6,1,1.1,1.8,1.3c0.6,0.2,1.2,0.5,1.8,0.7c0.5,0.2,0.7,0.4,0.7,0.9s0,1,0,1.5c0,0.4-0.1,0.7-0.5,0.9c-0.1,0-0.3,0-0.4,0
	C20.1,29.7,20,29.4,20,29c0-0.3,0-0.6,0-0.9c0-0.1-0.1-0.3-0.2-0.4c-0.4-0.2-0.7-0.3-1.1-0.4c-0.1,0.3-0.2,0.6-0.3,0.9
	c-0.6,1-1.5,1.6-2.6,1.9c-2.6,0-5.2,0-7.8,0L7.9,30C6,29.5,5,28.3,5,26.5c0-4.7,0-9.5,0-14.2c0-0.8,0.2-1.6,0.8-2.3
	C6.3,9.4,7,9.1,7.7,8.8z M17.3,20.2c0-0.1,0-0.3,0-0.4c0-2.5,0-4.9,0-7.4c0-1.4-0.8-2.2-2.3-2.2c-2.1,0-4.2,0-6.4,0
	c-1.5,0-2.3,0.8-2.3,2.3c0,3.9,0,7.8,0,11.7c0,0.2,0,0.3,0,0.5c3.1,0,6.1,0,9.1,0c-0.4-0.6-0.8-1.2-1.1-1.8
	c-0.6-1.3,0.3-2.8,1.8-2.8C16.6,20,17,20.1,17.3,20.2z M6.4,26c-0.2,1.5,0.5,2.6,1.8,2.6c2.4,0.1,4.8,0,7.2,0c0.7,0,1.2-0.4,1.6-1
	c0.6-1-0.1-1.6-1-1.6c-3,0-6.1,0-9.1,0C6.8,26,6.6,26,6.4,26z"/>
</svg>
