<?xml version="1.0" encoding="utf-8"?>
<!-- Generator: Adobe Illustrator 24.2.3, SVG Export Plug-In . SVG Version: 6.00 Build 0)  -->
<svg version="1.1" id="Layer_1" xmlns="http://www.w3.org/2000/svg" xmlns:xlink="http://www.w3.org/1999/xlink" x="0px" y="0px"
	 viewBox="0 0 30 30" style="enable-background:new 0 0 30 30;" xml:space="preserve">
<style type="text/css">
	.st0{fill:#FFFFFF;}
</style>
<g>
	<path class="st0" d="M15,30C6.8,30,0,23.2,0,15S6.8,0,15,0s15,6.8,15,15S23.2,30,15,30z M15,1.2C7.4,1.2,1.2,7.4,1.2,15
		S7.4,28.8,15,28.8S28.8,22.6,28.8,15S22.6,1.2,15,1.2z"/>
	<g>
		<path class="st0" d="M15,17c-2.6,0-4.9-2.1-4.9-4.9c0-2.6,2.1-4.9,4.9-4.9s4.9,2.1,4.9,4.9S17.6,17,15,17z M15,8.6
			c-2,0-3.6,1.6-3.6,3.6s1.6,3.6,3.6,3.6s3.6-1.6,3.6-3.6C18.6,10.2,17,8.6,15,8.6z"/>
		<path class="st0" d="M22.9,23.5c-1.2-3.3-4.4-5.2-7.9-5.2s-6.5,2.1-7.9,5.2L6,23c1.5-3.6,5-6,9-6s7.5,2.4,9,6L22.9,23.5z"/>
	</g>
</g>
</svg>
