<?xml version="1.0" encoding="utf-8"?>
<!-- Generator: Adobe Illustrator 24.2.3, SVG Export Plug-In . SVG Version: 6.00 Build 0)  -->
<svg version="1.1" id="Layer_1" xmlns="http://www.w3.org/2000/svg" xmlns:xlink="http://www.w3.org/1999/xlink" x="0px" y="0px"
	 viewBox="0 0 30 30" style="enable-background:new 0 0 30 30;" xml:space="preserve">
<path d="M15,22.6c2.1,0,3.8,1.7,3.8,3.7S17.1,30,15,30s-3.8-1.7-3.8-3.7S12.9,22.6,15,22.6z M21.5,17.5c-0.3,0.4-0.5,1-0.9,1.1
	s-0.9,0.1-1.3-0.2c-0.9-0.5-1.7-1.3-2.6-1.7c-2-0.8-3.8-0.3-5.5,1.1c-0.2,0.2-0.5,0.4-0.7,0.6C10,18.9,9.4,19,8.9,18.3
	s-0.4-1.4,0.2-1.9c1.7-1.8,3.7-2.7,6.1-2.7c2.1,0.1,4,0.9,5.5,2.5C21,16.6,21.2,17,21.5,17.5z M30,8.3c-1.1,1.1-1.4,1.1-2.5,0
	C20.1,0.8,9.8,0.9,2.4,8.4C2,8.8,1.3,9.1,0.8,9c-0.9-0.2-1.1-1.5-0.3-2.3C3,3.9,6,2,9.4,0.9C10.6,0.5,11.8,0.3,13,0
	c1.3,0,2.6,0,3.9,0c0.9,0.2,1.7,0.4,2.6,0.6C23.6,1.6,27,4,30,7.3C30,7.6,30,8,30,8.3z M14.6,6.8c4.2,0,7.6,1.4,10.4,4.5
	c0.8,0.8,0.9,1.6,0.3,2.3c-0.5,0.6-1.1,0.5-1.9-0.3c-5-5-11.5-5-16.6-0.1c-0.4,0.4-0.9,0.7-1.3,0.7c-0.3,0-0.9-0.5-0.9-0.9
	c-0.1-0.5,0.1-1.2,0.4-1.5C7,9,9.7,7.5,12.8,7C13.5,6.9,14.1,6.9,14.6,6.8z"/>
</svg>
