<?xml version="1.0" encoding="utf-8"?>
<!-- Generator: Adobe Illustrator 24.2.3, SVG Export Plug-In . SVG Version: 6.00 Build 0)  -->
<svg version="1.1" id="Layer_1" xmlns="http://www.w3.org/2000/svg" xmlns:xlink="http://www.w3.org/1999/xlink" x="0px" y="0px"
	 viewBox="0 0 750.4 307.4" style="enable-background:new 0 0 750.4 307.4;" xml:space="preserve">
<style type="text/css">
	.st0{fill:#FFFFFF;}
</style>
<ellipse class="st0" cx="596.4" cy="153.5" rx="58.5" ry="58.6"/>
<path class="st0" d="M597.1,0c-67,0-124,43.1-144.8,103.1c0.8-5.9,1.2-12.3,1.2-19.4c0-22.2-12.7-46.3-31-59.4
	c-17-12.3-34.3-19.8-54.9-19.8H234.8v302.4h124.4c24.6,0,45.6-9,66.6-24.1c19.4-13.9,31.8-38.6,31.8-62c0-1.1,0-2.2,0-3.3
	c24.2,52.9,77.5,89.6,139.4,89.6c84.7,0,153.3-68.7,153.3-153.5C750.4,68.7,681.8,0,597.1,0z M312.4,70h32.5
	c15.8,0,32.5,2.8,32.5,23c1.2,18.2-9.8,29.1-31.6,29.1l-33.3,0.1V70z M372.6,232.6c-6.8,5.6-15.9,5.2-24.2,5.2h-36.1v-55.5h32.9
	c19.9,0,37,5.2,37.9,28.5C383.1,218.3,378.5,228.2,372.6,232.6z M445.6,174.3c-5.9-7.9-14.6-15.3-27.1-22.5
	c14.1-7.3,23.2-16.3,28.6-28.2c-1.9,9.7-2.9,19.7-2.9,29.9C444.2,160.6,444.7,167.5,445.6,174.3z M596.4,233.4
	c-44,0-79.7-35.8-79.7-79.9c0-44.1,35.7-79.9,79.7-79.9c44,0,79.7,35.8,79.7,79.9C676.1,197.6,640.4,233.4,596.4,233.4z"/>
<polygon class="st0" points="139.9,115.4 77.3,115.4 77.3,3.9 0,3.9 0,307.4 76.9,307.4 76.9,188.9 139.5,188.9 139.5,307.4 
	217.8,307.4 217.8,3.9 139.9,3.9 "/>
</svg>
