<svg xmlns="http://www.w3.org/2000/svg" xmlns:xlink="http://www.w3.org/1999/xlink" width="24" height="24" viewBox="0 0 24 24">
    <defs>
        <path id="a" d="M19.352 15.802l-1.41-1.41a1.795 1.795 0 0 0-1.36-.582c-.786.033-1.342.616-1.465.745-1.697 1.67-4.589-1.043-4.6-1.052-.013-.008-2.747-2.913-1.07-4.618.135-.119.718-.677.752-1.464a1.788 1.788 0 0 0-.583-1.359l-1.41-1.41C8.097 4.53 7.62 4.029 6.99 4a1.268 1.268 0 0 0-.964.396L4.423 6.006a.511.511 0 0 0-.11.149c-.075.17-1.808 4.214 3.755 9.777C11.452 19.315 14.274 20 16.003 20c1.115 0 1.776-.285 1.842-.314a.545.545 0 0 0 .156-.11l1.602-1.6c.265-.25.41-.602.396-.966-.027-.623-.527-1.1-.647-1.208zm-.493 1.433l-1.527 1.527c-.542.188-3.873 1.071-8.517-3.566C4.17 10.558 5.05 7.23 5.246 6.675L6.771 5.15c.09-.091.149-.088.17-.09.186.046.35.15.47.298l.032.035 1.424 1.424a.77.77 0 0 1 .274.564c-.012.32-.298.633-.398.724a.311.311 0 0 0-.033.03c-2.424 2.424.894 5.959 1.057 6.123.149.149 3.683 3.462 6.108 1.043.012-.01.021-.023.031-.033.067-.08.39-.385.72-.398.22.005.428.105.57.274l1.423 1.424.035.03c.095.08.287.308.298.47-.006.02-.005.074-.096.166h.003zM12.483 8.72a.529.529 0 0 1 0-1.057 3.92 3.92 0 0 1 3.914 3.914.529.529 0 1 1-1.057 0 2.86 2.86 0 0 0-2.857-2.857zm0-2.345l.001.001a.529.529 0 0 1 0-1.056 6.266 6.266 0 0 1 6.258 6.257.527.527 0 0 1-1.055 0 5.214 5.214 0 0 0-5.204-5.202z"/>
    </defs>
    <g fill="none" fill-rule="evenodd">
        <mask id="b" fill="#fff">
            <use xlink:href="#a"/>
        </mask>
        <use fill="#324458" fill-rule="nonzero" xlink:href="#a"/>
        <g fill="#3B4559" mask="url(#b)">
            <path d="M0 0h24v24H0z"/>
        </g>
    </g>
</svg>
