<svg xmlns="http://www.w3.org/2000/svg" xmlns:xlink="http://www.w3.org/1999/xlink" width="24" height="24" viewBox="0 0 24 24">
    <defs>
        <path id="a" d="M9.859 6.508h-.002a3.021 3.021 0 0 1 2.104-.846c.79 0 1.546.304 2.104.846.139.139.179.345.102.524a.5.5 0 0 1-.456.297.503.503 0 0 1-.353-.137 2.006 2.006 0 0 0-1.397-.561c-.524 0-1.026.202-1.397.561a.51.51 0 0 1-.491.145.492.492 0 0 1-.364-.352.476.476 0 0 1 .15-.477zm-.507-.492A.51.51 0 0 1 8.664 6a.474.474 0 0 1-.017-.668c1.832-1.775 4.8-1.775 6.632 0a.476.476 0 0 1 0 .685.51.51 0 0 1-.706 0 3.75 3.75 0 0 0-2.61-1.05 3.75 3.75 0 0 0-2.61 1.05zM19.5 7.7c.133 0 .26.051.354.142.093.091.146.215.146.343v8.9a.478.478 0 0 1-.146.344.507.507 0 0 1-.354.142h-7.008v.753l2.963.717a.486.486 0 0 1 .392.533.495.495 0 0 1-.513.426.467.467 0 0 1-.122-.015l-3.22-.78-3.203.78a.47.47 0 0 1-.123.015.495.495 0 0 1-.513-.426.486.486 0 0 1 .392-.533l2.946-.716v-.754h-6.99a.507.507 0 0 1-.354-.142.478.478 0 0 1-.147-.343v-8.9c0-.13.053-.253.147-.344A.507.507 0 0 1 4.5 7.7h15zm-.5 8.901l-.005-7.931H5V16.6h14zm-8.048-4.265a.492.492 0 0 1-.5-.485V9.797c0-.129.053-.252.147-.343a.506.506 0 0 1 .353-.142h2.14c.132 0 .26.05.353.142a.476.476 0 0 1 .146.343v2.054a.492.492 0 0 1-.5.485h-2.139zm.5-2.054v1.077h1.14v-1.077h-1.14zm-4.905 2.054a.494.494 0 0 1-.501-.485V9.797c0-.129.053-.252.147-.343a.507.507 0 0 1 .354-.142h2.14c.275 0 .499.217.499.485v2.054a.494.494 0 0 1-.5.485H6.547zm.5-2.054v1.077h1.138v-1.077H7.046zm8.305 2.054a.492.492 0 0 1-.5-.485V9.797c0-.129.053-.252.146-.343a.506.506 0 0 1 .354-.142h2.14c.132 0 .26.05.353.142.094.09.147.214.147.343v2.054a.494.494 0 0 1-.5.485h-2.14zm.5-2.054v1.077h1.14v-1.077h-1.14zm-4.9 5.662a.491.491 0 0 1-.5-.474v-2.054c0-.268.224-.485.5-.485h2.137a.493.493 0 0 1 .502.474v2.054a.476.476 0 0 1-.146.343.506.506 0 0 1-.354.142h-2.139zm.5-2.054v1.076h1.14V13.89h-1.14zm-4.905 2.054a.493.493 0 0 1-.501-.474v-2.054c0-.268.225-.485.501-.485h2.14c.27 0 .492.21.499.474v2.054a.492.492 0 0 1-.5.485H6.547zm.5-2.054v1.076h1.138V13.89H7.046zm8.305 2.054a.491.491 0 0 1-.5-.474v-2.054c0-.268.224-.485.5-.485h2.14c.27 0 .493.21.5.474v2.054a.478.478 0 0 1-.147.343.507.507 0 0 1-.354.142h-2.139zm.5-2.054v1.076h1.14V13.89h-1.14z"/>
    </defs>
    <g fill="none" fill-rule="evenodd">
        <mask id="b" fill="#fff">
            <use xlink:href="#a"/>
        </mask>
        <use fill="#324458" xlink:href="#a"/>
        <g fill="#3B4559" mask="url(#b)">
            <path d="M0 0h24v24H0z"/>
        </g>
    </g>
</svg>
