<?xml version="1.0" encoding="UTF-8"?>
<svg width="52px" height="52px" viewBox="0 0 52 52" version="1.1" xmlns="http://www.w3.org/2000/svg" xmlns:xlink="http://www.w3.org/1999/xlink">
    <!-- Generator: sketchtool 63 (101010) - https://sketch.com -->
    <title>93838751-4A8D-44FB-AE02-EE352A354CF5</title>
    <desc>Created with sketchtool.</desc>
    <defs>
        <path d="M0.666666667,7.33333333 L7.33333333,7.33333333 L7.33333333,0.666666667 L0.666666667,0.666666667 L0.666666667,7.33333333 Z M10.6666667,27.3333333 L17.3333333,27.3333333 L17.3333333,20.6666667 L10.6666667,20.6666667 L10.6666667,27.3333333 Z M0.666666667,27.3333333 L7.33333333,27.3333333 L7.33333333,20.6666667 L0.666666667,20.6666667 L0.666666667,27.3333333 Z M0.666666667,17.3333333 L7.33333333,17.3333333 L7.33333333,10.6666667 L0.666666667,10.6666667 L0.666666667,17.3333333 Z M10.6666667,17.3333333 L17.3333333,17.3333333 L17.3333333,10.6666667 L10.6666667,10.6666667 L10.6666667,17.3333333 Z M20.6666667,0.666666667 L20.6666667,7.33333333 L27.3333333,7.33333333 L27.3333333,0.666666667 L20.6666667,0.666666667 Z M10.6666667,7.33333333 L17.3333333,7.33333333 L17.3333333,0.666666667 L10.6666667,0.666666667 L10.6666667,7.33333333 Z M20.6666667,17.3333333 L27.3333333,17.3333333 L27.3333333,10.6666667 L20.6666667,10.6666667 L20.6666667,17.3333333 Z M20.6666667,27.3333333 L27.3333333,27.3333333 L27.3333333,20.6666667 L20.6666667,20.6666667 L20.6666667,27.3333333 Z" id="path-1"></path>
    </defs>
    <g id="Version-4" stroke="none" stroke-width="1" fill="none" fill-rule="evenodd">
        <g id="Landing-Paquete-V3" transform="translate(-277.000000, -537.000000)">
            <g id="Resumen" transform="translate(0.000000, 74.000000)">
                <g id="Content" transform="translate(267.000000, 152.000000)">
                    <g id="Services" transform="translate(0.000000, 21.000000)">
                        <g id="Apps" transform="translate(0.000000, 280.000000)">
                            <g id="Content" transform="translate(10.000000, 10.000000)">
                                <g id="ic-apps" transform="translate(12.000000, 12.000000)">
                                    <mask id="mask-2" fill="white">
                                        <use xlink:href="#path-1"></use>
                                    </mask>
                                    <g id="icon/navigation/apps_24px" fill-rule="nonzero"></g>
                                    <g id="GrisAzul/800(Principal)" mask="url(#mask-2)" fill="#3B4559">
                                        <g transform="translate(-6.000000, -6.000000)" id="Color">
                                            <rect x="0" y="0" width="40" height="40"></rect>
                                        </g>
                                    </g>
                                </g>
                            </g>
                        </g>
                    </g>
                </g>
            </g>
        </g>
    </g>
</svg>