<svg xmlns="http://www.w3.org/2000/svg" xmlns:xlink="http://www.w3.org/1999/xlink" width="24" height="24" viewBox="0 0 24 24">
    <defs>
        <path id="a" d="M7.432 14.03h2.833v1.193a.506.506 0 0 0 .5.486.506.506 0 0 0 .5-.486V14.03h.667v1.193a.506.506 0 0 0 .5.486.506.506 0 0 0 .5-.486v-2.175l2.48 2.543c.198.183.5.175.689-.017a.52.52 0 0 0 .017-.704l-2.145-2.204 2.147-2.196a.52.52 0 0 0-.018-.704.491.491 0 0 0-.688-.018l-2.48 2.535V10.05a.506.506 0 0 0-.5-.486.506.506 0 0 0-.5.486v2.957h-.666v-2.9a.511.511 0 0 0-.308-.474.491.491 0 0 0-.545.112L7.08 13.156a.52.52 0 0 0-.11.557.5.5 0 0 0 .462.317zm2.833-2.687v1.663H8.641l1.624-1.663zm9.234-3.45c.134 0 .263.054.357.152.094.097.146.23.144.367v8.516a.517.517 0 0 1-.147.362.494.494 0 0 1-.354.15h-7.007v.793l2.963.756a.51.51 0 0 1 .392.562.503.503 0 0 1-.513.449.507.507 0 0 1-.122-.015l-3.22-.822-3.203.822a.51.51 0 0 1-.123.015.503.503 0 0 1-.513-.449.51.51 0 0 1 .392-.562l2.946-.756v-.794h-6.99a.494.494 0 0 1-.354-.15.517.517 0 0 1-.147-.36V8.404c0-.283.224-.513.5-.513H19.5zm-.497 8.524V8.911H5v7.506h14.002zM9.02 6.268l.002.008a.501.501 0 0 1-.462-.316.521.521 0 0 1 .107-.558 4.622 4.622 0 0 1 6.632 0c.137.127.195.32.15.503a.505.505 0 0 1-.364.372.493.493 0 0 1-.491-.153 3.637 3.637 0 0 0-5.221 0 .494.494 0 0 1-.353.144zm.858.374a2.932 2.932 0 0 1 4.205 0 .52.52 0 0 1-.017.704.491.491 0 0 1-.689.018 1.953 1.953 0 0 0-1.396-.592c-.524 0-1.027.213-1.397.592a.491.491 0 0 1-.689-.018.52.52 0 0 1-.017-.704z"/>
    </defs>
    <g fill="none" fill-rule="evenodd">
        <mask id="b" fill="#fff">
            <use xlink:href="#a"/>
        </mask>
        <use fill="#324458" fill-rule="nonzero" xlink:href="#a"/>
        <g fill="#3B4559" mask="url(#b)">
            <path d="M0 0h24v24H0z"/>
        </g>
    </g>
</svg>
