<?xml version="1.0" encoding="UTF-8"?>
<svg width="52px" height="52px" viewBox="0 0 52 52" version="1.1" xmlns="http://www.w3.org/2000/svg" xmlns:xlink="http://www.w3.org/1999/xlink">
    <!-- Generator: sketchtool 63 (101010) - https://sketch.com -->
    <title>B82B9BBB-6C13-4B61-9BE4-3BAAA67039B5</title>
    <desc>Created with sketchtool.</desc>
    <defs>
        <path d="M6.03333333,12.9833333 C8.43333333,17.7 12.3,21.55 17.0166667,23.9666667 L20.6833333,20.3 C21.1333333,19.85 21.8,19.7 22.3833333,19.9 C24.25,20.5166667 26.2666667,20.85 28.3333333,20.85 C29.25,20.85 30,21.6 30,22.5166667 L30,28.3333333 C30,29.25 29.25,30 28.3333333,30 C12.6833333,30 0,17.3166667 0,1.66666667 C0,0.75 0.75,0 1.66666667,0 L7.5,0 C8.41666667,0 9.16666667,0.75 9.16666667,1.66666667 C9.16666667,3.75 9.5,5.75 10.1166667,7.61666667 C10.3,8.2 10.1666667,8.85 9.7,9.31666667 L6.03333333,12.9833333 Z" id="path-1"></path>
    </defs>
    <g id="Version-4" stroke="none" stroke-width="1" fill="none" fill-rule="evenodd">
        <g id="Landing-Paquete-V3" transform="translate(-277.000000, -457.000000)">
            <g id="Resumen" transform="translate(0.000000, 74.000000)">
                <g id="Content" transform="translate(267.000000, 152.000000)">
                    <g id="Services" transform="translate(0.000000, 21.000000)">
                        <g id="Telefono" transform="translate(0.000000, 200.000000)">
                            <g id="Content" transform="translate(10.000000, 10.000000)">
                                <g id="ic-phone" transform="translate(11.000000, 11.000000)">
                                    <mask id="mask-2" fill="white">
                                        <use xlink:href="#path-1"></use>
                                    </mask>
                                    <g id="icon/communication/phone_24px" fill-rule="nonzero"></g>
                                    <g id="GrisAzul/800(Principal)" mask="url(#mask-2)" fill="#3B4559">
                                        <g transform="translate(-5.000000, -5.000000)" id="Color">
                                            <rect x="0" y="0" width="40" height="40"></rect>
                                        </g>
                                    </g>
                                </g>
                            </g>
                        </g>
                    </g>
                </g>
            </g>
        </g>
    </g>
</svg>