<svg xmlns="http://www.w3.org/2000/svg" width="44" height="13" viewBox="0 0 44 13">
    <g fill="none" fill-rule="evenodd" transform="translate(.062 .073)">
        <rect width="42.931" height="12.393" x=".25" y=".25" fill="#000" stroke="#A6A6A6" stroke-width=".5" rx="1.196"/>
        <rect width="43.43" height="12.898" fill="#3B4559" rx="1.461"/>
        <path fill="#FFF" d="M16.665 10.127h.73L15.797 5.7h-.739l-1.598 4.426h.705l.408-1.175h1.687l.405 1.175zm-1.273-3.623h.052l.641 1.871h-1.337l.644-1.87zm3.939.227c-.454 0-.847.227-1.05.608h-.048v-.553h-.635v4.423h.66V9.62h.051c.175.353.552.562 1.028.562.843 0 1.38-.666 1.38-1.727s-.537-1.724-1.386-1.724zm-.187 2.859c-.553 0-.9-.436-.9-1.132 0-.7.347-1.135.903-1.135.558 0 .892.427.892 1.132 0 .708-.334 1.135-.895 1.135zM22.75 6.73c-.454 0-.847.227-1.05.608h-.048v-.553h-.635v4.423h.66V9.62h.051c.175.353.552.562 1.028.562.843 0 1.38-.666 1.38-1.727S23.6 6.731 22.75 6.731zm-.188 2.859c-.552 0-.898-.436-.898-1.132 0-.7.346-1.135.902-1.135.558 0 .892.427.892 1.132 0 .708-.334 1.135-.896 1.135zm2.97-.654c.049.792.708 1.298 1.69 1.298 1.049 0 1.705-.53 1.705-1.377 0-.666-.374-1.034-1.282-1.245l-.488-.12c-.576-.135-.81-.316-.81-.632 0-.399.363-.66.905-.66.516 0 .871.255.936.663h.668c-.04-.745-.696-1.27-1.594-1.27-.967 0-1.61.525-1.61 1.313 0 .65.364 1.037 1.165 1.224l.57.138c.586.138.844.34.844.678 0 .392-.405.678-.957.678-.592 0-1.003-.267-1.061-.688h-.681zm3.963-2.96v.826h-.55v.555h.55v1.886c0 .644.291.902 1.024.902.129 0 .248-.015.353-.034v-.549c-.092.01-.144.016-.246.016-.328 0-.472-.154-.472-.503V7.357h.748v-.555h-.748v-.825h-.66zm3.042 3.63c-.573 0-.895-.421-.895-1.151 0-.724.322-1.147.895-1.147.57 0 .896.423.896 1.147 0 .727-.325 1.15-.896 1.15zm0 .585c.976 0 1.574-.653 1.574-1.736 0-1.077-.601-1.733-1.574-1.733-.975 0-1.576.656-1.576 1.733 0 1.083.598 1.736 1.576 1.736zm1.874-.064h.66V8.154c0-.469.353-.785.85-.785.11 0 .312.022.364.04v-.65a1.383 1.383 0 0 0-.29-.028c-.436 0-.804.24-.9.568h-.049v-.513h-.635v3.34zm3.36-2.844c.487 0 .806.34.821.865h-1.687c.037-.521.377-.865.865-.865zm.818 1.942c-.123.26-.396.405-.794.405-.528 0-.868-.371-.89-.957v-.037h2.359v-.23c0-1.049-.562-1.684-1.49-1.684-.942 0-1.54.678-1.54 1.745 0 1.068.585 1.724 1.542 1.724.764 0 1.298-.368 1.448-.966h-.635z"/>
        <text fill="#FFF" font-family="Montserrat-Regular, Montserrat" font-size="3.35">
            <tspan x="13.46" y="4.137">Disponible en el</tspan>
        </text>
        <g fill="#FFF">
            <path d="M9.672 6.507c-.01-1.07.875-1.59.916-1.614-.502-.731-1.279-.831-1.552-.84-.653-.068-1.286.391-1.619.391-.34 0-.851-.384-1.403-.372-.71.01-1.375.422-1.74 1.06-.752 1.303-.19 3.216.53 4.269.36.515.782 1.09 1.333 1.07.54-.021.74-.343 1.392-.343.645 0 .834.343 1.396.33.579-.008.943-.517 1.291-1.038a4.25 4.25 0 0 0 .59-1.202c-.013-.005-1.123-.428-1.134-1.71M8.61 3.361c.29-.362.488-.856.433-1.357-.42.019-.945.29-1.248.645-.267.313-.506.826-.444 1.307.471.036.956-.238 1.258-.595"/>
        </g>
    </g>
</svg>
