<svg xmlns="http://www.w3.org/2000/svg" xmlns:xlink="http://www.w3.org/1999/xlink" width="44" height="14" viewBox="0 0 44 14">
    <defs>
        <linearGradient id="b" x1="50%" x2="50%" y1="0%" y2="38.913%">
            <stop offset="0%" stop-color="#FBDA09"/>
            <stop offset="100%" stop-color="#FFBC00"/>
        </linearGradient>
        <path id="a" d="M4.508 1.408L7.404 6.5a.92.92 0 0 1-.8 1.375H.812a.92.92 0 0 1-.8-1.375l2.896-5.092a.92.92 0 0 1 1.6 0z"/>
        <linearGradient id="c" x1="37.516%" x2="54.821%" y1="58.476%" y2="39.083%">
            <stop offset="0%" stop-color="#01E2FF"/>
            <stop offset="100%" stop-color="#01C4FF"/>
        </linearGradient>
        <linearGradient id="e" x1="20.281%" x2="83.82%" y1="32.433%" y2="69.755%">
            <stop offset="0%" stop-color="#28D781"/>
            <stop offset="100%" stop-color="#02F076"/>
        </linearGradient>
        <linearGradient id="f" x1="74.488%" x2="10.108%" y1="35.169%" y2="68.753%">
            <stop offset="0%" stop-color="#F2414E"/>
            <stop offset="100%" stop-color="#E02554"/>
        </linearGradient>
    </defs>
    <g fill="none" fill-rule="evenodd" transform="translate(.062 .899)">
        <rect width="42.93" height="12.398" x=".25" y=".25" fill="#000" stroke="#A6A6A6" stroke-width=".5" rx="1.461"/>
        <rect width="43.43" height="12.898" fill="#3B4559" rx="1.461"/>
        <path fill="#FFF" d="M14.36 1.89c.223 0 .424.049.605.148.18.1.321.237.424.411.102.175.154.37.154.587 0 .216-.052.411-.156.586a1.105 1.105 0 0 1-.427.41c-.182.1-.385.15-.61.15h-.923V1.889h.933zm.007 2.007c.16 0 .304-.037.434-.111a.817.817 0 0 0 .308-.308.864.864 0 0 0 .113-.44.861.861 0 0 0-.115-.441.834.834 0 0 0-.313-.31.873.873 0 0 0-.44-.113h-.613v1.723h.626zm1.595-1.448h.304v1.733h-.304V2.449zm.15-.69c.055 0 .1.018.136.055a.194.194 0 0 1 .054.14.194.194 0 0 1-.054.142.181.181 0 0 1-.136.055.181.181 0 0 1-.135-.055.194.194 0 0 1-.054-.141c0-.057.018-.104.054-.141a.181.181 0 0 1 .135-.056zm1.694 1.074a1.038 1.038 0 0 0-.238-.105.85.85 0 0 0-.247-.04.422.422 0 0 0-.221.051.17.17 0 0 0-.084.156c0 .07.031.123.094.159.062.036.156.072.283.11.12.034.218.07.295.104a.522.522 0 0 1 .195.154.42.42 0 0 1 .08.269.425.425 0 0 1-.185.373.79.79 0 0 1-.46.128 1.15 1.15 0 0 1-.375-.063.853.853 0 0 1-.307-.176l.115-.223a.81.81 0 0 0 .267.157c.106.04.209.059.31.059.1 0 .18-.019.242-.056a.186.186 0 0 0 .091-.17.194.194 0 0 0-.096-.177 1.315 1.315 0 0 0-.293-.118 1.964 1.964 0 0 1-.284-.1.503.503 0 0 1-.186-.149.402.402 0 0 1-.077-.255c0-.162.059-.283.177-.364a.764.764 0 0 1 .442-.12c.105 0 .208.014.31.043.1.03.189.07.263.12l-.111.233zm1.522-.393c.162 0 .306.037.433.11a.764.764 0 0 1 .294.312c.07.133.105.286.105.458 0 .17-.034.322-.103.454a.748.748 0 0 1-.291.308.84.84 0 0 1-.431.11.79.79 0 0 1-.386-.092.658.658 0 0 1-.262-.262v.98h-.305V2.448h.305v.344a.66.66 0 0 1 .26-.262.774.774 0 0 1 .381-.091zm-.059 1.486a.577.577 0 0 0 .3-.078.54.54 0 0 0 .206-.22c.05-.094.074-.2.074-.317a.656.656 0 0 0-.075-.315.556.556 0 0 0-.505-.298.552.552 0 0 0-.508.298.656.656 0 0 0-.074.315c0 .12.025.226.075.319a.555.555 0 0 0 .507.296zm2.037-1.486c.173 0 .326.037.46.11.135.075.24.178.315.31a.9.9 0 0 1 .113.454c0 .17-.038.322-.113.455a.798.798 0 0 1-.314.311.935.935 0 0 1-.46.112.942.942 0 0 1-.464-.112.801.801 0 0 1-.314-.31.906.906 0 0 1-.113-.456.9.9 0 0 1 .113-.454.801.801 0 0 1 .314-.31.942.942 0 0 1 .463-.11zm0 .265a.583.583 0 0 0-.302.078.543.543 0 0 0-.207.218.665.665 0 0 0-.073.316c0 .12.024.227.073.321a.53.53 0 0 0 .207.218c.088.051.189.077.302.077a.586.586 0 0 0 .3-.077.53.53 0 0 0 .206-.218c.05-.094.074-.2.074-.32A.665.665 0 0 0 21.812 3a.543.543 0 0 0-.206-.218.577.577 0 0 0-.3-.078zm2.276-.265c.204 0 .363.059.479.178.115.119.173.283.173.493v1.07h-.304v-.988c0-.147-.041-.26-.123-.342a.458.458 0 0 0-.34-.123.523.523 0 0 0-.377.149.585.585 0 0 0-.166.378v.927h-.304V2.449h.304v.367c.116-.247.335-.372.658-.376zm1.196.01h.304v1.732h-.304V2.449zm.15-.692c.055 0 .1.019.136.056a.194.194 0 0 1 .054.14.194.194 0 0 1-.054.142.181.181 0 0 1-.136.055.181.181 0 0 1-.135-.055.194.194 0 0 1-.054-.141c0-.057.018-.104.054-.141a.181.181 0 0 1 .135-.056zm1.71.682c.162 0 .306.037.432.11a.764.764 0 0 1 .295.312c.07.133.105.286.105.458 0 .17-.035.322-.103.454a.748.748 0 0 1-.292.308.84.84 0 0 1-.43.11.79.79 0 0 1-.387-.092.658.658 0 0 1-.262-.262v.344h-.304v-2.43h.304v1.041a.66.66 0 0 1 .26-.262.774.774 0 0 1 .382-.091zm-.059 1.486a.577.577 0 0 0 .3-.078.54.54 0 0 0 .206-.22c.05-.094.074-.2.074-.317a.656.656 0 0 0-.076-.315.556.556 0 0 0-.504-.298.552.552 0 0 0-.508.298.656.656 0 0 0-.075.315c0 .12.025.226.075.319a.555.555 0 0 0 .508.296zm1.333-2.174h.304v2.43h-.304v-2.43zm1.611.688c.269 0 .472.079.61.237.137.158.206.378.206.66 0 .044-.002.076-.004.098h-1.369a.59.59 0 0 0 .195.37.577.577 0 0 0 .392.138.733.733 0 0 0 .286-.056.688.688 0 0 0 .231-.157l.167.173a.875.875 0 0 1-.308.213c-.12.05-.253.076-.4.076a.92.92 0 0 1-.453-.11.77.77 0 0 1-.308-.31.93.93 0 0 1-.11-.455.92.92 0 0 1 .11-.453.799.799 0 0 1 .306-.311.884.884 0 0 1 .45-.113zm.54.76a.53.53 0 0 0-.157-.372.531.531 0 0 0-.38-.136.548.548 0 0 0-.381.137.577.577 0 0 0-.182.37h1.1zm2.244-.76c.268 0 .471.079.609.237.137.158.206.378.206.66 0 .044 0 .076-.003.098H31.75a.59.59 0 0 0 .195.37.577.577 0 0 0 .391.138.733.733 0 0 0 .287-.056.688.688 0 0 0 .23-.157l.168.173a.875.875 0 0 1-.308.213c-.12.05-.253.076-.4.076a.92.92 0 0 1-.453-.11.77.77 0 0 1-.308-.31.93.93 0 0 1-.11-.455.92.92 0 0 1 .11-.453.799.799 0 0 1 .306-.311.884.884 0 0 1 .449-.113zm.54.76a.53.53 0 0 0-.157-.372.531.531 0 0 0-.38-.136.548.548 0 0 0-.381.137.577.577 0 0 0-.182.37h1.1zm1.654-.76c.203 0 .362.059.478.178.116.119.174.283.174.493v1.07h-.305v-.988c0-.147-.04-.26-.123-.342a.458.458 0 0 0-.339-.123.523.523 0 0 0-.378.149.585.585 0 0 0-.165.378v.927h-.305V2.449h.305v.367c.115-.247.335-.372.658-.376z"/>
        <g fill="#FFF">
            <path d="M31.467 5.756h1.656s.954.162.954 1.257a1.208 1.208 0 0 1-.954 1.257h-1.656V5.756zm.321.608v1.35h1.125s.511 0 .511-.675-.511-.675-.511-.675h-1.125z"/>
            <path d="M31.32 5.756h1v4.09h-1zM34.418 5.756h1v4.09h-1z"/>
            <path d="M37.168 9.554c-.16.133-.418.258-.825.283-.93.058-.931-.792-.931-.849 0-.057-.046-.75.695-.86.524-.078.891.052 1.061.134v-.12c-.042-.159-.17-.452-.558-.452-.532 0-.65.288-.65.288l-.486-.288s.272-.561 1.09-.561c1.015 0 1.188.7 1.188.937v1.779h-.584v-.291zm-.042-.876s-1.125-.304-1.165.329c-.039.632 1.08.328 1.18-.12 0-.143-.015-.21-.015-.21zM38.849 9.691l-1.042-2.474h.584l.75 1.78.744-1.766h.584l-1.58 3.755h-.585l.545-1.295zM30.013 8.173l-1.848.764s.119.422.675.425c.435.002.68-.386.68-.386l.47.318s-.38.612-1.154.612c-.952 0-1.372-.833-1.372-1.374 0-.52.333-1.403 1.313-1.403s1.236 1.044 1.236 1.044zm-.704-.217s-.232-.353-.589-.288c-.754.138-.659.798-.659.798l1.248-.51z"/>
            <path d="M26.587 5.756h1v4.082h-1zM25.598 7.218l.572.005v2.575c0 .658-.392 1.353-1.314 1.353-.923 0-1.22-.817-1.22-.817l.524-.221s.16.504.723.504c.64 0 .715-.583.715-.783v-.28s-.221.348-.772.348c-.597 0-1.306-.512-1.306-1.384 0-.872.668-1.37 1.313-1.389.517-.014.765.343.765.343v-.254zm-.723 2.16c.417 0 .755-.382.755-.852 0-.471-.338-.853-.755-.853s-.755.382-.755.853c0 .47.338.852.755.852zM21.872 9.905a1.39 1.39 0 0 1-1.39-1.388 1.39 1.39 0 0 1 1.39-1.388 1.39 1.39 0 0 1 1.391 1.388 1.39 1.39 0 0 1-1.39 1.388zm-.009-.545c.432 0 .782-.377.782-.843 0-.466-.35-.844-.782-.844-.432 0-.782.378-.782.844 0 .466.35.843.782.843zM18.863 9.905a1.39 1.39 0 0 1-1.391-1.388 1.39 1.39 0 0 1 1.39-1.388 1.39 1.39 0 0 1 1.392 1.388 1.39 1.39 0 0 1-1.391 1.388zm-.01-.545c.433 0 .783-.377.783-.843 0-.466-.35-.844-.782-.844-.432 0-.782.378-.782.844 0 .466.35.843.782.843z"/>
            <g>
                <path d="M15.271 7.569h1.837l-.019.58h-1.818z"/>
                <path d="M16.746 6.203l-.42.42c-.262-.268-.634-.415-1.064-.415-.858 0-1.554.695-1.554 1.551 0 .857.696 1.552 1.554 1.552.859 0 1.468-.496 1.467-1.552.001-.065 0-.128-.004-.19h.536v.022c.202 1.478-.807 2.33-2.017 2.318a2.153 2.153 0 0 1-2.155-2.15c0-1.187.965-2.15 2.155-2.15.622 0 1.145.218 1.502.594z"/>
            </g>
        </g>
        <g transform="translate(3.185 2.229)">
            <mask id="d" fill="#fff">
                <use xlink:href="#a"/>
            </mask>
            <use fill="url(#b)" transform="rotate(90 3.708 4.173)" xlink:href="#a"/>
            <path fill="url(#c)" d="M0 .048l4.084 4.059-4.137 4.22z" mask="url(#d)"/>
            <path fill="url(#e)" d="M-.84-.788l4.924 4.896 1.464-1.396z" mask="url(#d)"/>
            <path fill="url(#f)" d="M4.084 4.107l2.241 2.259-6.694 2.259z" mask="url(#d)"/>
        </g>
    </g>
</svg>
