<svg xmlns="http://www.w3.org/2000/svg" width="632" height="356" viewBox="0 0 632 356">
    <g fill="none" fill-rule="evenodd">
        <path fill="#CC3" d="M6.157 194.682v-34.375l32.9 17.188-32.9 17.187zm47.66 8.133v-50.623h16.828v50.623H53.817zm57.001 0l-17.706-28.7v28.7H77.165v-50.623h17.267l16.825 27.025v-27.025h15.95v50.623h-16.389zm49.43-38.825v38.826h-16.826V163.99H129.15v-11.799h45.37v11.8h-14.273zm16.215 38.825v-50.623h39.559v11.797H193.29v7.017h21.056v11.958h-21.056v7.733h23.522v12.118h-40.35zm67.666-39.223h-6.343v10.683h6.343c3.875 0 6.696-1.835 6.696-5.342 0-3.507-2.82-5.341-6.696-5.341zm7.93 39.223l-10.045-17.46h-4.228v17.46h-16.828v-50.623h24.051c6.169 0 11.806.716 15.682 3.189 3.876 2.472 6.96 6.776 6.96 12.755 0 5.98-2.203 11.321-9.69 14.51l13.037 20.169h-18.94zm53.656 0l-17.706-28.7v28.7h-15.947v-50.623h17.267l16.826 27.025v-27.025h15.95v50.623h-16.39zm22.912 0v-50.623h39.559v11.797h-22.731v7.017h21.056v11.958h-21.056v7.733h23.522v12.118h-40.35zm71.012-38.825v38.826h-16.825V163.99H368.54v-11.799h45.37v11.8H399.64z"/>
        <path fill="#3B4559" d="M597.817 202.788V153.79h5.118v45.06h22.595v3.937h-27.713zm-9.047 0l-5.54-13.734h-25.156l-5.541 13.734h-5.116l20.636-48.997h5.54l20.723 48.997h-5.546zm-18.268-44.997l-11.085 27.16h22.085l-11-27.16zm-118.516-.142v45.139h-5.116v-45.139h-17.053v-3.858h39.225v3.858h-17.056zm40.84 45.727c-15.348 0-25.409-10.726-25.409-25.154 0-14.505 9.976-25.23 25.324-25.23s25.409 10.725 25.409 25.153c0 14.505-9.976 25.23-25.324 25.23zm.315-46.385c-12.194 0-20.124 8.72-20.124 21.065s7.93 21.064 20.039 21.064c12.191 0 20.121-8.719 20.121-21.064 0-12.346-7.93-21.065-20.036-21.065zm46.045.658v45.139h-5.116v-45.139h-17.053v-3.858h39.225v3.858h-17.056z"/>
    </g>
</svg>
