<svg xmlns="http://www.w3.org/2000/svg" width="632" height="356" viewBox="0 0 632 356">
    <g fill="none" fill-rule="evenodd">
        <path fill="#3B4559" d="M530.055 158.474v44.036h-5.08v-44.036h-16.938v-3.764h38.957v3.764h-16.939zm58.035 44.036v-47.8h5.083v43.96h22.44v3.84H588.09zm-26.616-43.824l-11.009 26.497H572.4l-10.925-26.497zm18.054 43.824l-5.503-13.398h-24.983l-5.504 13.398h-5.08l20.494-47.8h5.503l20.58 47.8h-5.507zm-135.93-44.036v44.036h-5.081v-44.036H421.58v-3.764h38.957v3.764h-16.939zm40.396-.583c-12.11 0-19.986 8.506-19.986 20.55s7.876 20.55 19.902 20.55c12.108 0 19.984-8.506 19.984-20.55s-7.876-20.55-19.9-20.55m.446 45.178c-15.243 0-25.235-10.464-25.235-24.54 0-14.15 9.908-24.614 25.15-24.614 15.244 0 25.236 10.464 25.236 24.54 0 14.15-9.908 24.614-25.151 24.614"/>
        <path fill="#8246AF" d="M10.143 195.468l32.675-16.767-32.675-16.768zM80.644 165.396v38.376H65.23v-38.376H52.155v-11.662h41.564v11.662H80.644zm14.855 38.375v-50.036h36.24v11.66h-20.824v6.936h19.29v11.82h-19.29v7.643h21.55v11.977H95.498zm40.762 0v-50.036h15.416v37.98h19.29v12.056H136.26zm58.034-54.292h-10.332L189.692 139h13.4l-8.797 10.48zm-20.745 54.292v-50.037h36.24v11.662h-20.823v6.935h19.29v11.82h-19.29v7.643h21.549v11.977H173.55zm56.18-38.375v8.826h18.157v11.898H229.73v17.652h-15.417v-50.038h35.109v11.662H229.73zm46.169-.157c-7.263 0-10.411 5.83-10.411 13.316 0 7.486 3.148 13.396 10.41 13.396 7.265 0 10.414-5.91 10.414-13.396 0-7.485-3.149-13.316-10.413-13.316m0 39.32c-16.142 0-26.148-9.85-26.148-25.844 0-15.997 10.006-25.768 26.148-25.768 16.143 0 26.15 9.771 26.15 25.768 0 15.994-10.007 25.843-26.15 25.843zm60.295-.788l-16.221-28.367v28.367h-14.61v-50.036h15.82l15.413 26.712v-26.712h14.611v50.036h-15.013zm44.475-38.532c-7.263 0-10.41 5.83-10.41 13.316 0 7.486 3.147 13.396 10.41 13.396 7.265 0 10.413-5.91 10.413-13.396 0-7.485-3.148-13.316-10.413-13.316m0 39.32c-16.141 0-26.148-9.85-26.148-25.844 0-15.997 10.007-25.768 26.148-25.768 16.144 0 26.15 9.771 26.15 25.768 0 15.994-10.006 25.843-26.15 25.843"/>
    </g>
</svg>
