<svg xmlns="http://www.w3.org/2000/svg" width="632" height="356" viewBox="0 0 632 356">
    <g fill="none" fill-rule="evenodd">
        <path fill="#3B4559" d="M401.173 157.931v45.31h-5.067v-45.31h-16.89v-3.872h38.85v3.872h-16.893zm58.843 45.31V154.06h5.07v45.23h22.378v3.952h-27.448zm-27.421-45.167l-10.98 27.264h21.875l-10.895-27.264zm17.98 45.167l-5.49-13.785h-24.914l-5.488 13.785h-5.067l20.438-49.182h5.488l20.525 49.182h-5.493zm-135.002-45.31v45.31h-5.067v-45.31h-16.89v-3.872h38.85v3.872h-16.893zm40.374-.66c-12.077 0-19.931 8.752-19.931 21.144 0 12.392 7.854 21.145 19.847 21.145 12.075 0 19.93-8.753 19.93-21.145s-7.855-21.144-19.846-21.144m.435 46.56c-15.202 0-25.166-10.766-25.166-25.249 0-14.56 9.88-25.326 25.082-25.326 15.201 0 25.166 10.766 25.166 25.25 0 14.56-9.88 25.325-25.082 25.325"/>
        <path fill="#F04E98" d="M144.14 195.647l32.585-17.253-32.585-17.252zM228.876 152.001h13.814l9.65 35.888L262.07 152h15.475L260.91 205h-18.303l-13.73-43.738v3.092H215.4V205h-15.887v-40.647h-13.477V152h42.84v.001z"/>
    </g>
</svg>
