<svg xmlns="http://www.w3.org/2000/svg" xmlns:xlink="http://www.w3.org/1999/xlink" width="18" height="18" viewBox="0 0 18 18">
    <defs>
        <filter id="prefix__a" width="158.3%" height="144.5%" x="-29.2%" y="-21.8%" filterUnits="objectBoundingBox">
            <feOffset dy="16" in="SourceAlpha" result="shadowOffsetOuter1"/>
            <feGaussianBlur in="shadowOffsetOuter1" result="shadowBlurOuter1" stdDeviation="16"/>
            <feColorMatrix in="shadowBlurOuter1" result="shadowMatrixOuter1" values="0 0 0 0 0 0 0 0 0 0 0 0 0 0 0 0 0 0 0.4 0"/>
            <feMerge>
                <feMergeNode in="shadowMatrixOuter1"/>
                <feMergeNode in="SourceGraphic"/>
            </feMerge>
        </filter>
        <path id="prefix__b" d="M6.369 11.213L10.84 7.86 6.369 4.505v6.708zM7.859.406C3.745.406.406 3.746.406 7.86c0 4.114 3.34 7.454 7.453 7.454 4.114 0 7.454-3.34 7.454-7.454S11.973.406 7.859.406zm0 13.416c-3.286 0-5.962-2.676-5.962-5.963 0-3.286 2.676-5.962 5.962-5.962 3.287 0 5.963 2.676 5.963 5.962 0 3.287-2.676 5.963-5.963 5.963z"/>
    </defs>
    <g fill="none" fill-rule="evenodd" filter="url(#prefix__a)" transform="translate(-220 -212)">
        <g transform="translate(221 213)">
            <mask id="prefix__c" fill="#fff">
                <use xlink:href="#prefix__b"/>
            </mask>
            <use fill="#000" fill-rule="nonzero" xlink:href="#prefix__b"/>
            <g fill="#1A76D2" mask="url(#prefix__c)">
                <path d="M0 0H18V18H0z" transform="translate(-1 -1)"/>
            </g>
        </g>
    </g>
</svg>
