<svg xmlns="http://www.w3.org/2000/svg" width="221" height="24" viewBox="0 0 221 24">
    <g fill="#3B4559" fill-rule="evenodd">
        <path d="M136.26 6.4v12.086h-1.378V6.399h-4.597V5.366h10.573V6.4h-4.597zm15.767 12.086V5.366h1.38v12.066h6.09v1.054h-7.47zm-7.41-11.758L141.629 14h5.953l-2.965-7.272zm4.85 11.758l-1.494-3.678h-6.78l-1.494 3.678h-1.379l5.562-13.12h1.494l5.586 13.12h-1.495zm-36.84-12.087v12.087h-1.378V6.399h-4.597V5.366h10.573V6.4h-4.597zm11.266-.125c-3.287 0-5.424 2.335-5.424 5.64 0 3.306 2.137 5.64 5.401 5.64 3.286 0 5.424-2.334 5.424-5.64 0-3.305-2.138-5.64-5.401-5.64m.006 12.583c-4.136 0-6.848-2.872-6.848-6.735 0-3.884 2.689-6.756 6.826-6.756s6.848 2.872 6.848 6.736c0 3.883-2.689 6.755-6.826 6.755M61.75 16.443l8.869-4.602-8.868-4.602zM84.81 4.8h3.76l2.627 9.573L93.845 4.8h4.21l-4.527 14.137h-4.98L84.81 7.27v.825h-3.668v10.842H76.82V8.095h-3.667V4.8H84.81z"/>
    </g>
</svg>
