<svg xmlns="http://www.w3.org/2000/svg" width="112" height="34" viewBox="0 0 112 34">
    <g fill="none" fill-rule="evenodd">
        <rect width="112.003" height="34" rx="3.084"/>
        <rect width="112" height="34" fill="#3B4559" rx="4.664"/>
        <path fill="#FFF" d="M42.977 26.704h1.882l-4.12-11.671h-1.907l-4.12 11.67h1.819l1.052-3.097h4.35l1.044 3.098zm-3.282-9.552h.134l1.653 4.934h-3.448l1.66-4.934zm10.156.599c-1.17 0-2.183.598-2.705 1.601h-.127v-1.456h-1.637V29.56h1.7v-4.19h.135c.45.93 1.424 1.48 2.65 1.48 2.175 0 3.559-1.755 3.559-4.553s-1.384-4.545-3.575-4.545zm-.483 7.538c-1.423 0-2.317-1.149-2.317-2.985 0-1.844.894-2.992 2.325-2.992 1.44 0 2.302 1.124 2.302 2.984 0 1.868-.862 2.993-2.31 2.993zm9.302-7.538c-1.17 0-2.183.598-2.705 1.601h-.126v-1.456h-1.637V29.56h1.7v-4.19h.135c.45.93 1.423 1.48 2.65 1.48 2.174 0 3.559-1.755 3.559-4.553s-1.385-4.545-3.576-4.545zm-.482 7.538c-1.424 0-2.318-1.149-2.318-2.985 0-1.844.894-2.992 2.326-2.992 1.44 0 2.302 1.124 2.302 2.984 0 1.868-.863 2.993-2.31 2.993zm7.657-1.723c.127 2.086 1.827 3.421 4.359 3.421 2.705 0 4.397-1.4 4.397-3.631 0-1.756-.965-2.726-3.306-3.284l-1.258-.316c-1.487-.355-2.088-.833-2.088-1.666 0-1.051.934-1.739 2.334-1.739 1.328 0 2.246.672 2.412 1.747h1.724c-.103-1.965-1.795-3.348-4.113-3.348-2.491 0-4.152 1.383-4.152 3.462 0 1.714.941 2.733 3.005 3.227l1.472.364c1.51.364 2.175.897 2.175 1.787 0 1.035-1.044 1.787-2.468 1.787-1.527 0-2.586-.703-2.737-1.811h-1.756zm10.22-7.805v2.176h-1.416V19.4h1.416v4.974c0 1.698.751 2.377 2.642 2.377.332 0 .64-.04.91-.089v-1.447c-.238.024-.372.04-.633.04-.847 0-1.218-.404-1.218-1.326V19.4h1.93v-1.463h-1.93V15.76h-1.701zm7.847 9.568c-1.48 0-2.31-1.108-2.31-3.033 0-1.909.83-3.025 2.31-3.025 1.47 0 2.31 1.116 2.31 3.025 0 1.917-.84 3.033-2.31 3.033zm0 1.545c2.515 0 4.057-1.723 4.057-4.578 0-2.839-1.55-4.57-4.057-4.57-2.516 0-4.066 1.731-4.066 4.57 0 2.855 1.543 4.578 4.066 4.578zm4.833-.17h1.7v-5.2c0-1.238.91-2.071 2.191-2.071.285 0 .807.056.942.105v-1.715a3.49 3.49 0 0 0-.752-.072c-1.123 0-2.072.63-2.317 1.496h-.127v-1.35h-1.637v8.807zm8.661-7.498c1.258 0 2.08.898 2.12 2.281h-4.35c.095-1.375.973-2.28 2.23-2.28zm2.112 5.12c-.316.688-1.02 1.068-2.048 1.068-1.36 0-2.239-.979-2.294-2.524v-.097h6.082v-.606c0-2.766-1.447-4.44-3.844-4.44-2.428 0-3.97 1.787-3.97 4.601 0 2.815 1.51 4.546 3.978 4.546 1.97 0 3.346-.97 3.733-2.548h-1.637z"/>
        <text fill="#FFF" font-family="Montserrat-Regular, Montserrat" font-size="8.634">
            <tspan x="34.712" y="11.113">Disponible en el</tspan>
        </text>
        <g fill="#FFF">
            <path d="M24.941 17.16c-.024-2.821 2.26-4.194 2.364-4.257-1.294-1.929-3.298-2.192-4.003-2.213-1.683-.181-3.317 1.03-4.174 1.03-.875 0-2.196-1.013-3.62-.983-1.831.029-3.545 1.113-4.485 2.798-1.94 3.433-.493 8.48 1.366 11.255.93 1.36 2.015 2.877 3.437 2.824 1.391-.058 1.91-.907 3.59-.907 1.662 0 2.15.907 3.6.872 1.493-.023 2.433-1.365 3.33-2.738 1.074-1.556 1.506-3.092 1.523-3.17-.034-.012-2.898-1.13-2.928-4.511M22.202 8.864c.748-.957 1.26-2.258 1.118-3.58-1.083.05-2.437.767-3.217 1.702-.69.825-1.306 2.176-1.147 3.447 1.217.093 2.466-.627 3.246-1.569"/>
        </g>
    </g>
</svg>
