<svg xmlns="http://www.w3.org/2000/svg" xmlns:xlink="http://www.w3.org/1999/xlink" width="112" height="34" viewBox="0 0 112 34">
    <defs>
        <linearGradient id="b" x1="50%" x2="50%" y1="0%" y2="38.913%">
            <stop offset="0%" stop-color="#FBDA09"/>
            <stop offset="100%" stop-color="#FFBC00"/>
        </linearGradient>
        <path id="a" d="M12.218 4.377l7.687 13.216a2.372 2.372 0 0 1-2.05 3.565H2.48a2.372 2.372 0 0 1-2.05-3.565L8.117 4.377a2.372 2.372 0 0 1 4.101 0z"/>
        <linearGradient id="c" x1="38.06%" x2="54.61%" y1="58.476%" y2="39.083%">
            <stop offset="0%" stop-color="#01E2FF"/>
            <stop offset="100%" stop-color="#01C4FF"/>
        </linearGradient>
        <linearGradient id="e" x1="20.281%" x2="83.82%" y1="31.631%" y2="70.656%">
            <stop offset="0%" stop-color="#28D781"/>
            <stop offset="100%" stop-color="#02F076"/>
        </linearGradient>
        <linearGradient id="f" x1="74.488%" x2="10.108%" y1="34.492%" y2="69.609%">
            <stop offset="0%" stop-color="#F2414E"/>
            <stop offset="100%" stop-color="#E02554"/>
        </linearGradient>
    </defs>
    <g fill="none" fill-rule="evenodd">
        <rect width="112" height="34.012" rx="3.765"/>
        <rect width="112" height="34" fill="#3B4559" rx="4.664"/>
        <path fill="#FFF" d="M37.033 4.982c.575 0 1.094.131 1.559.393.464.262.829.623 1.093 1.084.265.46.397.976.397 1.546 0 .57-.133 1.085-.4 1.546a2.88 2.88 0 0 1-1.103 1.084c-.467.261-.991.392-1.57.392h-2.383V4.982h2.407zm.017 5.294c.411 0 .784-.098 1.12-.293.334-.196.599-.467.793-.812a2.32 2.32 0 0 0 .292-1.157c0-.432-.099-.82-.296-1.166a2.176 2.176 0 0 0-.807-.816 2.214 2.214 0 0 0-1.135-.298h-1.58v4.542h1.613zm4.113-3.817h.786v4.568h-.786V6.46zm.389-1.822c.14 0 .257.049.35.147.093.098.14.221.14.371s-.047.273-.14.371a.463.463 0 0 1-.35.147.463.463 0 0 1-.35-.147.518.518 0 0 1-.14-.371c0-.15.046-.273.14-.371a.463.463 0 0 1 .35-.147zm4.366 2.832a2.647 2.647 0 0 0-.612-.276 2.149 2.149 0 0 0-.638-.104c-.236 0-.426.045-.57.134a.45.45 0 0 0-.215.41c0 .185.08.324.24.42.16.094.404.19.73.289.31.092.564.184.761.276.197.092.365.227.503.406.137.178.206.414.206.708 0 .432-.159.76-.477.985-.318.224-.713.336-1.186.336-.333 0-.655-.054-.967-.164a2.188 2.188 0 0 1-.79-.466l.296-.587c.185.172.415.31.688.414.273.104.539.156.798.156s.467-.05.625-.147a.492.492 0 0 0 .236-.45.514.514 0 0 0-.249-.466c-.166-.103-.418-.207-.756-.31a4.99 4.99 0 0 1-.73-.264c-.189-.09-.35-.22-.481-.393-.133-.172-.199-.397-.199-.673 0-.426.152-.746.456-.959.304-.213.684-.32 1.14-.32.27 0 .537.04.798.117.262.078.489.183.68.315l-.287.613zm3.927-1.036c.417 0 .788.098 1.115.294.327.196.58.469.76.82.18.351.27.754.27 1.21a2.6 2.6 0 0 1-.266 1.195 1.955 1.955 0 0 1-.751.812c-.324.193-.694.29-1.11.29-.378 0-.71-.081-.997-.242a1.716 1.716 0 0 1-.676-.691v2.582h-.786V6.459h.786v.907c.163-.3.387-.53.671-.691a1.96 1.96 0 0 1 .984-.242zm-.152 3.92a1.413 1.413 0 0 0 1.305-.786c.127-.247.19-.526.19-.837 0-.305-.065-.581-.194-.829a1.452 1.452 0 0 0-.532-.578 1.44 1.44 0 0 0-.769-.208c-.287 0-.545.07-.773.208a1.442 1.442 0 0 0-.536.578c-.13.248-.194.524-.194.83 0 .316.065.597.194.841.13.245.308.436.536.575.228.138.486.207.773.207zm5.253-3.92c.445 0 .84.098 1.187.294.346.196.616.468.81.816.195.348.292.747.292 1.196 0 .449-.097.85-.291 1.2a2.08 2.08 0 0 1-.811.82 2.369 2.369 0 0 1-1.187.294c-.45 0-.849-.097-1.195-.293a2.089 2.089 0 0 1-.81-.816 2.432 2.432 0 0 1-.292-1.205c0-.45.097-.848.291-1.196.195-.348.465-.62.811-.816a2.386 2.386 0 0 1 1.195-.294zm0 .7c-.293 0-.553.069-.78.207a1.42 1.42 0 0 0-.533.574c-.127.245-.19.523-.19.834 0 .316.063.598.19.846.127.247.304.439.532.574.228.135.488.203.781.203.287 0 .545-.068.773-.203.228-.135.405-.327.532-.574.127-.248.19-.53.19-.846 0-.311-.063-.59-.19-.834a1.42 1.42 0 0 0-.532-.574 1.462 1.462 0 0 0-.773-.207zm5.87-.7c.523 0 .935.157 1.233.47.298.315.448.748.448 1.3v2.824h-.786V8.42c0-.385-.105-.686-.317-.902-.21-.216-.502-.324-.874-.324-.4.006-.725.137-.975.393s-.393.589-.427.997v2.444h-.785V6.46h.785v.967c.299-.65.865-.981 1.698-.993zm3.082.026h.786v4.568h-.786V6.46zm.389-1.822c.14 0 .258.049.35.147.093.098.14.221.14.371s-.047.273-.14.371a.463.463 0 0 1-.35.147.463.463 0 0 1-.35-.147.518.518 0 0 1-.14-.371c0-.15.047-.273.14-.371a.463.463 0 0 1 .35-.147zm4.408 1.796c.417 0 .789.098 1.115.294.327.196.58.469.76.82.18.351.27.754.27 1.21a2.6 2.6 0 0 1-.265 1.195 1.955 1.955 0 0 1-.752.812c-.324.193-.694.29-1.11.29-.378 0-.71-.081-.997-.242a1.716 1.716 0 0 1-.676-.691v.906h-.785V4.62h.785v2.746c.163-.3.387-.53.672-.691a1.96 1.96 0 0 1 .983-.242zm-.152 3.92a1.413 1.413 0 0 0 1.305-.786c.127-.247.19-.526.19-.837 0-.305-.064-.581-.194-.829a1.452 1.452 0 0 0-.532-.578 1.44 1.44 0 0 0-.769-.208c-.287 0-.544.07-.772.208a1.442 1.442 0 0 0-.537.578c-.13.248-.194.524-.194.83 0 .316.065.597.194.841.13.245.309.436.537.575.228.138.485.207.772.207zm3.438-5.733h.785v6.407h-.785V4.62zm4.155 1.813c.692 0 1.216.209 1.57.626.356.418.533.998.533 1.74 0 .116-.003.202-.009.26H74.7c.062.408.23.734.503.975.273.242.61.363 1.009.363.265 0 .51-.049.739-.147.228-.098.426-.236.595-.414l.431.457c-.22.242-.484.43-.794.562-.31.132-.653.198-1.03.198-.44 0-.83-.096-1.17-.289a2.01 2.01 0 0 1-.794-.816 2.497 2.497 0 0 1-.283-1.2c0-.45.095-.848.283-1.197.189-.348.452-.621.79-.82a2.24 2.24 0 0 1 1.157-.298zm1.393 2.004c-.022-.415-.157-.742-.405-.98-.248-.24-.574-.359-.98-.359-.394 0-.722.121-.983.363-.262.242-.419.567-.47.976h2.838zm5.786-2.004c.692 0 1.216.209 1.57.626.355.418.533.998.533 1.74 0 .116-.003.202-.009.26h-3.53c.062.408.23.734.502.975.273.242.61.363 1.01.363.264 0 .51-.049.739-.147.228-.098.426-.236.595-.414l.43.457c-.219.242-.483.43-.793.562-.31.132-.653.198-1.03.198-.44 0-.83-.096-1.17-.289a2.01 2.01 0 0 1-.794-.816 2.497 2.497 0 0 1-.283-1.2c0-.45.094-.848.283-1.197.189-.348.452-.621.79-.82a2.24 2.24 0 0 1 1.157-.298zm1.393 2.004c-.022-.415-.158-.742-.405-.98-.248-.24-.575-.359-.98-.359-.394 0-.722.121-.984.363s-.418.567-.469.976h2.838zm4.265-2.004c.524 0 .935.157 1.233.47.299.315.448.748.448 1.3v2.824h-.786V8.42c0-.385-.105-.686-.316-.902-.212-.216-.503-.324-.875-.324-.4.006-.724.137-.975.393-.25.256-.393.589-.426.997v2.444h-.786V6.46h.786v.967c.298-.65.864-.981 1.697-.993z"/>
        <g fill="#FFF">
            <path d="M85.42 15.178s2.46.428 2.46 3.315c0 2.888-2.46 3.316-2.46 3.316H81.15v-6.63h4.271zm-.537 1.604h-2.905v3.558h2.905c.094-.002 1.314-.068 1.314-1.779 0-1.779-1.32-1.779-1.32-1.779z"/>
            <path d="M80.772 15.178h1.507v10.787h-1.507zM88.758 15.178h1.507v10.787h-1.507zM94.291 18.8c2.54 0 3.037 1.734 3.066 2.408l.001.053v4.7h-1.507v-.768c-.415.35-1.078.68-2.127.747-2.4.154-2.402-2.087-2.402-2.238v-.022c-.006-.258-.05-1.967 1.792-2.247 1.352-.205 2.3.138 2.738.355v-.315c-.107-.42-.44-1.193-1.44-1.193-1.372 0-1.675.759-1.675.759l-1.256-.759s.703-1.48 2.81-1.48zm-1.552 4.95c-.1 1.668 2.786.868 3.043-.315 0-.376-.039-.552-.039-.552s-2.903-.8-3.004.868zM99.006 19.03l1.932 4.696 1.919-4.658h1.507l-4.077 9.902H98.78l1.405-3.415L97.5 19.03h1.507zM74.211 18.8c2.527 0 3.187 2.752 3.187 2.752l-4.766 2.014s.308 1.114 1.741 1.121c1.122.006 1.756-1.016 1.756-1.016l1.209.837s-.976 1.614-2.974 1.614c-2.456 0-3.538-2.196-3.538-3.622 0-1.374.859-3.7 3.385-3.7zm-.145 1.42c-1.946.364-1.7 2.105-1.7 2.105l3.219-1.344s-.6-.933-1.52-.76zM68.565 15.178h1.594v10.764h-1.594zM64.041 18.8a2.377 2.377 0 0 1 1.95.873l.024.032v-.672l1.473.013v6.792c0 1.735-1.01 3.567-3.389 3.567-2.378 0-3.146-2.155-3.146-2.155l1.353-.582s.413 1.328 1.864 1.328c1.652 0 1.845-1.537 1.845-2.063v-.737s-.572.915-1.992.915c-1.54 0-3.369-1.349-3.369-3.648 0-2.3 1.723-3.615 3.387-3.662zm.108 1.434c-1.075 0-1.946 1.006-1.946 2.248 0 1.242.871 2.249 1.946 2.249s1.946-1.007 1.946-2.249c0-1.242-.871-2.248-1.946-2.248zM56.405 18.8c1.981 0 3.587 1.638 3.587 3.66 0 2.02-1.606 3.659-3.587 3.659-1.98 0-3.587-1.639-3.587-3.66s1.606-3.66 3.587-3.66zm-.023 1.435c-1.114 0-2.016.996-2.016 2.224 0 1.229.902 2.225 2.016 2.225 1.113 0 2.016-.996 2.016-2.225 0-1.228-.903-2.224-2.016-2.224zM48.645 18.8c1.98 0 3.587 1.638 3.587 3.66 0 2.02-1.606 3.659-3.587 3.659s-3.587-1.639-3.587-3.66 1.606-3.66 3.587-3.66zm-.024 1.435c-1.113 0-2.016.996-2.016 2.224 0 1.229.903 2.225 2.016 2.225 1.114 0 2.016-.996 2.016-2.225 0-1.228-.902-2.224-2.016-2.224z"/>
            <g>
                <path d="M39.382 19.96h4.736l-.047 1.53h-4.689z"/>
                <path d="M39.312 14.793c1.604 0 2.953.572 3.874 1.565l-1.083 1.106c-.676-.706-1.636-1.092-2.744-1.092-2.214 0-4.01 1.83-4.01 4.09 0 2.259 1.796 4.09 4.01 4.09 2.214 0 3.786-1.306 3.783-4.09.003-.172 0-.34-.012-.503h1.382l.002.058c.509 3.813-1.97 6.044-5 6.113h-.202c-3.069-.004-5.557-2.537-5.557-5.668 0-3.131 2.488-5.67 5.557-5.67z"/>
            </g>
        </g>
        <g transform="translate(8.213 5.877)">
            <mask id="d" fill="#fff">
                <use xlink:href="#a"/>
            </mask>
            <use fill="url(#b)" transform="rotate(90 10.168 11.005)" xlink:href="#a"/>
            <path fill="url(#c)" d="M0 .125L10.533 10.83-.136 21.957z" mask="url(#d)"/>
            <path fill="url(#e)" d="M-2.166-2.078l12.697 12.91 3.775-3.682z" mask="url(#d)"/>
            <path fill="url(#f)" d="M10.533 10.83l5.78 5.957-17.266 5.956z" mask="url(#d)"/>
        </g>
    </g>
</svg>
