<?xml version="1.0" encoding="utf-8"?>
<!-- Generator: Adobe Illustrator 24.2.3, SVG Export Plug-In . SVG Version: 6.00 Build 0)  -->
<svg version="1.1" id="Layer_1" xmlns="http://www.w3.org/2000/svg" xmlns:xlink="http://www.w3.org/1999/xlink" x="0px" y="0px"
	 viewBox="0 0 24 24" style="enable-background:new 0 0 24 24;" xml:space="preserve">
<style type="text/css">
	.st0{fill:#FFFFFF;}
</style>
<g>
	<path class="st0" d="M12,24C5.4,24,0,18.6,0,12S5.4,0,12,0s12,5.4,12,12S18.6,24,12,24z M12,1C5.9,1,1,5.9,1,12s4.9,11,11,11
		s11-4.9,11-11S18.1,1,12,1z"/>
	<g>
		<path class="st0" d="M12,13.6c-2.1,0-3.9-1.7-3.9-3.9c0-2.1,1.7-3.9,3.9-3.9s3.9,1.7,3.9,3.9S14.1,13.6,12,13.6z M12,6.9
			c-1.6,0-2.9,1.3-2.9,2.9s1.3,2.9,2.9,2.9s2.9-1.3,2.9-2.9C14.9,8.2,13.6,6.9,12,6.9z"/>
		<path class="st0" d="M18.3,18.8c-1-2.6-3.5-4.2-6.3-4.2s-5.2,1.7-6.3,4.2l-0.9-0.4c1.2-2.9,4-4.8,7.2-4.8s6,1.9,7.2,4.8L18.3,18.8
			z"/>
	</g>
</g>
</svg>
