<?xml version="1.0" encoding="utf-8"?>
<!-- Generator: Adobe Illustrator 24.2.3, SVG Export Plug-In . SVG Version: 6.00 Build 0)  -->
<svg version="1.1" id="Layer_1" xmlns="http://www.w3.org/2000/svg" xmlns:xlink="http://www.w3.org/1999/xlink" x="0px" y="0px"
	 viewBox="0 0 24 24" style="enable-background:new 0 0 24 24;" xml:space="preserve">
<style type="text/css">
	.st0{fill:#FFFFFF;}
</style>
<g>
	<path class="st0" d="M5.3,19.8v-1.2h9.3c1.2-0.1,1.3-0.8,1.3-0.9v-0.1l2.8-16.4h2.5v1.2h-1.6L17.1,18c0,0.6-0.5,1.9-2.5,2L5.3,19.8
		z"/>
	<path class="st0" d="M17.4,15.9H3.7L0.4,9c-1.1-2.3,0.2-3.2,0.3-3.2l0.2-0.1h18.4L17.4,15.9z M4.4,14.8h12l1.4-8H1.1
		C1.1,7,0.9,7.5,1.4,8.6L4.4,14.8z"/>
	<ellipse class="st0" cx="7.5" cy="21.8" rx="0.9" ry="0.9"/>
	<ellipse class="st0" cx="14.4" cy="21.8" rx="0.9" ry="0.9"/>
</g>
</svg>
