<?xml version="1.0" encoding="utf-8"?>
<!-- Generator: Adobe Illustrator 24.2.3, SVG Export Plug-In . SVG Version: 6.00 Build 0)  -->
<svg version="1.1" id="Capa_1" xmlns="http://www.w3.org/2000/svg" xmlns:xlink="http://www.w3.org/1999/xlink" x="0px" y="0px"
	 viewBox="0 0 30 30" style="enable-background:new 0 0 30 30;" xml:space="preserve">
<g>
	<path d="M22.1,29.8H7.9c-2.1,0-3.8-1.7-3.8-3.8V14.8c0-0.4,0.3-0.7,0.7-0.7c0.4,0,0.7,0.3,0.7,0.7V26c0,1.3,1.1,2.4,2.4,2.4h14.3
		c1.3,0,2.4-1.1,2.4-2.4V14.8c0-0.4,0.3-0.7,0.7-0.7c0.4,0,0.7,0.3,0.7,0.7V26C25.9,28.1,24.2,29.8,22.1,29.8z"/>
	<path d="M0.7,14.6c-0.2,0-0.4-0.1-0.5-0.2c-0.3-0.3-0.2-0.7,0.1-1l14.5-13c0.3-0.2,0.7-0.2,1,0l14.1,13c0.3,0.3,0.3,0.7,0,1
		s-0.7,0.3-1,0L15.2,1.8l-14,12.6C1,14.5,0.9,14.6,0.7,14.6z"/>
	<path d="M20.9,15.5c-0.2,0-0.3-0.1-0.4-0.2c-5.8-4.8-10.6-0.2-10.8,0c-0.3,0.3-0.7,0.3-1,0s-0.3-0.7,0-1c0.1-0.1,5.9-5.7,12.7,0
		c0.3,0.2,0.3,0.7,0.1,1C21.3,15.4,21.1,15.5,20.9,15.5z"/>
	<path d="M11.5,19.7c-0.1,0-0.3,0-0.4-0.1c-0.3-0.2-0.4-0.7-0.1-1c0.1-0.1,1.7-2.1,4.1-2.2c1.5-0.1,3,0.7,4.4,2.2
		c0.3,0.3,0.2,0.7-0.1,1c-0.3,0.3-0.7,0.2-1-0.1c-1.1-1.2-2.2-1.8-3.3-1.7c-1.7,0.1-3,1.7-3,1.7C11.9,19.6,11.7,19.7,11.5,19.7z"/>
	<circle cx="15.1" cy="21.4" r="0.7"/>
	<path d="M15.1,22.8c-0.8,0-1.5-0.7-1.5-1.5s0.7-1.5,1.5-1.5s1.5,0.7,1.5,1.5S15.9,22.8,15.1,22.8z M15.1,21.3L15.1,21.3L15.1,21.3
		C15.2,21.4,15.2,21.3,15.1,21.3z"/>
</g>
</svg>
