<?xml version="1.0" encoding="utf-8"?>
<!-- Generator: Adobe Illustrator 24.2.3, SVG Export Plug-In . SVG Version: 6.00 Build 0)  -->
<svg version="1.1" id="Layer_1" xmlns="http://www.w3.org/2000/svg" xmlns:xlink="http://www.w3.org/1999/xlink" x="0px" y="0px"
	 viewBox="0 0 64 64" style="enable-background:new 0 0 64 64;" xml:space="preserve">
<style type="text/css">
	.st0{fill:#FFFFFF;}
	.st1{fill-rule:evenodd;clip-rule:evenodd;fill:#FFBF3F;}
	.st2{fill-rule:evenodd;clip-rule:evenodd;fill:#8246AF;}
	.st3{fill-rule:evenodd;clip-rule:evenodd;fill:#F04E98;}
	.st4{fill-rule:evenodd;clip-rule:evenodd;fill:#59CBE8;}
	.st5{fill-rule:evenodd;clip-rule:evenodd;fill:#DBE442;}
	.st6{fill-rule:evenodd;clip-rule:evenodd;fill:#E4002B;}
</style>
<path id="Gradient-Copy" class="st0" d="M13.3,0h37.3C58,0,64,6,64,13.3v37.3C64,58,58,64,50.7,64H13.3C6,64,0,58,0,50.7V13.3
	C0,6,6,0,13.3,0z"/>
<path id="Fill-13" class="st1" d="M29.3,18.1c0.7-0.4,0.7-1.1,0-1.5L20,11.4c-0.7-0.4-1.3-0.1-1.3,0.7v10.5c0,0.8,0.6,1.1,1.3,0.7
	L29.3,18.1z"/>
<path id="Fill-14" class="st2" d="M29.3,31.9c0.7-0.4,0.7-1.1,0-1.5L20,25.2c-0.7-0.4-1.3-0.1-1.3,0.7v10.5c0,0.8,0.6,1.1,1.3,0.7
	L29.3,31.9z"/>
<path id="Fill-15" class="st3" d="M29.3,45.8c0.7-0.4,0.7-1.1,0-1.5L20,39.1c-0.7-0.4-1.3-0.1-1.3,0.7v10.5c0,0.8,0.6,1.1,1.3,0.7
	L29.3,45.8z"/>
<path id="Fill-16" class="st4" d="M29.9,29c0,0.8,0.6,1.1,1.3,0.7l9.4-5.2c0.7-0.4,0.7-1.1,0-1.5l-9.4-5.2c-0.7-0.4-1.3-0.1-1.3,0.7
	V29z"/>
<path id="Fill-17" class="st5" d="M29.9,42.8c0,0.8,0.6,1.1,1.3,0.7l9.4-5.2c0.7-0.4,0.7-1.1,0-1.5l-9.4-5.2
	c-0.7-0.4-1.3-0.1-1.3,0.7V42.8z"/>
<path id="Fill-18" class="st6" d="M41.1,35.9c0,0.8,0.6,1.1,1.3,0.7l9.4-5.2c0.7-0.4,0.7-1.1,0-1.5l-9.4-5.2
	c-0.7-0.4-1.3-0.1-1.3,0.7C41.1,25.4,41.1,35.9,41.1,35.9z"/>
</svg>
