<?xml version="1.0" encoding="utf-8"?>
<!-- Generator: Adobe Illustrator 24.2.3, SVG Export Plug-In . SVG Version: 6.00 Build 0)  -->
<svg version="1.1" id="Capa_1" xmlns="http://www.w3.org/2000/svg" xmlns:xlink="http://www.w3.org/1999/xlink" x="0px" y="0px"
	 viewBox="0 0 30 30" style="enable-background:new 0 0 30 30;" xml:space="preserve">
<g>
	<path d="M12.1,24.9c-3.1,0-5.6-2.5-5.6-5.6s2.5-5.6,5.6-5.6c0.6,0,1.2,0.1,1.8,0.3c0.8-3.6,4.1-6.3,7.9-6.3c4.5,0,8.1,3.7,8.1,8.1
		c0,3.3-2,6.3-5,7.5c-0.4,0.2-0.8,0-0.9-0.4c-0.2-0.4,0-0.8,0.4-0.9c2.5-1,4.2-3.5,4.2-6.2c0-3.7-3-6.7-6.7-6.7
		c-3.4,0-6.3,2.6-6.7,6c0,0.2-0.2,0.4-0.4,0.6c-0.2,0.1-0.5,0.1-0.7,0c-0.6-0.3-1.3-0.5-2-0.5C9.9,15.1,8,17,8,19.3s1.9,4.1,4.1,4.1
		c0.2,0,0.3,0,0.5,0c0.4,0,0.7,0.2,0.8,0.6c0,0.4-0.2,0.7-0.6,0.8C12.6,24.8,12.4,24.9,12.1,24.9z"/>
	<path d="M16.7,30c-0.2,0-0.4-0.1-0.5-0.2c-0.3-0.3-0.3-0.7,0-1l3.9-4l-4.8-0.3c-0.3,0-0.5-0.2-0.6-0.5c-0.1-0.3,0-0.6,0.2-0.8
		l5.4-5.4c0.3-0.3,0.7-0.3,1,0c0.3,0.3,0.3,0.7,0,1L17,23.2l4.8,0.3c0.3,0,0.5,0.2,0.6,0.5c0.1,0.3,0,0.6-0.2,0.8l-5,5.1
		C17.1,29.9,16.9,30,16.7,30z"/>
	<path d="M9.3,30c-0.2,0-0.3-0.1-0.5-0.2c-0.3-0.2-0.4-0.7-0.1-1l2.8-3.4c0.2-0.3,0.7-0.4,1-0.1c0.3,0.2,0.4,0.7,0.1,1l-2.8,3.4
		C9.8,29.9,9.6,30,9.3,30z"/>
	<path d="M21.4,30c-0.2,0-0.3-0.1-0.5-0.2c-0.3-0.3-0.3-0.7-0.1-1l3.4-3.9c0.3-0.3,0.7-0.3,1-0.1c0.3,0.3,0.3,0.7,0.1,1l-3.4,3.9
		C21.7,29.9,21.5,30,21.4,30z"/>
	<path d="M18.7,2.4c-0.3-0.2-0.8-0.2-1,0.1l-2.4,3.1c-1-0.7-2.1-1.1-3.3-1.1c-0.1,0-0.2,0-0.3,0V0.7C11.7,0.3,11.4,0,11,0
		c-0.4,0-0.7,0.3-0.7,0.7v4.1C9.2,5.1,8.2,5.7,7.4,6.5c0-0.1-0.1-0.2-0.2-0.3L3.7,3.3C3.4,3,3,3,2.7,3.3c-0.3,0.3-0.2,0.8,0.1,1
		l3.5,2.9c0.1,0.1,0.2,0.1,0.4,0.2c-0.5,0.9-0.9,1.9-0.9,3c-0.1-0.1-0.3-0.2-0.4-0.2H0.7C0.3,10.3,0,10.6,0,11
		c0,0.4,0.3,0.7,0.7,0.7h4.6c0.2,0,0.3-0.1,0.5-0.2c0.2,1.3,0.7,2.5,1.6,3.4c0.1,0.1,0.3,0.2,0.5,0.2c0.2,0,0.4-0.1,0.5-0.2
		c0.3-0.3,0.3-0.7,0-1c-0.9-0.9-1.3-2.1-1.3-3.4C7.2,8,9.4,5.9,12,6c1.7,0,3.3,1,4.1,2.5c0.2,0.3,0.6,0.5,1,0.3
		c0.3-0.2,0.5-0.6,0.3-1C17,7.4,16.7,7,16.4,6.6l2.4-3.2C19.1,3.1,19,2.7,18.7,2.4z"/>
</g>
</svg>
