<svg xmlns="http://www.w3.org/2000/svg" xmlns:xlink="http://www.w3.org/1999/xlink" width="180" height="101" viewBox="0 0 180 101">
    <defs>
        <path id="a" d="M.804 30.537h146.962V.463H.804z"/>
    </defs>
    <g fill="none" fill-rule="evenodd" transform="translate(16 35)">
        <path fill="#75787B" d="M144.063 12.394v.836h.554c.342 0 .586-.097.586-.386 0-.367-.21-.465-.617-.465-.182 0-.345 0-.523.015m1.994 2.539h-.714l-.47-1.072c-.054-.101-.054-.117-.215-.117h-.555v1.189h-.61v-3.075a17.52 17.52 0 0 1 1.165-.046c.685 0 1.308.2 1.308.966 0 .37-.195.665-.536.814.255.439.611 1.304.627 1.34m-3.987-1.56c0 1.317 1.146 2.412 2.559 2.412 1.424 0 2.567-1.095 2.567-2.411 0-1.333-1.143-2.412-2.567-2.412-1.413 0-2.56 1.08-2.56 2.412m-.569.008c0-1.653 1.396-2.988 3.133-2.988 1.72 0 3.133 1.335 3.133 2.988 0 1.629-1.413 2.97-3.133 2.97-1.737 0-3.133-1.341-3.133-2.97"/>
        <mask id="b" fill="#fff">
            <use xlink:href="#a"/>
        </mask>
        <path fill="#75787B" d="M105.899 24.579h3.702V5.003H105.9zM97.732 24.695c-1.594 0-2.46-.38-3.35-1.664h-.055v6.938H90.52V10.694h3.215l.243 1.611h.054c.973-1.418 2.16-1.912 3.836-1.912 4.134 0 5.753 3.275 5.753 7.015 0 3.904-1.595 7.287-5.888 7.287m-.884-11.181c-1.59 0-2.626.631-2.626 2.361v3.046c0 1.898.585 3.104 2.573 3.104 2.493 0 2.838-2.305 2.838-4.42 0-2.169-.292-4.091-2.785-4.091M133.63 24.937c-1.793 4.561-2.66 5.6-5.974 5.6-.544 0-1.114-.028-2.065-.136v-3.197c.247.026.706.081 1.52.081 1.466 0 1.82-.382 2.31-1.61l.625-1.558-5.35-13.44h4.153L132 20.155h.055l3.067-9.478h4.1l-5.592 14.26zM120.14 20.963c-.916.637-1.912 1.062-3.068 1.062-1.101 0-1.775-.69-1.775-1.808 0-2.42 3.065-2.447 4.842-2.447v3.193zm3.72.1v-.586l.001-.007v-4.618c0-3.89-1.483-5.459-5.446-5.459-2.398 0-4.369.54-6.498 1.62l1.185 2.596c1.512-.838 3.21-1.405 4.963-1.405 1.374 0 1.994.405 1.994 1.676v.645c-3.368-.025-8.464.434-8.464 4.92 0 2.62 1.806 4.134 4.368 4.134 1.66 0 3.185-.56 4.501-1.604.01.083.021.152.035.197.411 1.305 2.653 1.397 4.345 1.305l.137-2.887c-.709-.023-1.12-.115-1.12-.527zM50.517 24.579c-4.714 0-6.992-2.871-6.992-7.092 0-3.952 2.033-7.094 6.992-7.094 4.581 0 6.964 2.708 6.964 7.094 0 4.195-2.222 7.092-6.964 7.092m.13-11.065c-2.397 0-3.134 1.426-3.134 4.061 0 2.688.764 4.167 3.16 4.167 2.344 0 3.105-1.452 3.105-4.167 0-2.635-.735-4.061-3.13-4.061" mask="url(#b)"/>
        <path fill="#75787B" d="M31.563 6.138V9.55h5.109v15.028h4.023V9.55h5.109V6.138zM66.75 21.391c-1.943.049-2.129-.204-2.142-1.373l-.001-.19v-6.121h3.127V10.62h-3.127V6.989h-3.75v3.632H58.62v3.086h2.212v6.53c0 3.303.89 4.342 4.557 4.342.674 0 1.32-.083 2.345-.192v-3.063c-.282.027-.514.055-.985.067M84.538 24.579h3.703V5.003h-3.703zM77.703 20.963c-.916.637-1.912 1.062-3.068 1.062-1.102 0-1.774-.69-1.774-1.808 0-2.42 3.065-2.447 4.842-2.447v3.193zm3.721.1v-.586-4.625c0-3.89-1.483-5.459-5.445-5.459-2.399 0-4.37.54-6.498 1.62l1.185 2.596c1.512-.838 3.21-1.405 4.962-1.405 1.374 0 1.994.405 1.994 1.676v.645c-3.368-.025-8.464.434-8.464 4.92 0 2.62 1.806 4.134 4.368 4.134 1.66 0 3.186-.56 4.502-1.604.01.083.02.152.035.197.411 1.305 2.652 1.397 4.344 1.305l.137-2.887c-.708-.023-1.12-.115-1.12-.527z" mask="url(#b)"/>
        <path fill="#FFBF3F" d="M8.665 5.545c.531-.299.531-.786 0-1.084L1.769.59C1.24.292.804.536.804 1.131v7.741c0 .596.434.84.965.542l6.896-3.87z" mask="url(#b)"/>
        <path fill="#8246AF" d="M8.665 15.474c.531-.298.531-.785 0-1.083l-6.896-3.87c-.53-.298-.965-.055-.965.541v7.741c0 .596.434.84.965.542l6.896-3.87z" mask="url(#b)"/>
        <path fill="#F04E98" d="M8.665 25.972c.531-.298.531-.786 0-1.084l-6.896-3.87c-.53-.298-.965-.054-.965.542v7.74c0 .596.434.84.965.542l6.896-3.87z" mask="url(#b)"/>
        <path fill="#59CBE8" d="M9.633 13.98c0 .596.434.84.966.542l6.895-3.87c.531-.299.531-.786 0-1.085L10.6 5.697c-.532-.298-.966-.054-.966.542v7.74z" mask="url(#b)"/>
        <path fill="#DBE442" d="M9.633 24.193c0 .596.434.84.966.542l6.895-3.87c.531-.298.531-.786 0-1.084l-6.895-3.87c-.532-.298-.966-.054-.966.542v7.74z" mask="url(#b)"/>
        <path fill="#E4002B" d="M18.747 18.803c0 .596.434.84.965.542l6.896-3.87c.531-.299.531-.786 0-1.084l-6.896-3.87c-.531-.298-.965-.055-.965.541v7.741z" mask="url(#b)"/>
    </g>
</svg>
