<svg xmlns="http://www.w3.org/2000/svg" width="120" height="35" viewBox="0 0 120 35">
    <g fill="none" fill-rule="evenodd">
        <rect width="118.793" height="33.363" x=".384" y=".384" fill="#000" stroke="#A6A6A6" stroke-width=".769" rx="3.074"/>
        <rect width="119.559" height="34.144" fill="#3B4559" rx="3.754"/>
        <path fill="#FFF" d="M45.878 26.807h2.009l-4.399-11.716h-2.035l-4.399 11.716h1.942l1.123-3.11h4.644l1.115 3.11zm-3.504-9.589h.143l1.765 4.953H40.6l1.774-4.953zm10.841.601c-1.25 0-2.33.601-2.887 1.608h-.135v-1.462h-1.748v11.708h1.815v-4.205h.144c.48.933 1.52 1.485 2.828 1.485 2.322 0 3.8-1.761 3.8-4.57 0-2.81-1.478-4.564-3.817-4.564zm-.515 7.567c-1.52 0-2.474-1.152-2.474-2.996 0-1.85.954-3.004 2.483-3.004 1.536 0 2.457 1.129 2.457 2.996 0 1.876-.92 3.004-2.466 3.004zm9.93-7.567c-1.25 0-2.33.601-2.887 1.608h-.136v-1.462H57.86v11.708h1.815v-4.205h.144c.48.933 1.52 1.485 2.828 1.485 2.322 0 3.8-1.761 3.8-4.57 0-2.81-1.478-4.564-3.817-4.564zm-.515 7.567c-1.52 0-2.474-1.152-2.474-2.996 0-1.85.954-3.004 2.483-3.004 1.536 0 2.457 1.129 2.457 2.996 0 1.876-.92 3.004-2.466 3.004zm8.174-1.729c.135 2.095 1.95 3.434 4.653 3.434 2.887 0 4.694-1.404 4.694-3.645 0-1.762-1.03-2.736-3.53-3.296l-1.342-.317c-1.587-.357-2.229-.836-2.229-1.673 0-1.055.997-1.745 2.491-1.745 1.418 0 2.398.674 2.575 1.753h1.84c-.109-1.973-1.916-3.36-4.39-3.36-2.66 0-4.432 1.387-4.432 3.474 0 1.721 1.004 2.744 3.208 3.24l1.57.365c1.613.365 2.322.901 2.322 1.794 0 1.04-1.114 1.795-2.634 1.795-1.63 0-2.76-.707-2.921-1.819h-1.875zm10.91-7.835v2.184h-1.512v1.47H81.2v4.993c0 1.705.802 2.387 2.82 2.387.354 0 .684-.04.97-.09v-1.453c-.253.025-.396.041-.675.041-.903 0-1.3-.406-1.3-1.332v-4.546h2.06v-1.47h-2.06v-2.184h-1.815zm8.376 9.605c-1.579 0-2.466-1.112-2.466-3.045 0-1.916.887-3.036 2.466-3.036 1.57 0 2.465 1.12 2.465 3.036 0 1.925-.895 3.045-2.465 3.045zm0 1.55c2.685 0 4.331-1.729 4.331-4.595 0-2.85-1.655-4.587-4.331-4.587-2.685 0-4.34 1.737-4.34 4.587 0 2.866 1.647 4.596 4.34 4.596zm5.16-.17h1.815v-5.22c0-1.243.97-2.079 2.338-2.079.304 0 .862.057 1.005.106v-1.722c-.194-.048-.54-.073-.802-.073-1.199 0-2.212.634-2.474 1.502h-.135v-1.356h-1.748v8.842zm9.245-7.526c1.343 0 2.22.901 2.263 2.29H101.6c.102-1.38 1.039-2.29 2.381-2.29zm2.255 5.14c-.338.69-1.09 1.071-2.187 1.071-1.452 0-2.39-.982-2.449-2.533v-.098h6.493v-.609c0-2.776-1.545-4.457-4.103-4.457-2.592 0-4.239 1.794-4.239 4.62 0 2.825 1.613 4.563 4.247 4.563 2.103 0 3.572-.974 3.985-2.558h-1.747z"/>
        <text fill="#FFF" font-family="Montserrat-Regular, Montserrat" font-size="8.608">
            <tspan x="37.054" y="11.16">Disponible en el</tspan>
        </text>
        <g fill="#FFF">
            <path d="M26.625 17.226c-.027-2.832 2.411-4.21 2.523-4.273-1.381-1.936-3.521-2.2-4.273-2.222-1.797-.182-3.54 1.034-4.456 1.034-.934 0-2.344-1.016-3.864-.986-1.955.029-3.785 1.117-4.788 2.808-2.07 3.447-.526 8.513 1.458 11.299.992 1.365 2.151 2.888 3.67 2.834 1.484-.058 2.039-.91 3.83-.91 1.776 0 2.297.91 3.845.875 1.593-.023 2.597-1.37 3.554-2.747 1.147-1.563 1.608-3.105 1.626-3.184-.037-.011-3.094-1.133-3.125-4.528M23.7 8.898c.8-.96 1.346-2.267 1.194-3.593-1.156.05-2.601.77-3.434 1.709-.736.827-1.394 2.184-1.224 3.46 1.298.093 2.631-.63 3.465-1.576"/>
        </g>
    </g>
</svg>
