<svg xmlns="http://www.w3.org/2000/svg" xmlns:xlink="http://www.w3.org/1999/xlink" width="120" height="35" viewBox="0 0 120 35">
    <defs>
        <linearGradient id="b" x1="50%" x2="50%" y1="0%" y2="38.913%">
            <stop offset="0%" stop-color="#FBDA09"/>
            <stop offset="100%" stop-color="#FFBC00"/>
        </linearGradient>
        <path id="a" d="M11.677 2.728l7.888 14.422a2.37 2.37 0 0 1-2.08 3.508H1.71A2.37 2.37 0 0 1-.37 17.15L7.518 2.728a2.37 2.37 0 0 1 4.16 0z"/>
        <linearGradient id="c" x1="36.499%" x2="55.213%" y1="58.476%" y2="39.083%">
            <stop offset="0%" stop-color="#01E2FF"/>
            <stop offset="100%" stop-color="#01C4FF"/>
        </linearGradient>
        <linearGradient id="e" x1="20.281%" x2="83.82%" y1="33.755%" y2="68.268%">
            <stop offset="0%" stop-color="#28D781"/>
            <stop offset="100%" stop-color="#02F076"/>
        </linearGradient>
        <linearGradient id="f" x1="74.488%" x2="10.108%" y1="36.286%" y2="67.341%">
            <stop offset="0%" stop-color="#F2414E"/>
            <stop offset="100%" stop-color="#E02554"/>
        </linearGradient>
    </defs>
    <g fill="none" fill-rule="evenodd">
        <rect width="119.118" height="33.48" x=".376" y=".376" fill="#000" stroke="#A6A6A6" stroke-width=".753" rx="3.763"/>
        <rect width="119.87" height="34.233" fill="#3B4559" rx="3.763"/>
        <path fill="#FFF" d="M39.636 5.015c.614 0 1.17.131 1.667.395.498.264.888.627 1.171 1.09.283.465.425.983.425 1.557 0 .573-.143 1.092-.43 1.556-.286.463-.679.827-1.18 1.09a3.55 3.55 0 0 1-1.68.396h-2.55V5.015h2.577zm.018 5.328c.44 0 .839-.099 1.197-.296a2.214 2.214 0 0 0 1.162-1.981c0-.435-.105-.826-.316-1.174a2.262 2.262 0 0 0-.864-.821c-.364-.2-.77-.3-1.215-.3h-1.69v4.572h1.726zM44.056 6.5h.84v4.598h-.84V6.501zm.416-1.834a.511.511 0 0 1 .524.521.504.504 0 0 1-.524.522.511.511 0 0 1-.525-.522.504.504 0 0 1 .525-.521zm4.673 2.85a2.924 2.924 0 0 0-.656-.277 2.433 2.433 0 0 0-.682-.105c-.253 0-.457.045-.61.135a.446.446 0 0 0-.23.413c0 .185.085.326.257.422.172.095.432.192.782.29.331.094.602.186.813.279.211.093.39.229.538.408.148.18.222.418.222.713 0 .435-.17.765-.511.991-.34.226-.764.34-1.27.34-.356 0-.7-.056-1.035-.166a2.377 2.377 0 0 1-.845-.47l.316-.59c.199.173.445.312.737.417.292.104.577.156.854.156s.5-.05.669-.148a.488.488 0 0 0 .253-.452.51.51 0 0 0-.267-.469c-.177-.104-.447-.209-.809-.313a5.564 5.564 0 0 1-.781-.265 1.38 1.38 0 0 1-.516-.395c-.141-.174-.212-.4-.212-.678 0-.43.163-.75.488-.965.325-.215.732-.322 1.22-.322.29 0 .574.04.854.118.28.078.523.183.728.317l-.307.617zm4.203-1.042c.446 0 .843.098 1.193.295.35.197.62.473.813.826.193.354.29.76.29 1.217 0 .452-.095.853-.285 1.204a2.02 2.02 0 0 1-.804.817 2.39 2.39 0 0 1-1.19.291c-.403 0-.758-.081-1.066-.243a1.782 1.782 0 0 1-.723-.696v2.6h-.84V6.5h.84v.913a1.79 1.79 0 0 1 .719-.696 2.204 2.204 0 0 1 1.053-.243zm-.163 3.946c.307 0 .583-.07.827-.209a1.46 1.46 0 0 0 .57-.582c.135-.25.203-.53.203-.843 0-.307-.07-.585-.208-.834a1.5 1.5 0 0 0-.57-.583 1.616 1.616 0 0 0-.822-.208c-.307 0-.583.07-.827.208-.244.14-.435.333-.574.583-.139.249-.208.527-.208.834 0 .319.07.601.208.847a1.5 1.5 0 0 0 .574.578c.244.14.52.209.827.209zm5.622-3.946c.476 0 .9.098 1.27.295.37.197.66.471.868.822.208.35.312.752.312 1.204 0 .452-.104.854-.312 1.208a2.163 2.163 0 0 1-.868.826c-.37.197-.794.295-1.27.295-.482 0-.908-.098-1.279-.295-.37-.197-.66-.471-.867-.822a2.332 2.332 0 0 1-.312-1.212c0-.452.104-.854.312-1.204.208-.35.497-.625.867-.822.37-.197.797-.295 1.28-.295zm0 .704c-.313 0-.592.07-.836.209-.244.139-.434.331-.57.578a1.71 1.71 0 0 0-.203.838c0 .319.068.603.204.852.135.25.325.442.57.578.243.136.522.204.835.204.308 0 .583-.068.827-.204.244-.136.434-.329.57-.578.135-.249.203-.533.203-.852a1.71 1.71 0 0 0-.203-.838 1.468 1.468 0 0 0-.57-.578 1.64 1.64 0 0 0-.827-.21zm6.282-.704c.56 0 1 .158 1.32.474.32.315.48.751.48 1.308v2.842h-.841V8.474c0-.388-.113-.691-.34-.908-.225-.218-.537-.326-.935-.326-.428.006-.776.137-1.044.395s-.42.593-.456 1.004v2.46h-.841V6.501h.84v.973c.32-.654.926-.988 1.817-1zm3.3.026h.84v4.598h-.84V6.501zm.415-1.834a.511.511 0 0 1 .525.521.504.504 0 0 1-.525.522.511.511 0 0 1-.524-.522.504.504 0 0 1 .524-.521zm4.719 1.808c.446 0 .843.098 1.193.295.35.197.62.473.813.826.193.354.29.76.29 1.217 0 .452-.095.853-.285 1.204a2.02 2.02 0 0 1-.805.817 2.39 2.39 0 0 1-1.188.291c-.404 0-.76-.081-1.067-.243a1.782 1.782 0 0 1-.723-.696v.913h-.84v-6.45h.84v2.765a1.79 1.79 0 0 1 .719-.696 2.204 2.204 0 0 1 1.053-.243zm-.163 3.946c.307 0 .583-.07.827-.209a1.46 1.46 0 0 0 .57-.582c.135-.25.203-.53.203-.843 0-.307-.07-.585-.208-.834a1.5 1.5 0 0 0-.57-.583 1.616 1.616 0 0 0-.822-.208c-.307 0-.583.07-.827.208-.244.14-.435.333-.574.583-.139.249-.208.527-.208.834 0 .319.07.601.208.847a1.5 1.5 0 0 0 .574.578c.244.14.52.209.827.209zm3.679-5.771h.84v6.449h-.84v-6.45zm4.447 1.825c.741 0 1.302.21 1.681.63.38.42.57 1.004.57 1.751 0 .116-.003.203-.01.261H79.95c.067.412.246.739.538.982.293.244.653.365 1.08.365.284 0 .547-.049.791-.147.244-.099.457-.238.638-.417l.46.46a2.419 2.419 0 0 1-.85.565 2.93 2.93 0 0 1-1.102.2c-.47 0-.887-.097-1.252-.291a2.088 2.088 0 0 1-.85-.821 2.393 2.393 0 0 1-.302-1.209c0-.452.1-.853.303-1.204.201-.35.483-.625.845-.825.361-.2.774-.3 1.238-.3zm1.491 2.016c-.024-.417-.168-.746-.433-.986-.266-.24-.615-.36-1.049-.36-.422 0-.773.12-1.053.364-.28.244-.447.571-.502.982h3.037zm6.192-2.016c.741 0 1.302.21 1.681.63.38.42.57 1.004.57 1.751 0 .116-.003.203-.01.261h-3.777c.066.412.245.739.537.982.293.244.653.365 1.08.365.284 0 .547-.049.791-.147.244-.099.457-.238.638-.417l.46.46a2.419 2.419 0 0 1-.849.565 2.93 2.93 0 0 1-1.103.2c-.47 0-.887-.097-1.252-.291a2.088 2.088 0 0 1-.85-.821 2.393 2.393 0 0 1-.302-1.209c0-.452.1-.853.303-1.204.202-.35.483-.625.845-.825.361-.2.774-.3 1.238-.3zm1.492 2.016c-.025-.417-.17-.746-.434-.986-.265-.24-.615-.36-1.049-.36-.422 0-.773.12-1.053.364-.28.244-.447.571-.502.982h3.038zm4.564-2.016c.56 0 1 .158 1.32.474.32.315.479.751.479 1.308v2.842h-.84V8.474c0-.388-.114-.691-.34-.908-.226-.218-.537-.326-.935-.326-.428.006-.776.137-1.044.395s-.42.593-.457 1.004v2.46h-.84V6.501h.84v.973c.32-.654.925-.988 1.817-1z"/>
        <g fill="#FFF">
            <path d="M86.851 15.277h4.572s2.632.43 2.632 3.336c0 2.907-2.632 3.337-2.632 3.337H86.85v-6.673zm.887 1.614v3.581h3.104s1.412 0 1.412-1.79c0-1.791-1.412-1.791-1.412-1.791h-3.104z"/>
            <path d="M86.448 15.277h1.613v10.856h-1.613zM94.995 15.277h1.613v10.856h-1.613zM102.587 25.357c-.445.352-1.155.684-2.277.751-2.57.155-2.57-2.1-2.57-2.252 0-.152-.127-1.991 1.917-2.284 1.447-.207 2.461.138 2.93.357v-.319c-.115-.422-.472-1.198-1.54-1.198-1.47 0-1.794.763-1.794.763l-1.343-.763s.752-1.49 3.007-1.49c2.805 0 3.283 1.86 3.283 2.486V26.13h-1.613v-.773zm-.116-2.326s-3.107-.805-3.215.874c-.108 1.678 2.981.872 3.257-.318 0-.378-.042-.556-.042-.556zM107.226 25.721l-2.876-6.567h1.613l2.07 4.725 2.052-4.687h1.613l-4.364 9.965h-1.613l1.505-3.436zM82.837 21.692l-5.1 2.027s.329 1.121 1.862 1.129c1.201.006 1.88-1.024 1.88-1.024l1.293.843s-1.044 1.624-3.183 1.624c-2.628 0-3.786-2.21-3.786-3.645 0-1.383.919-3.725 3.623-3.725s3.411 2.77 3.411 2.77zm-1.94-.575s-.642-.939-1.627-.765c-2.082.366-1.82 2.118-1.82 2.118l3.446-1.353zM73.383 15.277h1.706V26.11h-1.706zM70.653 19.157l1.578.013v6.836c0 1.746-1.082 3.59-3.627 3.59-2.546 0-3.368-2.17-3.368-2.17l1.448-.585s.442 1.337 1.995 1.337c1.768 0 1.975-1.547 1.975-2.077v-.742s-.612.921-2.132.921c-1.648 0-3.605-1.357-3.605-3.672 0-2.314 1.843-3.637 3.624-3.686 1.427-.038 2.112.91 2.112.91v-.675zm-1.996 5.734c1.15 0 2.082-1.013 2.082-2.263s-.932-2.263-2.082-2.263-2.083 1.013-2.083 2.263.933 2.263 2.083 2.263zM60.369 26.288c-2.12 0-3.84-1.649-3.84-3.683 0-2.035 1.72-3.684 3.84-3.684s3.84 1.65 3.84 3.684c0 2.034-1.72 3.683-3.84 3.683zm-.025-1.444c1.192 0 2.158-1.003 2.158-2.24 0-1.236-.966-2.238-2.158-2.238s-2.158 1.002-2.158 2.239c0 1.236.966 2.239 2.158 2.239zM52.063 26.288c-2.12 0-3.84-1.649-3.84-3.683 0-2.035 1.72-3.684 3.84-3.684s3.839 1.65 3.839 3.684c0 2.034-1.719 3.683-3.84 3.683zm-.025-1.444c1.192 0 2.158-1.003 2.158-2.24 0-1.236-.966-2.238-2.158-2.238s-2.158 1.002-2.158 2.239c0 1.236.966 2.239 2.158 2.239z"/>
            <g>
                <path d="M42.15 20.09h5.068l-.05 1.54H42.15z"/>
                <path d="M46.22 16.464l-1.159 1.113c-.723-.71-1.75-1.1-2.936-1.1-2.37 0-4.291 1.844-4.291 4.118 0 2.273 1.92 4.116 4.29 4.116s4.053-1.314 4.05-4.116c.003-.174-.001-.342-.013-.506h1.48v.057c.558 3.924-2.227 6.183-5.567 6.154-3.284-.004-5.947-2.554-5.947-5.705 0-3.152 2.663-5.706 5.947-5.706 1.717 0 3.16.575 4.147 1.575z"/>
            </g>
        </g>
        <g transform="translate(8.79 5.915)">
            <mask id="d" fill="#fff">
                <use xlink:href="#a"/>
            </mask>
            <use fill="url(#b)" transform="rotate(90 9.598 11.076)" xlink:href="#a"/>
            <path fill="url(#c)" d="M0 .126L11.273 10.9-.146 22.1z" mask="url(#d)"/>
            <path fill="url(#e)" d="M-2.318-2.092l13.59 12.995 4.04-3.706z" mask="url(#d)"/>
            <path fill="url(#f)" d="M11.273 10.9l6.185 5.996-18.477 5.995z" mask="url(#d)"/>
        </g>
    </g>
</svg>
