<svg xmlns="http://www.w3.org/2000/svg" width="219" height="24" viewBox="0 0 219 24">
    <g fill="#3B4559" fill-rule="evenodd">
        <path d="M168.064 6.128v12.421h-1.406V6.128h-4.686V5.066h10.779v1.062h-4.687zM39.432 18.659V5.066h4.38V18.66h-4.38zm14.836 0l-4.609-7.706v7.707h-4.15V5.066h4.494l4.38 7.257V5.066h4.15V18.66h-4.265zM67.133 8.235V18.66h-4.38V8.234H59.04V5.066h11.809v3.168h-3.715zm4.22 10.426V5.066H81.65v3.168h-5.916v1.884h5.48v3.211h-5.48v2.077h6.122v3.254H71.354zM88.966 8.127h-1.65v2.869h1.65c1.01 0 1.743-.493 1.743-1.434 0-.942-.734-1.435-1.743-1.435zM91.03 18.66l-2.614-4.689h-1.1v4.689h-4.38V5.066h6.26c1.605 0 3.072.193 4.081.857 1.009.663 1.812 1.82 1.812 3.425 0 1.605-.574 3.04-2.522 3.896l3.393 5.416h-4.93zm13.966 0l-4.609-7.707v7.707h-4.15V5.066h4.494l4.38 7.257V5.066h4.15V18.66h-4.265zm5.963 0V5.066h10.296v3.168h-5.916v1.884h5.48v3.211h-5.48v2.077h6.122v3.254h-10.502zm18.483-10.426V18.66h-4.38V8.234h-3.714V5.066h11.809v3.168h-3.715zm55.005 10.315V5.066h1.407v12.4h6.209v1.083h-7.616zM176.79 6.133l-3.046 7.474h6.07l-3.024-7.474zm5.108 12.416l-1.523-3.779h-6.913l-1.523 3.78h-1.406l5.671-13.484h1.523l5.695 13.483h-1.524zM144.519 6.128v12.421h-1.406V6.128h-4.686V5.066h10.78v1.062h-4.688zm10.675.005c-3.35 0-5.53 2.4-5.53 5.796 0 3.398 2.18 5.797 5.507 5.797 3.35 0 5.53-2.4 5.53-5.797s-2.18-5.796-5.507-5.796m-.153 12.798c-4.217 0-6.982-2.951-6.982-6.922 0-3.991 2.741-6.943 6.96-6.943 4.217 0 6.981 2.952 6.981 6.922 0 3.992-2.741 6.943-6.959 6.943M27.027 16.476l8.563-4.615-8.563-4.615z"/>
    </g>
</svg>
